<?xml version="1.0" encoding="utf-8" standalone="no"?>
<!DOCTYPE svg PUBLIC "-//W3C//DTD SVG 1.1//EN"
  "http://www.w3.org/Graphics/SVG/1.1/DTD/svg11.dtd">
<svg xmlns:xlink="http://www.w3.org/1999/xlink" width="864pt" height="360pt" viewBox="0 0 864 360" xmlns="http://www.w3.org/2000/svg" version="1.1">
 <metadata>
  <rdf:RDF xmlns:dc="http://purl.org/dc/elements/1.1/" xmlns:cc="http://creativecommons.org/ns#" xmlns:rdf="http://www.w3.org/1999/02/22-rdf-syntax-ns#">
   <cc:Work>
    <dc:type rdf:resource="http://purl.org/dc/dcmitype/StillImage"/>
    <dc:date>2026-03-22T21:29:02.081245</dc:date>
    <dc:format>image/svg+xml</dc:format>
    <dc:creator>
     <cc:Agent>
      <dc:title>Matplotlib v3.10.8, https://matplotlib.org/</dc:title>
     </cc:Agent>
    </dc:creator>
   </cc:Work>
  </rdf:RDF>
 </metadata>
 <defs>
  <style type="text/css">*{stroke-linejoin: round; stroke-linecap: butt}</style>
 </defs>
 <g id="figure_1">
  <g id="patch_1">
   <path d="M 0 360 
L 864 360 
L 864 0 
L 0 0 
z
" style="fill: #ffffff"/>
  </g>
  <g id="axes_1">
   <g id="patch_2">
    <path d="M 50.915 318.04 
L 422.358528 318.04 
L 422.358528 26.16 
L 50.915 26.16 
z
" style="fill: #ffffff"/>
   </g>
   <g id="FillBetweenPolyCollection_1">
    <defs>
     <path id="md2448fce03" d="M 67.798797 -55.41625 
L 67.798797 -55.227273 
L 74.690142 -55.687689 
L 81.581488 -56.200293 
L 88.472834 -56.721058 
L 95.364179 -57.308219 
L 102.255525 -57.936514 
L 109.14687 -58.614613 
L 116.038216 -59.349614 
L 122.929562 -60.116908 
L 129.820907 -60.973474 
L 136.712253 -61.91414 
L 143.603598 -62.863372 
L 150.494944 -63.920953 
L 157.38629 -65.081268 
L 164.277635 -66.238466 
L 171.168981 -67.516338 
L 178.060326 -68.920327 
L 184.951672 -70.434238 
L 191.843018 -71.983813 
L 198.734363 -73.777162 
L 205.625709 -75.568187 
L 212.517054 -77.61001 
L 219.4084 -79.694238 
L 226.299746 -81.935394 
L 233.191091 -84.380557 
L 240.082437 -87.04966 
L 246.973782 -89.766921 
L 253.865128 -92.799622 
L 260.756474 -95.834423 
L 267.647819 -99.573511 
L 274.539165 -103.030832 
L 281.43051 -107.016265 
L 288.321856 -111.099286 
L 295.213202 -115.050725 
L 302.104547 -119.974817 
L 308.995893 -124.216734 
L 315.887238 -130.352543 
L 322.778584 -135.932684 
L 329.66993 -141.225529 
L 336.561275 -147.680592 
L 343.452621 -153.647328 
L 350.343966 -160.956426 
L 357.235312 -167.462071 
L 364.126658 -176.481294 
L 371.018003 -185.639614 
L 377.909349 -194.87016 
L 384.800694 -207.022309 
L 391.69204 -214.430014 
L 398.583386 -225.252257 
L 405.474731 -231.570689 
L 405.474731 -320.572727 
L 405.474731 -320.572727 
L 398.583386 -304.678272 
L 391.69204 -278.325141 
L 384.800694 -266.266203 
L 377.909349 -244.147594 
L 371.018003 -232.396186 
L 364.126658 -215.327526 
L 357.235312 -206.529191 
L 350.343966 -193.113089 
L 343.452621 -179.560746 
L 336.561275 -170.24968 
L 329.66993 -161.991281 
L 322.778584 -153.292053 
L 315.887238 -145.986136 
L 308.995893 -138.165212 
L 302.104547 -130.937321 
L 295.213202 -124.920319 
L 288.321856 -119.705572 
L 281.43051 -114.281042 
L 274.539165 -109.18209 
L 267.647819 -104.834375 
L 260.756474 -100.772055 
L 253.865128 -96.919034 
L 246.973782 -93.307521 
L 240.082437 -89.978908 
L 233.191091 -87.066965 
L 226.299746 -84.313777 
L 219.4084 -81.925413 
L 212.517054 -79.449337 
L 205.625709 -77.39447 
L 198.734363 -75.36548 
L 191.843018 -73.460923 
L 184.951672 -71.799404 
L 178.060326 -70.090131 
L 171.168981 -68.696482 
L 164.277635 -67.247428 
L 157.38629 -66.005445 
L 150.494944 -64.736369 
L 143.603598 -63.628624 
L 136.712253 -62.618618 
L 129.820907 -61.646462 
L 122.929562 -60.738484 
L 116.038216 -59.851479 
L 109.14687 -59.033434 
L 102.255525 -58.323241 
L 95.364179 -57.650007 
L 88.472834 -56.992988 
L 81.581488 -56.426755 
L 74.690142 -55.919488 
L 67.798797 -55.41625 
z
" style="stroke: #1f77b4; stroke-opacity: 0.25"/>
    </defs>
    <g clip-path="url(#p50dbc4ae75)">
     <use xlink:href="#md2448fce03" x="0" y="360" style="fill: #1f77b4; fill-opacity: 0.25; stroke: #1f77b4; stroke-opacity: 0.25"/>
    </g>
   </g>
   <g id="matplotlib.axis_1">
    <g id="xtick_1">
     <g id="line2d_1">
      <path d="M 60.066683 318.04 
L 60.066683 26.16 
" clip-path="url(#p50dbc4ae75)" style="fill: none; stroke: #b0b0b0; stroke-opacity: 0.25; stroke-width: 0.8; stroke-linecap: square"/>
     </g>
     <g id="line2d_2">
      <defs>
       <path id="m59cce235e3" d="M 0 0 
L 0 3.5 
" style="stroke: #000000; stroke-width: 0.8"/>
      </defs>
      <g>
       <use xlink:href="#m59cce235e3" x="60.066683" y="318.04" style="stroke: #000000; stroke-width: 0.8"/>
      </g>
     </g>
     <g id="text_1">
      <!-- 0.2 -->
      <g transform="translate(52.115121 332.638438) scale(0.1 -0.1)">
       <defs>
        <path id="DejaVuSans-30" d="M 2034 4250 
Q 1547 4250 1301 3770 
Q 1056 3291 1056 2328 
Q 1056 1369 1301 889 
Q 1547 409 2034 409 
Q 2525 409 2770 889 
Q 3016 1369 3016 2328 
Q 3016 3291 2770 3770 
Q 2525 4250 2034 4250 
z
M 2034 4750 
Q 2819 4750 3233 4129 
Q 3647 3509 3647 2328 
Q 3647 1150 3233 529 
Q 2819 -91 2034 -91 
Q 1250 -91 836 529 
Q 422 1150 422 2328 
Q 422 3509 836 4129 
Q 1250 4750 2034 4750 
z
" transform="scale(0.015625)"/>
        <path id="DejaVuSans-2e" d="M 684 794 
L 1344 794 
L 1344 0 
L 684 0 
L 684 794 
z
" transform="scale(0.015625)"/>
        <path id="DejaVuSans-32" d="M 1228 531 
L 3431 531 
L 3431 0 
L 469 0 
L 469 531 
Q 828 903 1448 1529 
Q 2069 2156 2228 2338 
Q 2531 2678 2651 2914 
Q 2772 3150 2772 3378 
Q 2772 3750 2511 3984 
Q 2250 4219 1831 4219 
Q 1534 4219 1204 4116 
Q 875 4013 500 3803 
L 500 4441 
Q 881 4594 1212 4672 
Q 1544 4750 1819 4750 
Q 2544 4750 2975 4387 
Q 3406 4025 3406 3419 
Q 3406 3131 3298 2873 
Q 3191 2616 2906 2266 
Q 2828 2175 2409 1742 
Q 1991 1309 1228 531 
z
" transform="scale(0.015625)"/>
       </defs>
       <use xlink:href="#DejaVuSans-30"/>
       <use xlink:href="#DejaVuSans-2e" transform="translate(63.623047 0)"/>
       <use xlink:href="#DejaVuSans-32" transform="translate(95.410156 0)"/>
      </g>
     </g>
    </g>
    <g id="xtick_2">
     <g id="line2d_3">
      <path d="M 119.869757 318.04 
L 119.869757 26.16 
" clip-path="url(#p50dbc4ae75)" style="fill: none; stroke: #b0b0b0; stroke-opacity: 0.25; stroke-width: 0.8; stroke-linecap: square"/>
     </g>
     <g id="line2d_4">
      <g>
       <use xlink:href="#m59cce235e3" x="119.869757" y="318.04" style="stroke: #000000; stroke-width: 0.8"/>
      </g>
     </g>
     <g id="text_2">
      <!-- 0.4 -->
      <g transform="translate(111.918195 332.638438) scale(0.1 -0.1)">
       <defs>
        <path id="DejaVuSans-34" d="M 2419 4116 
L 825 1625 
L 2419 1625 
L 2419 4116 
z
M 2253 4666 
L 3047 4666 
L 3047 1625 
L 3713 1625 
L 3713 1100 
L 3047 1100 
L 3047 0 
L 2419 0 
L 2419 1100 
L 313 1100 
L 313 1709 
L 2253 4666 
z
" transform="scale(0.015625)"/>
       </defs>
       <use xlink:href="#DejaVuSans-30"/>
       <use xlink:href="#DejaVuSans-2e" transform="translate(63.623047 0)"/>
       <use xlink:href="#DejaVuSans-34" transform="translate(95.410156 0)"/>
      </g>
     </g>
    </g>
    <g id="xtick_3">
     <g id="line2d_5">
      <path d="M 179.672831 318.04 
L 179.672831 26.16 
" clip-path="url(#p50dbc4ae75)" style="fill: none; stroke: #b0b0b0; stroke-opacity: 0.25; stroke-width: 0.8; stroke-linecap: square"/>
     </g>
     <g id="line2d_6">
      <g>
       <use xlink:href="#m59cce235e3" x="179.672831" y="318.04" style="stroke: #000000; stroke-width: 0.8"/>
      </g>
     </g>
     <g id="text_3">
      <!-- 0.6 -->
      <g transform="translate(171.721268 332.638438) scale(0.1 -0.1)">
       <defs>
        <path id="DejaVuSans-36" d="M 2113 2584 
Q 1688 2584 1439 2293 
Q 1191 2003 1191 1497 
Q 1191 994 1439 701 
Q 1688 409 2113 409 
Q 2538 409 2786 701 
Q 3034 994 3034 1497 
Q 3034 2003 2786 2293 
Q 2538 2584 2113 2584 
z
M 3366 4563 
L 3366 3988 
Q 3128 4100 2886 4159 
Q 2644 4219 2406 4219 
Q 1781 4219 1451 3797 
Q 1122 3375 1075 2522 
Q 1259 2794 1537 2939 
Q 1816 3084 2150 3084 
Q 2853 3084 3261 2657 
Q 3669 2231 3669 1497 
Q 3669 778 3244 343 
Q 2819 -91 2113 -91 
Q 1303 -91 875 529 
Q 447 1150 447 2328 
Q 447 3434 972 4092 
Q 1497 4750 2381 4750 
Q 2619 4750 2861 4703 
Q 3103 4656 3366 4563 
z
" transform="scale(0.015625)"/>
       </defs>
       <use xlink:href="#DejaVuSans-30"/>
       <use xlink:href="#DejaVuSans-2e" transform="translate(63.623047 0)"/>
       <use xlink:href="#DejaVuSans-36" transform="translate(95.410156 0)"/>
      </g>
     </g>
    </g>
    <g id="xtick_4">
     <g id="line2d_7">
      <path d="M 239.475904 318.04 
L 239.475904 26.16 
" clip-path="url(#p50dbc4ae75)" style="fill: none; stroke: #b0b0b0; stroke-opacity: 0.25; stroke-width: 0.8; stroke-linecap: square"/>
     </g>
     <g id="line2d_8">
      <g>
       <use xlink:href="#m59cce235e3" x="239.475904" y="318.04" style="stroke: #000000; stroke-width: 0.8"/>
      </g>
     </g>
     <g id="text_4">
      <!-- 0.8 -->
      <g transform="translate(231.524342 332.638438) scale(0.1 -0.1)">
       <defs>
        <path id="DejaVuSans-38" d="M 2034 2216 
Q 1584 2216 1326 1975 
Q 1069 1734 1069 1313 
Q 1069 891 1326 650 
Q 1584 409 2034 409 
Q 2484 409 2743 651 
Q 3003 894 3003 1313 
Q 3003 1734 2745 1975 
Q 2488 2216 2034 2216 
z
M 1403 2484 
Q 997 2584 770 2862 
Q 544 3141 544 3541 
Q 544 4100 942 4425 
Q 1341 4750 2034 4750 
Q 2731 4750 3128 4425 
Q 3525 4100 3525 3541 
Q 3525 3141 3298 2862 
Q 3072 2584 2669 2484 
Q 3125 2378 3379 2068 
Q 3634 1759 3634 1313 
Q 3634 634 3220 271 
Q 2806 -91 2034 -91 
Q 1263 -91 848 271 
Q 434 634 434 1313 
Q 434 1759 690 2068 
Q 947 2378 1403 2484 
z
M 1172 3481 
Q 1172 3119 1398 2916 
Q 1625 2713 2034 2713 
Q 2441 2713 2670 2916 
Q 2900 3119 2900 3481 
Q 2900 3844 2670 4047 
Q 2441 4250 2034 4250 
Q 1625 4250 1398 4047 
Q 1172 3844 1172 3481 
z
" transform="scale(0.015625)"/>
       </defs>
       <use xlink:href="#DejaVuSans-30"/>
       <use xlink:href="#DejaVuSans-2e" transform="translate(63.623047 0)"/>
       <use xlink:href="#DejaVuSans-38" transform="translate(95.410156 0)"/>
      </g>
     </g>
    </g>
    <g id="xtick_5">
     <g id="line2d_9">
      <path d="M 299.278978 318.04 
L 299.278978 26.16 
" clip-path="url(#p50dbc4ae75)" style="fill: none; stroke: #b0b0b0; stroke-opacity: 0.25; stroke-width: 0.8; stroke-linecap: square"/>
     </g>
     <g id="line2d_10">
      <g>
       <use xlink:href="#m59cce235e3" x="299.278978" y="318.04" style="stroke: #000000; stroke-width: 0.8"/>
      </g>
     </g>
     <g id="text_5">
      <!-- 1.0 -->
      <g transform="translate(291.327415 332.638438) scale(0.1 -0.1)">
       <defs>
        <path id="DejaVuSans-31" d="M 794 531 
L 1825 531 
L 1825 4091 
L 703 3866 
L 703 4441 
L 1819 4666 
L 2450 4666 
L 2450 531 
L 3481 531 
L 3481 0 
L 794 0 
L 794 531 
z
" transform="scale(0.015625)"/>
       </defs>
       <use xlink:href="#DejaVuSans-31"/>
       <use xlink:href="#DejaVuSans-2e" transform="translate(63.623047 0)"/>
       <use xlink:href="#DejaVuSans-30" transform="translate(95.410156 0)"/>
      </g>
     </g>
    </g>
    <g id="xtick_6">
     <g id="line2d_11">
      <path d="M 359.082052 318.04 
L 359.082052 26.16 
" clip-path="url(#p50dbc4ae75)" style="fill: none; stroke: #b0b0b0; stroke-opacity: 0.25; stroke-width: 0.8; stroke-linecap: square"/>
     </g>
     <g id="line2d_12">
      <g>
       <use xlink:href="#m59cce235e3" x="359.082052" y="318.04" style="stroke: #000000; stroke-width: 0.8"/>
      </g>
     </g>
     <g id="text_6">
      <!-- 1.2 -->
      <g transform="translate(351.130489 332.638438) scale(0.1 -0.1)">
       <use xlink:href="#DejaVuSans-31"/>
       <use xlink:href="#DejaVuSans-2e" transform="translate(63.623047 0)"/>
       <use xlink:href="#DejaVuSans-32" transform="translate(95.410156 0)"/>
      </g>
     </g>
    </g>
    <g id="xtick_7">
     <g id="line2d_13">
      <path d="M 418.885125 318.04 
L 418.885125 26.16 
" clip-path="url(#p50dbc4ae75)" style="fill: none; stroke: #b0b0b0; stroke-opacity: 0.25; stroke-width: 0.8; stroke-linecap: square"/>
     </g>
     <g id="line2d_14">
      <g>
       <use xlink:href="#m59cce235e3" x="418.885125" y="318.04" style="stroke: #000000; stroke-width: 0.8"/>
      </g>
     </g>
     <g id="text_7">
      <!-- 1.4 -->
      <g transform="translate(410.933563 332.638438) scale(0.1 -0.1)">
       <use xlink:href="#DejaVuSans-31"/>
       <use xlink:href="#DejaVuSans-2e" transform="translate(63.623047 0)"/>
       <use xlink:href="#DejaVuSans-34" transform="translate(95.410156 0)"/>
      </g>
     </g>
    </g>
    <g id="text_8">
     <!-- Production Rate (million m^3/yr) -->
     <g transform="translate(154.310983 346.316563) scale(0.1 -0.1)">
      <defs>
       <path id="DejaVuSans-50" d="M 1259 4147 
L 1259 2394 
L 2053 2394 
Q 2494 2394 2734 2622 
Q 2975 2850 2975 3272 
Q 2975 3691 2734 3919 
Q 2494 4147 2053 4147 
L 1259 4147 
z
M 628 4666 
L 2053 4666 
Q 2838 4666 3239 4311 
Q 3641 3956 3641 3272 
Q 3641 2581 3239 2228 
Q 2838 1875 2053 1875 
L 1259 1875 
L 1259 0 
L 628 0 
L 628 4666 
z
" transform="scale(0.015625)"/>
       <path id="DejaVuSans-72" d="M 2631 2963 
Q 2534 3019 2420 3045 
Q 2306 3072 2169 3072 
Q 1681 3072 1420 2755 
Q 1159 2438 1159 1844 
L 1159 0 
L 581 0 
L 581 3500 
L 1159 3500 
L 1159 2956 
Q 1341 3275 1631 3429 
Q 1922 3584 2338 3584 
Q 2397 3584 2469 3576 
Q 2541 3569 2628 3553 
L 2631 2963 
z
" transform="scale(0.015625)"/>
       <path id="DejaVuSans-6f" d="M 1959 3097 
Q 1497 3097 1228 2736 
Q 959 2375 959 1747 
Q 959 1119 1226 758 
Q 1494 397 1959 397 
Q 2419 397 2687 759 
Q 2956 1122 2956 1747 
Q 2956 2369 2687 2733 
Q 2419 3097 1959 3097 
z
M 1959 3584 
Q 2709 3584 3137 3096 
Q 3566 2609 3566 1747 
Q 3566 888 3137 398 
Q 2709 -91 1959 -91 
Q 1206 -91 779 398 
Q 353 888 353 1747 
Q 353 2609 779 3096 
Q 1206 3584 1959 3584 
z
" transform="scale(0.015625)"/>
       <path id="DejaVuSans-64" d="M 2906 2969 
L 2906 4863 
L 3481 4863 
L 3481 0 
L 2906 0 
L 2906 525 
Q 2725 213 2448 61 
Q 2172 -91 1784 -91 
Q 1150 -91 751 415 
Q 353 922 353 1747 
Q 353 2572 751 3078 
Q 1150 3584 1784 3584 
Q 2172 3584 2448 3432 
Q 2725 3281 2906 2969 
z
M 947 1747 
Q 947 1113 1208 752 
Q 1469 391 1925 391 
Q 2381 391 2643 752 
Q 2906 1113 2906 1747 
Q 2906 2381 2643 2742 
Q 2381 3103 1925 3103 
Q 1469 3103 1208 2742 
Q 947 2381 947 1747 
z
" transform="scale(0.015625)"/>
       <path id="DejaVuSans-75" d="M 544 1381 
L 544 3500 
L 1119 3500 
L 1119 1403 
Q 1119 906 1312 657 
Q 1506 409 1894 409 
Q 2359 409 2629 706 
Q 2900 1003 2900 1516 
L 2900 3500 
L 3475 3500 
L 3475 0 
L 2900 0 
L 2900 538 
Q 2691 219 2414 64 
Q 2138 -91 1772 -91 
Q 1169 -91 856 284 
Q 544 659 544 1381 
z
M 1991 3584 
L 1991 3584 
z
" transform="scale(0.015625)"/>
       <path id="DejaVuSans-63" d="M 3122 3366 
L 3122 2828 
Q 2878 2963 2633 3030 
Q 2388 3097 2138 3097 
Q 1578 3097 1268 2742 
Q 959 2388 959 1747 
Q 959 1106 1268 751 
Q 1578 397 2138 397 
Q 2388 397 2633 464 
Q 2878 531 3122 666 
L 3122 134 
Q 2881 22 2623 -34 
Q 2366 -91 2075 -91 
Q 1284 -91 818 406 
Q 353 903 353 1747 
Q 353 2603 823 3093 
Q 1294 3584 2113 3584 
Q 2378 3584 2631 3529 
Q 2884 3475 3122 3366 
z
" transform="scale(0.015625)"/>
       <path id="DejaVuSans-74" d="M 1172 4494 
L 1172 3500 
L 2356 3500 
L 2356 3053 
L 1172 3053 
L 1172 1153 
Q 1172 725 1289 603 
Q 1406 481 1766 481 
L 2356 481 
L 2356 0 
L 1766 0 
Q 1100 0 847 248 
Q 594 497 594 1153 
L 594 3053 
L 172 3053 
L 172 3500 
L 594 3500 
L 594 4494 
L 1172 4494 
z
" transform="scale(0.015625)"/>
       <path id="DejaVuSans-69" d="M 603 3500 
L 1178 3500 
L 1178 0 
L 603 0 
L 603 3500 
z
M 603 4863 
L 1178 4863 
L 1178 4134 
L 603 4134 
L 603 4863 
z
" transform="scale(0.015625)"/>
       <path id="DejaVuSans-6e" d="M 3513 2113 
L 3513 0 
L 2938 0 
L 2938 2094 
Q 2938 2591 2744 2837 
Q 2550 3084 2163 3084 
Q 1697 3084 1428 2787 
Q 1159 2491 1159 1978 
L 1159 0 
L 581 0 
L 581 3500 
L 1159 3500 
L 1159 2956 
Q 1366 3272 1645 3428 
Q 1925 3584 2291 3584 
Q 2894 3584 3203 3211 
Q 3513 2838 3513 2113 
z
" transform="scale(0.015625)"/>
       <path id="DejaVuSans-20" transform="scale(0.015625)"/>
       <path id="DejaVuSans-52" d="M 2841 2188 
Q 3044 2119 3236 1894 
Q 3428 1669 3622 1275 
L 4263 0 
L 3584 0 
L 2988 1197 
Q 2756 1666 2539 1819 
Q 2322 1972 1947 1972 
L 1259 1972 
L 1259 0 
L 628 0 
L 628 4666 
L 2053 4666 
Q 2853 4666 3247 4331 
Q 3641 3997 3641 3322 
Q 3641 2881 3436 2590 
Q 3231 2300 2841 2188 
z
M 1259 4147 
L 1259 2491 
L 2053 2491 
Q 2509 2491 2742 2702 
Q 2975 2913 2975 3322 
Q 2975 3731 2742 3939 
Q 2509 4147 2053 4147 
L 1259 4147 
z
" transform="scale(0.015625)"/>
       <path id="DejaVuSans-61" d="M 2194 1759 
Q 1497 1759 1228 1600 
Q 959 1441 959 1056 
Q 959 750 1161 570 
Q 1363 391 1709 391 
Q 2188 391 2477 730 
Q 2766 1069 2766 1631 
L 2766 1759 
L 2194 1759 
z
M 3341 1997 
L 3341 0 
L 2766 0 
L 2766 531 
Q 2569 213 2275 61 
Q 1981 -91 1556 -91 
Q 1019 -91 701 211 
Q 384 513 384 1019 
Q 384 1609 779 1909 
Q 1175 2209 1959 2209 
L 2766 2209 
L 2766 2266 
Q 2766 2663 2505 2880 
Q 2244 3097 1772 3097 
Q 1472 3097 1187 3025 
Q 903 2953 641 2809 
L 641 3341 
Q 956 3463 1253 3523 
Q 1550 3584 1831 3584 
Q 2591 3584 2966 3190 
Q 3341 2797 3341 1997 
z
" transform="scale(0.015625)"/>
       <path id="DejaVuSans-65" d="M 3597 1894 
L 3597 1613 
L 953 1613 
Q 991 1019 1311 708 
Q 1631 397 2203 397 
Q 2534 397 2845 478 
Q 3156 559 3463 722 
L 3463 178 
Q 3153 47 2828 -22 
Q 2503 -91 2169 -91 
Q 1331 -91 842 396 
Q 353 884 353 1716 
Q 353 2575 817 3079 
Q 1281 3584 2069 3584 
Q 2775 3584 3186 3129 
Q 3597 2675 3597 1894 
z
M 3022 2063 
Q 3016 2534 2758 2815 
Q 2500 3097 2075 3097 
Q 1594 3097 1305 2825 
Q 1016 2553 972 2059 
L 3022 2063 
z
" transform="scale(0.015625)"/>
       <path id="DejaVuSans-28" d="M 1984 4856 
Q 1566 4138 1362 3434 
Q 1159 2731 1159 2009 
Q 1159 1288 1364 580 
Q 1569 -128 1984 -844 
L 1484 -844 
Q 1016 -109 783 600 
Q 550 1309 550 2009 
Q 550 2706 781 3412 
Q 1013 4119 1484 4856 
L 1984 4856 
z
" transform="scale(0.015625)"/>
       <path id="DejaVuSans-6d" d="M 3328 2828 
Q 3544 3216 3844 3400 
Q 4144 3584 4550 3584 
Q 5097 3584 5394 3201 
Q 5691 2819 5691 2113 
L 5691 0 
L 5113 0 
L 5113 2094 
Q 5113 2597 4934 2840 
Q 4756 3084 4391 3084 
Q 3944 3084 3684 2787 
Q 3425 2491 3425 1978 
L 3425 0 
L 2847 0 
L 2847 2094 
Q 2847 2600 2669 2842 
Q 2491 3084 2119 3084 
Q 1678 3084 1418 2786 
Q 1159 2488 1159 1978 
L 1159 0 
L 581 0 
L 581 3500 
L 1159 3500 
L 1159 2956 
Q 1356 3278 1631 3431 
Q 1906 3584 2284 3584 
Q 2666 3584 2933 3390 
Q 3200 3197 3328 2828 
z
" transform="scale(0.015625)"/>
       <path id="DejaVuSans-6c" d="M 603 4863 
L 1178 4863 
L 1178 0 
L 603 0 
L 603 4863 
z
" transform="scale(0.015625)"/>
       <path id="DejaVuSans-5e" d="M 2988 4666 
L 4684 2925 
L 4056 2925 
L 2681 4159 
L 1306 2925 
L 678 2925 
L 2375 4666 
L 2988 4666 
z
" transform="scale(0.015625)"/>
       <path id="DejaVuSans-33" d="M 2597 2516 
Q 3050 2419 3304 2112 
Q 3559 1806 3559 1356 
Q 3559 666 3084 287 
Q 2609 -91 1734 -91 
Q 1441 -91 1130 -33 
Q 819 25 488 141 
L 488 750 
Q 750 597 1062 519 
Q 1375 441 1716 441 
Q 2309 441 2620 675 
Q 2931 909 2931 1356 
Q 2931 1769 2642 2001 
Q 2353 2234 1838 2234 
L 1294 2234 
L 1294 2753 
L 1863 2753 
Q 2328 2753 2575 2939 
Q 2822 3125 2822 3475 
Q 2822 3834 2567 4026 
Q 2313 4219 1838 4219 
Q 1578 4219 1281 4162 
Q 984 4106 628 3988 
L 628 4550 
Q 988 4650 1302 4700 
Q 1616 4750 1894 4750 
Q 2613 4750 3031 4423 
Q 3450 4097 3450 3541 
Q 3450 3153 3228 2886 
Q 3006 2619 2597 2516 
z
" transform="scale(0.015625)"/>
       <path id="DejaVuSans-2f" d="M 1625 4666 
L 2156 4666 
L 531 -594 
L 0 -594 
L 1625 4666 
z
" transform="scale(0.015625)"/>
       <path id="DejaVuSans-79" d="M 2059 -325 
Q 1816 -950 1584 -1140 
Q 1353 -1331 966 -1331 
L 506 -1331 
L 506 -850 
L 844 -850 
Q 1081 -850 1212 -737 
Q 1344 -625 1503 -206 
L 1606 56 
L 191 3500 
L 800 3500 
L 1894 763 
L 2988 3500 
L 3597 3500 
L 2059 -325 
z
" transform="scale(0.015625)"/>
       <path id="DejaVuSans-29" d="M 513 4856 
L 1013 4856 
Q 1481 4119 1714 3412 
Q 1947 2706 1947 2009 
Q 1947 1309 1714 600 
Q 1481 -109 1013 -844 
L 513 -844 
Q 928 -128 1133 580 
Q 1338 1288 1338 2009 
Q 1338 2731 1133 3434 
Q 928 4138 513 4856 
z
" transform="scale(0.015625)"/>
      </defs>
      <use xlink:href="#DejaVuSans-50"/>
      <use xlink:href="#DejaVuSans-72" transform="translate(58.552734 0)"/>
      <use xlink:href="#DejaVuSans-6f" transform="translate(97.416016 0)"/>
      <use xlink:href="#DejaVuSans-64" transform="translate(158.597656 0)"/>
      <use xlink:href="#DejaVuSans-75" transform="translate(222.074219 0)"/>
      <use xlink:href="#DejaVuSans-63" transform="translate(285.453125 0)"/>
      <use xlink:href="#DejaVuSans-74" transform="translate(340.433594 0)"/>
      <use xlink:href="#DejaVuSans-69" transform="translate(379.642578 0)"/>
      <use xlink:href="#DejaVuSans-6f" transform="translate(407.425781 0)"/>
      <use xlink:href="#DejaVuSans-6e" transform="translate(468.607422 0)"/>
      <use xlink:href="#DejaVuSans-20" transform="translate(531.986328 0)"/>
      <use xlink:href="#DejaVuSans-52" transform="translate(563.773438 0)"/>
      <use xlink:href="#DejaVuSans-61" transform="translate(631.005859 0)"/>
      <use xlink:href="#DejaVuSans-74" transform="translate(692.285156 0)"/>
      <use xlink:href="#DejaVuSans-65" transform="translate(731.494141 0)"/>
      <use xlink:href="#DejaVuSans-20" transform="translate(793.017578 0)"/>
      <use xlink:href="#DejaVuSans-28" transform="translate(824.804688 0)"/>
      <use xlink:href="#DejaVuSans-6d" transform="translate(863.818359 0)"/>
      <use xlink:href="#DejaVuSans-69" transform="translate(961.230469 0)"/>
      <use xlink:href="#DejaVuSans-6c" transform="translate(989.013672 0)"/>
      <use xlink:href="#DejaVuSans-6c" transform="translate(1016.796875 0)"/>
      <use xlink:href="#DejaVuSans-69" transform="translate(1044.580078 0)"/>
      <use xlink:href="#DejaVuSans-6f" transform="translate(1072.363281 0)"/>
      <use xlink:href="#DejaVuSans-6e" transform="translate(1133.544922 0)"/>
      <use xlink:href="#DejaVuSans-20" transform="translate(1196.923828 0)"/>
      <use xlink:href="#DejaVuSans-6d" transform="translate(1228.710938 0)"/>
      <use xlink:href="#DejaVuSans-5e" transform="translate(1326.123047 0)"/>
      <use xlink:href="#DejaVuSans-33" transform="translate(1409.912109 0)"/>
      <use xlink:href="#DejaVuSans-2f" transform="translate(1473.535156 0)"/>
      <use xlink:href="#DejaVuSans-79" transform="translate(1507.226562 0)"/>
      <use xlink:href="#DejaVuSans-72" transform="translate(1566.40625 0)"/>
      <use xlink:href="#DejaVuSans-29" transform="translate(1607.519531 0)"/>
     </g>
    </g>
   </g>
   <g id="matplotlib.axis_2">
    <g id="ytick_1">
     <g id="line2d_15">
      <path d="M 50.915 307.147545 
L 422.358528 307.147545 
" clip-path="url(#p50dbc4ae75)" style="fill: none; stroke: #b0b0b0; stroke-opacity: 0.25; stroke-width: 0.8; stroke-linecap: square"/>
     </g>
     <g id="line2d_16">
      <defs>
       <path id="m2c4e27fed9" d="M 0 0 
L -3.5 0 
" style="stroke: #000000; stroke-width: 0.8"/>
      </defs>
      <g>
       <use xlink:href="#m2c4e27fed9" x="50.915" y="307.147545" style="stroke: #000000; stroke-width: 0.8"/>
      </g>
     </g>
     <g id="text_9">
      <!-- 0 -->
      <g transform="translate(37.5525 310.946764) scale(0.1 -0.1)">
       <use xlink:href="#DejaVuSans-30"/>
      </g>
     </g>
    </g>
    <g id="ytick_2">
     <g id="line2d_17">
      <path d="M 50.915 254.160082 
L 422.358528 254.160082 
" clip-path="url(#p50dbc4ae75)" style="fill: none; stroke: #b0b0b0; stroke-opacity: 0.25; stroke-width: 0.8; stroke-linecap: square"/>
     </g>
     <g id="line2d_18">
      <g>
       <use xlink:href="#m2c4e27fed9" x="50.915" y="254.160082" style="stroke: #000000; stroke-width: 0.8"/>
      </g>
     </g>
     <g id="text_10">
      <!-- 50 -->
      <g transform="translate(31.19 257.959301) scale(0.1 -0.1)">
       <defs>
        <path id="DejaVuSans-35" d="M 691 4666 
L 3169 4666 
L 3169 4134 
L 1269 4134 
L 1269 2991 
Q 1406 3038 1543 3061 
Q 1681 3084 1819 3084 
Q 2600 3084 3056 2656 
Q 3513 2228 3513 1497 
Q 3513 744 3044 326 
Q 2575 -91 1722 -91 
Q 1428 -91 1123 -41 
Q 819 9 494 109 
L 494 744 
Q 775 591 1075 516 
Q 1375 441 1709 441 
Q 2250 441 2565 725 
Q 2881 1009 2881 1497 
Q 2881 1984 2565 2268 
Q 2250 2553 1709 2553 
Q 1456 2553 1204 2497 
Q 953 2441 691 2322 
L 691 4666 
z
" transform="scale(0.015625)"/>
       </defs>
       <use xlink:href="#DejaVuSans-35"/>
       <use xlink:href="#DejaVuSans-30" transform="translate(63.623047 0)"/>
      </g>
     </g>
    </g>
    <g id="ytick_3">
     <g id="line2d_19">
      <path d="M 50.915 201.172619 
L 422.358528 201.172619 
" clip-path="url(#p50dbc4ae75)" style="fill: none; stroke: #b0b0b0; stroke-opacity: 0.25; stroke-width: 0.8; stroke-linecap: square"/>
     </g>
     <g id="line2d_20">
      <g>
       <use xlink:href="#m2c4e27fed9" x="50.915" y="201.172619" style="stroke: #000000; stroke-width: 0.8"/>
      </g>
     </g>
     <g id="text_11">
      <!-- 100 -->
      <g transform="translate(24.8275 204.971837) scale(0.1 -0.1)">
       <use xlink:href="#DejaVuSans-31"/>
       <use xlink:href="#DejaVuSans-30" transform="translate(63.623047 0)"/>
       <use xlink:href="#DejaVuSans-30" transform="translate(127.246094 0)"/>
      </g>
     </g>
    </g>
    <g id="ytick_4">
     <g id="line2d_21">
      <path d="M 50.915 148.185155 
L 422.358528 148.185155 
" clip-path="url(#p50dbc4ae75)" style="fill: none; stroke: #b0b0b0; stroke-opacity: 0.25; stroke-width: 0.8; stroke-linecap: square"/>
     </g>
     <g id="line2d_22">
      <g>
       <use xlink:href="#m2c4e27fed9" x="50.915" y="148.185155" style="stroke: #000000; stroke-width: 0.8"/>
      </g>
     </g>
     <g id="text_12">
      <!-- 150 -->
      <g transform="translate(24.8275 151.984374) scale(0.1 -0.1)">
       <use xlink:href="#DejaVuSans-31"/>
       <use xlink:href="#DejaVuSans-35" transform="translate(63.623047 0)"/>
       <use xlink:href="#DejaVuSans-30" transform="translate(127.246094 0)"/>
      </g>
     </g>
    </g>
    <g id="ytick_5">
     <g id="line2d_23">
      <path d="M 50.915 95.197692 
L 422.358528 95.197692 
" clip-path="url(#p50dbc4ae75)" style="fill: none; stroke: #b0b0b0; stroke-opacity: 0.25; stroke-width: 0.8; stroke-linecap: square"/>
     </g>
     <g id="line2d_24">
      <g>
       <use xlink:href="#m2c4e27fed9" x="50.915" y="95.197692" style="stroke: #000000; stroke-width: 0.8"/>
      </g>
     </g>
     <g id="text_13">
      <!-- 200 -->
      <g transform="translate(24.8275 98.996911) scale(0.1 -0.1)">
       <use xlink:href="#DejaVuSans-32"/>
       <use xlink:href="#DejaVuSans-30" transform="translate(63.623047 0)"/>
       <use xlink:href="#DejaVuSans-30" transform="translate(127.246094 0)"/>
      </g>
     </g>
    </g>
    <g id="ytick_6">
     <g id="line2d_25">
      <path d="M 50.915 42.210229 
L 422.358528 42.210229 
" clip-path="url(#p50dbc4ae75)" style="fill: none; stroke: #b0b0b0; stroke-opacity: 0.25; stroke-width: 0.8; stroke-linecap: square"/>
     </g>
     <g id="line2d_26">
      <g>
       <use xlink:href="#m2c4e27fed9" x="50.915" y="42.210229" style="stroke: #000000; stroke-width: 0.8"/>
      </g>
     </g>
     <g id="text_14">
      <!-- 250 -->
      <g transform="translate(24.8275 46.009447) scale(0.1 -0.1)">
       <use xlink:href="#DejaVuSans-32"/>
       <use xlink:href="#DejaVuSans-35" transform="translate(63.623047 0)"/>
       <use xlink:href="#DejaVuSans-30" transform="translate(127.246094 0)"/>
      </g>
     </g>
    </g>
    <g id="text_15">
     <!-- Estimated Costs ($k/yr) -->
     <g transform="translate(18.747812 230.934375) rotate(-90) scale(0.1 -0.1)">
      <defs>
       <path id="DejaVuSans-45" d="M 628 4666 
L 3578 4666 
L 3578 4134 
L 1259 4134 
L 1259 2753 
L 3481 2753 
L 3481 2222 
L 1259 2222 
L 1259 531 
L 3634 531 
L 3634 0 
L 628 0 
L 628 4666 
z
" transform="scale(0.015625)"/>
       <path id="DejaVuSans-73" d="M 2834 3397 
L 2834 2853 
Q 2591 2978 2328 3040 
Q 2066 3103 1784 3103 
Q 1356 3103 1142 2972 
Q 928 2841 928 2578 
Q 928 2378 1081 2264 
Q 1234 2150 1697 2047 
L 1894 2003 
Q 2506 1872 2764 1633 
Q 3022 1394 3022 966 
Q 3022 478 2636 193 
Q 2250 -91 1575 -91 
Q 1294 -91 989 -36 
Q 684 19 347 128 
L 347 722 
Q 666 556 975 473 
Q 1284 391 1588 391 
Q 1994 391 2212 530 
Q 2431 669 2431 922 
Q 2431 1156 2273 1281 
Q 2116 1406 1581 1522 
L 1381 1569 
Q 847 1681 609 1914 
Q 372 2147 372 2553 
Q 372 3047 722 3315 
Q 1072 3584 1716 3584 
Q 2034 3584 2315 3537 
Q 2597 3491 2834 3397 
z
" transform="scale(0.015625)"/>
       <path id="DejaVuSans-43" d="M 4122 4306 
L 4122 3641 
Q 3803 3938 3442 4084 
Q 3081 4231 2675 4231 
Q 1875 4231 1450 3742 
Q 1025 3253 1025 2328 
Q 1025 1406 1450 917 
Q 1875 428 2675 428 
Q 3081 428 3442 575 
Q 3803 722 4122 1019 
L 4122 359 
Q 3791 134 3420 21 
Q 3050 -91 2638 -91 
Q 1578 -91 968 557 
Q 359 1206 359 2328 
Q 359 3453 968 4101 
Q 1578 4750 2638 4750 
Q 3056 4750 3426 4639 
Q 3797 4528 4122 4306 
z
" transform="scale(0.015625)"/>
       <path id="DejaVuSans-24" d="M 2163 -941 
L 1850 -941 
L 1847 0 
Q 1519 6 1191 76 
Q 863 147 531 288 
L 531 850 
Q 850 650 1176 548 
Q 1503 447 1850 444 
L 1850 1869 
Q 1159 1981 845 2250 
Q 531 2519 531 2988 
Q 531 3497 872 3790 
Q 1213 4084 1850 4128 
L 1850 4863 
L 2163 4863 
L 2163 4138 
Q 2453 4125 2725 4076 
Q 2997 4028 3256 3944 
L 3256 3397 
Q 2997 3528 2723 3600 
Q 2450 3672 2163 3684 
L 2163 2350 
Q 2872 2241 3206 1959 
Q 3541 1678 3541 1191 
Q 3541 663 3186 358 
Q 2831 53 2163 6 
L 2163 -941 
z
M 1850 2406 
L 1850 3688 
Q 1488 3647 1297 3481 
Q 1106 3316 1106 3041 
Q 1106 2772 1282 2622 
Q 1459 2472 1850 2406 
z
M 2163 1806 
L 2163 453 
Q 2559 506 2761 678 
Q 2963 850 2963 1131 
Q 2963 1406 2770 1568 
Q 2578 1731 2163 1806 
z
" transform="scale(0.015625)"/>
       <path id="DejaVuSans-6b" d="M 581 4863 
L 1159 4863 
L 1159 1991 
L 2875 3500 
L 3609 3500 
L 1753 1863 
L 3688 0 
L 2938 0 
L 1159 1709 
L 1159 0 
L 581 0 
L 581 4863 
z
" transform="scale(0.015625)"/>
      </defs>
      <use xlink:href="#DejaVuSans-45"/>
      <use xlink:href="#DejaVuSans-73" transform="translate(63.183594 0)"/>
      <use xlink:href="#DejaVuSans-74" transform="translate(115.283203 0)"/>
      <use xlink:href="#DejaVuSans-69" transform="translate(154.492188 0)"/>
      <use xlink:href="#DejaVuSans-6d" transform="translate(182.275391 0)"/>
      <use xlink:href="#DejaVuSans-61" transform="translate(279.6875 0)"/>
      <use xlink:href="#DejaVuSans-74" transform="translate(340.966797 0)"/>
      <use xlink:href="#DejaVuSans-65" transform="translate(380.175781 0)"/>
      <use xlink:href="#DejaVuSans-64" transform="translate(441.699219 0)"/>
      <use xlink:href="#DejaVuSans-20" transform="translate(505.175781 0)"/>
      <use xlink:href="#DejaVuSans-43" transform="translate(536.962891 0)"/>
      <use xlink:href="#DejaVuSans-6f" transform="translate(606.787109 0)"/>
      <use xlink:href="#DejaVuSans-73" transform="translate(667.96875 0)"/>
      <use xlink:href="#DejaVuSans-74" transform="translate(720.068359 0)"/>
      <use xlink:href="#DejaVuSans-73" transform="translate(759.277344 0)"/>
      <use xlink:href="#DejaVuSans-20" transform="translate(811.376953 0)"/>
      <use xlink:href="#DejaVuSans-28" transform="translate(843.164062 0)"/>
      <use xlink:href="#DejaVuSans-24" transform="translate(882.177734 0)"/>
      <use xlink:href="#DejaVuSans-6b" transform="translate(945.800781 0)"/>
      <use xlink:href="#DejaVuSans-2f" transform="translate(1003.710938 0)"/>
      <use xlink:href="#DejaVuSans-79" transform="translate(1037.402344 0)"/>
      <use xlink:href="#DejaVuSans-72" transform="translate(1096.582031 0)"/>
      <use xlink:href="#DejaVuSans-29" transform="translate(1137.695312 0)"/>
     </g>
    </g>
   </g>
   <g id="line2d_27">
    <path d="M 67.798797 304.67826 
L 74.690142 304.201583 
L 81.581488 303.690734 
L 88.472834 303.137759 
L 95.364179 302.527624 
L 102.255525 301.859929 
L 109.14687 301.166645 
L 116.038216 300.40611 
L 122.929562 299.586597 
L 129.820907 298.691827 
L 136.712253 297.739906 
L 143.603598 296.785937 
L 150.494944 295.667845 
L 157.38629 294.483361 
L 164.277635 293.251163 
L 171.168981 291.892412 
L 178.060326 290.482917 
L 184.951672 288.873907 
L 191.843018 287.225746 
L 198.734363 285.352368 
L 205.625709 283.581863 
L 212.517054 281.435946 
L 219.4084 279.219185 
L 226.299746 276.939071 
L 233.191091 274.196659 
L 240.082437 271.504725 
L 246.973782 268.496686 
L 253.865128 265.160057 
L 260.756474 261.88135 
L 267.647819 258.137881 
L 274.539165 254.238265 
L 281.43051 249.785274 
L 288.321856 244.797535 
L 295.213202 240.274618 
L 302.104547 234.521046 
L 308.995893 229.265877 
L 315.887238 223.449437 
L 322.778584 215.745864 
L 329.66993 208.952536 
L 336.561275 201.161265 
L 343.452621 193.82899 
L 350.343966 184.336863 
L 357.235312 174.018951 
L 364.126658 163.670364 
L 371.018003 154.532307 
L 377.909349 143.691062 
L 384.800694 129.938054 
L 391.69204 115.360048 
L 398.583386 104.640051 
L 405.474731 90.289598 
" clip-path="url(#p50dbc4ae75)" style="fill: none; stroke: #1f77b4; stroke-width: 2; stroke-linecap: square"/>
   </g>
   <g id="patch_3">
    <path d="M 50.915 318.04 
L 50.915 26.16 
" style="fill: none; stroke: #000000; stroke-width: 0.8; stroke-linejoin: miter; stroke-linecap: square"/>
   </g>
   <g id="patch_4">
    <path d="M 422.358528 318.04 
L 422.358528 26.16 
" style="fill: none; stroke: #000000; stroke-width: 0.8; stroke-linejoin: miter; stroke-linecap: square"/>
   </g>
   <g id="patch_5">
    <path d="M 50.915 318.04 
L 422.358528 318.04 
" style="fill: none; stroke: #000000; stroke-width: 0.8; stroke-linejoin: miter; stroke-linecap: square"/>
   </g>
   <g id="patch_6">
    <path d="M 50.915 26.16 
L 422.358528 26.16 
" style="fill: none; stroke: #000000; stroke-width: 0.8; stroke-linejoin: miter; stroke-linecap: square"/>
   </g>
   <g id="text_16">
    <!-- Linear scale -->
    <g transform="translate(200.621764 20.16) scale(0.12 -0.12)">
     <defs>
      <path id="DejaVuSans-4c" d="M 628 4666 
L 1259 4666 
L 1259 531 
L 3531 531 
L 3531 0 
L 628 0 
L 628 4666 
z
" transform="scale(0.015625)"/>
     </defs>
     <use xlink:href="#DejaVuSans-4c"/>
     <use xlink:href="#DejaVuSans-69" transform="translate(55.712891 0)"/>
     <use xlink:href="#DejaVuSans-6e" transform="translate(83.496094 0)"/>
     <use xlink:href="#DejaVuSans-65" transform="translate(146.875 0)"/>
     <use xlink:href="#DejaVuSans-61" transform="translate(208.398438 0)"/>
     <use xlink:href="#DejaVuSans-72" transform="translate(269.677734 0)"/>
     <use xlink:href="#DejaVuSans-20" transform="translate(310.791016 0)"/>
     <use xlink:href="#DejaVuSans-73" transform="translate(342.578125 0)"/>
     <use xlink:href="#DejaVuSans-63" transform="translate(394.677734 0)"/>
     <use xlink:href="#DejaVuSans-61" transform="translate(449.658203 0)"/>
     <use xlink:href="#DejaVuSans-6c" transform="translate(510.9375 0)"/>
     <use xlink:href="#DejaVuSans-65" transform="translate(538.720703 0)"/>
    </g>
   </g>
   <g id="legend_1">
    <g id="patch_7">
     <path d="M 57.915 63.51625 
L 213.482187 63.51625 
Q 215.482187 63.51625 215.482187 61.51625 
L 215.482187 33.16 
Q 215.482187 31.16 213.482187 31.16 
L 57.915 31.16 
Q 55.915 31.16 55.915 33.16 
L 55.915 61.51625 
Q 55.915 63.51625 57.915 63.51625 
z
" style="fill: #ffffff; opacity: 0.8; stroke: #cccccc; stroke-linejoin: miter"/>
    </g>
    <g id="line2d_28">
     <path d="M 59.915 39.258437 
L 69.915 39.258437 
L 79.915 39.258437 
" style="fill: none; stroke: #1f77b4; stroke-width: 2; stroke-linecap: square"/>
    </g>
    <g id="text_17">
     <!-- Median annual total cost -->
     <g transform="translate(87.915 42.758437) scale(0.1 -0.1)">
      <defs>
       <path id="DejaVuSans-4d" d="M 628 4666 
L 1569 4666 
L 2759 1491 
L 3956 4666 
L 4897 4666 
L 4897 0 
L 4281 0 
L 4281 4097 
L 3078 897 
L 2444 897 
L 1241 4097 
L 1241 0 
L 628 0 
L 628 4666 
z
" transform="scale(0.015625)"/>
      </defs>
      <use xlink:href="#DejaVuSans-4d"/>
      <use xlink:href="#DejaVuSans-65" transform="translate(86.279297 0)"/>
      <use xlink:href="#DejaVuSans-64" transform="translate(147.802734 0)"/>
      <use xlink:href="#DejaVuSans-69" transform="translate(211.279297 0)"/>
      <use xlink:href="#DejaVuSans-61" transform="translate(239.0625 0)"/>
      <use xlink:href="#DejaVuSans-6e" transform="translate(300.341797 0)"/>
      <use xlink:href="#DejaVuSans-20" transform="translate(363.720703 0)"/>
      <use xlink:href="#DejaVuSans-61" transform="translate(395.507812 0)"/>
      <use xlink:href="#DejaVuSans-6e" transform="translate(456.787109 0)"/>
      <use xlink:href="#DejaVuSans-6e" transform="translate(520.166016 0)"/>
      <use xlink:href="#DejaVuSans-75" transform="translate(583.544922 0)"/>
      <use xlink:href="#DejaVuSans-61" transform="translate(646.923828 0)"/>
      <use xlink:href="#DejaVuSans-6c" transform="translate(708.203125 0)"/>
      <use xlink:href="#DejaVuSans-20" transform="translate(735.986328 0)"/>
      <use xlink:href="#DejaVuSans-74" transform="translate(767.773438 0)"/>
      <use xlink:href="#DejaVuSans-6f" transform="translate(806.982422 0)"/>
      <use xlink:href="#DejaVuSans-74" transform="translate(868.164062 0)"/>
      <use xlink:href="#DejaVuSans-61" transform="translate(907.373047 0)"/>
      <use xlink:href="#DejaVuSans-6c" transform="translate(968.652344 0)"/>
      <use xlink:href="#DejaVuSans-20" transform="translate(996.435547 0)"/>
      <use xlink:href="#DejaVuSans-63" transform="translate(1028.222656 0)"/>
      <use xlink:href="#DejaVuSans-6f" transform="translate(1083.203125 0)"/>
      <use xlink:href="#DejaVuSans-73" transform="translate(1144.384766 0)"/>
      <use xlink:href="#DejaVuSans-74" transform="translate(1196.484375 0)"/>
     </g>
    </g>
    <g id="patch_8">
     <path d="M 59.915 57.436562 
L 79.915 57.436562 
L 79.915 50.436562 
L 59.915 50.436562 
z
" style="fill: #1f77b4; fill-opacity: 0.25; stroke: #1f77b4; stroke-opacity: 0.25; stroke-linejoin: miter"/>
    </g>
    <g id="text_18">
     <!-- 10-90% posterior range -->
     <g transform="translate(87.915 57.436562) scale(0.1 -0.1)">
      <defs>
       <path id="DejaVuSans-2d" d="M 313 2009 
L 1997 2009 
L 1997 1497 
L 313 1497 
L 313 2009 
z
" transform="scale(0.015625)"/>
       <path id="DejaVuSans-39" d="M 703 97 
L 703 672 
Q 941 559 1184 500 
Q 1428 441 1663 441 
Q 2288 441 2617 861 
Q 2947 1281 2994 2138 
Q 2813 1869 2534 1725 
Q 2256 1581 1919 1581 
Q 1219 1581 811 2004 
Q 403 2428 403 3163 
Q 403 3881 828 4315 
Q 1253 4750 1959 4750 
Q 2769 4750 3195 4129 
Q 3622 3509 3622 2328 
Q 3622 1225 3098 567 
Q 2575 -91 1691 -91 
Q 1453 -91 1209 -44 
Q 966 3 703 97 
z
M 1959 2075 
Q 2384 2075 2632 2365 
Q 2881 2656 2881 3163 
Q 2881 3666 2632 3958 
Q 2384 4250 1959 4250 
Q 1534 4250 1286 3958 
Q 1038 3666 1038 3163 
Q 1038 2656 1286 2365 
Q 1534 2075 1959 2075 
z
" transform="scale(0.015625)"/>
       <path id="DejaVuSans-25" d="M 4653 2053 
Q 4381 2053 4226 1822 
Q 4072 1591 4072 1178 
Q 4072 772 4226 539 
Q 4381 306 4653 306 
Q 4919 306 5073 539 
Q 5228 772 5228 1178 
Q 5228 1588 5073 1820 
Q 4919 2053 4653 2053 
z
M 4653 2450 
Q 5147 2450 5437 2106 
Q 5728 1763 5728 1178 
Q 5728 594 5436 251 
Q 5144 -91 4653 -91 
Q 4153 -91 3862 251 
Q 3572 594 3572 1178 
Q 3572 1766 3864 2108 
Q 4156 2450 4653 2450 
z
M 1428 4353 
Q 1159 4353 1004 4120 
Q 850 3888 850 3481 
Q 850 3069 1003 2837 
Q 1156 2606 1428 2606 
Q 1700 2606 1854 2837 
Q 2009 3069 2009 3481 
Q 2009 3884 1853 4118 
Q 1697 4353 1428 4353 
z
M 4250 4750 
L 4750 4750 
L 1831 -91 
L 1331 -91 
L 4250 4750 
z
M 1428 4750 
Q 1922 4750 2215 4408 
Q 2509 4066 2509 3481 
Q 2509 2891 2217 2550 
Q 1925 2209 1428 2209 
Q 931 2209 642 2551 
Q 353 2894 353 3481 
Q 353 4063 643 4406 
Q 934 4750 1428 4750 
z
" transform="scale(0.015625)"/>
       <path id="DejaVuSans-70" d="M 1159 525 
L 1159 -1331 
L 581 -1331 
L 581 3500 
L 1159 3500 
L 1159 2969 
Q 1341 3281 1617 3432 
Q 1894 3584 2278 3584 
Q 2916 3584 3314 3078 
Q 3713 2572 3713 1747 
Q 3713 922 3314 415 
Q 2916 -91 2278 -91 
Q 1894 -91 1617 61 
Q 1341 213 1159 525 
z
M 3116 1747 
Q 3116 2381 2855 2742 
Q 2594 3103 2138 3103 
Q 1681 3103 1420 2742 
Q 1159 2381 1159 1747 
Q 1159 1113 1420 752 
Q 1681 391 2138 391 
Q 2594 391 2855 752 
Q 3116 1113 3116 1747 
z
" transform="scale(0.015625)"/>
       <path id="DejaVuSans-67" d="M 2906 1791 
Q 2906 2416 2648 2759 
Q 2391 3103 1925 3103 
Q 1463 3103 1205 2759 
Q 947 2416 947 1791 
Q 947 1169 1205 825 
Q 1463 481 1925 481 
Q 2391 481 2648 825 
Q 2906 1169 2906 1791 
z
M 3481 434 
Q 3481 -459 3084 -895 
Q 2688 -1331 1869 -1331 
Q 1566 -1331 1297 -1286 
Q 1028 -1241 775 -1147 
L 775 -588 
Q 1028 -725 1275 -790 
Q 1522 -856 1778 -856 
Q 2344 -856 2625 -561 
Q 2906 -266 2906 331 
L 2906 616 
Q 2728 306 2450 153 
Q 2172 0 1784 0 
Q 1141 0 747 490 
Q 353 981 353 1791 
Q 353 2603 747 3093 
Q 1141 3584 1784 3584 
Q 2172 3584 2450 3431 
Q 2728 3278 2906 2969 
L 2906 3500 
L 3481 3500 
L 3481 434 
z
" transform="scale(0.015625)"/>
      </defs>
      <use xlink:href="#DejaVuSans-31"/>
      <use xlink:href="#DejaVuSans-30" transform="translate(63.623047 0)"/>
      <use xlink:href="#DejaVuSans-2d" transform="translate(127.246094 0)"/>
      <use xlink:href="#DejaVuSans-39" transform="translate(163.330078 0)"/>
      <use xlink:href="#DejaVuSans-30" transform="translate(226.953125 0)"/>
      <use xlink:href="#DejaVuSans-25" transform="translate(290.576172 0)"/>
      <use xlink:href="#DejaVuSans-20" transform="translate(385.595703 0)"/>
      <use xlink:href="#DejaVuSans-70" transform="translate(417.382812 0)"/>
      <use xlink:href="#DejaVuSans-6f" transform="translate(480.859375 0)"/>
      <use xlink:href="#DejaVuSans-73" transform="translate(542.041016 0)"/>
      <use xlink:href="#DejaVuSans-74" transform="translate(594.140625 0)"/>
      <use xlink:href="#DejaVuSans-65" transform="translate(633.349609 0)"/>
      <use xlink:href="#DejaVuSans-72" transform="translate(694.873047 0)"/>
      <use xlink:href="#DejaVuSans-69" transform="translate(735.986328 0)"/>
      <use xlink:href="#DejaVuSans-6f" transform="translate(763.769531 0)"/>
      <use xlink:href="#DejaVuSans-72" transform="translate(824.951172 0)"/>
      <use xlink:href="#DejaVuSans-20" transform="translate(866.064453 0)"/>
      <use xlink:href="#DejaVuSans-72" transform="translate(897.851562 0)"/>
      <use xlink:href="#DejaVuSans-61" transform="translate(938.964844 0)"/>
      <use xlink:href="#DejaVuSans-6e" transform="translate(1000.244141 0)"/>
      <use xlink:href="#DejaVuSans-67" transform="translate(1063.623047 0)"/>
      <use xlink:href="#DejaVuSans-65" transform="translate(1127.099609 0)"/>
     </g>
    </g>
   </g>
  </g>
  <g id="axes_2">
   <g id="patch_9">
    <path d="M 476.660105 318.04 
L 848.103633 318.04 
L 848.103633 26.16 
L 476.660105 26.16 
z
" style="fill: #ffffff"/>
   </g>
   <g id="FillBetweenPolyCollection_2">
    <defs>
     <path id="m9fb4242b33" d="M 493.543901 -59.527131 
L 493.543901 -55.227273 
L 500.435247 -65.17859 
L 507.326593 -74.511426 
L 514.217938 -82.630603 
L 521.109284 -90.565946 
L 528.000629 -97.97376 
L 534.891975 -105.004801 
L 541.783321 -111.746671 
L 548.674666 -118.015423 
L 555.566012 -124.274888 
L 562.457357 -130.429719 
L 569.348703 -136.024194 
L 576.240049 -141.663915 
L 583.131394 -147.262357 
L 590.02274 -152.339859 
L 596.914085 -157.460148 
L 603.805431 -162.594868 
L 610.696777 -167.651374 
L 617.588122 -172.394745 
L 624.479468 -177.426561 
L 631.370813 -182.038616 
L 638.262159 -186.87226 
L 645.153505 -191.411416 
L 652.04485 -195.914797 
L 658.936196 -200.448257 
L 665.827541 -205.011876 
L 672.718887 -209.305656 
L 679.610233 -213.739531 
L 686.501578 -217.851547 
L 693.392924 -222.535884 
L 700.284269 -226.544927 
L 707.175615 -230.836977 
L 714.066961 -234.91832 
L 720.958306 -238.604358 
L 727.849652 -242.883002 
L 734.740997 -246.324346 
L 741.632343 -250.956308 
L 748.523689 -254.860809 
L 755.415034 -258.329129 
L 762.30638 -262.288169 
L 769.197725 -265.714974 
L 776.089071 -269.646335 
L 782.980417 -272.928081 
L 789.871762 -277.182132 
L 796.763108 -281.195355 
L 803.654453 -284.969375 
L 810.545799 -289.580087 
L 817.437145 -292.215577 
L 824.32849 -295.856322 
L 831.219836 -297.877669 
L 831.219836 -320.572727 
L 831.219836 -320.572727 
L 824.32849 -317.135605 
L 817.437145 -310.928032 
L 810.545799 -307.841263 
L 803.654453 -301.696773 
L 796.763108 -298.136462 
L 789.871762 -292.526651 
L 782.980417 -289.400178 
L 776.089071 -284.27025 
L 769.197725 -278.563814 
L 762.30638 -274.277634 
L 755.415034 -270.181361 
L 748.523689 -265.516684 
L 741.632343 -261.275633 
L 734.740997 -256.349952 
L 727.849652 -251.378455 
L 720.958306 -246.875295 
L 714.066961 -242.657287 
L 707.175615 -237.905092 
L 700.284269 -233.038789 
L 693.392924 -228.527948 
L 686.501578 -223.958335 
L 679.610233 -219.251047 
L 672.718887 -214.449031 
L 665.827541 -209.627227 
L 658.936196 -205.040287 
L 652.04485 -200.329182 
L 645.153505 -195.895522 
L 638.262159 -190.89669 
L 631.370813 -186.381209 
L 624.479468 -181.535237 
L 617.588122 -176.571364 
L 610.696777 -171.850811 
L 603.805431 -166.541374 
L 596.914085 -161.807021 
L 590.02274 -156.420759 
L 583.131394 -151.353668 
L 576.240049 -145.655737 
L 569.348703 -140.160807 
L 562.457357 -134.634148 
L 555.566012 -128.745857 
L 548.674666 -122.625938 
L 541.783321 -115.925114 
L 534.891975 -108.94507 
L 528.000629 -102.090804 
L 521.109284 -94.716394 
L 514.217938 -86.44545 
L 507.326593 -78.187194 
L 500.435247 -69.591794 
L 493.543901 -59.527131 
z
" style="stroke: #1f77b4; stroke-opacity: 0.25"/>
    </defs>
    <g clip-path="url(#p4b1d628faa)">
     <use xlink:href="#m9fb4242b33" x="0" y="360" style="fill: #1f77b4; fill-opacity: 0.25; stroke: #1f77b4; stroke-opacity: 0.25"/>
    </g>
   </g>
   <g id="matplotlib.axis_3">
    <g id="xtick_8">
     <g id="line2d_29">
      <path d="M 485.811788 318.04 
L 485.811788 26.16 
" clip-path="url(#p4b1d628faa)" style="fill: none; stroke: #b0b0b0; stroke-opacity: 0.25; stroke-width: 0.8; stroke-linecap: square"/>
     </g>
     <g id="line2d_30">
      <g>
       <use xlink:href="#m59cce235e3" x="485.811788" y="318.04" style="stroke: #000000; stroke-width: 0.8"/>
      </g>
     </g>
     <g id="text_19">
      <!-- 0.2 -->
      <g transform="translate(477.860226 332.638438) scale(0.1 -0.1)">
       <use xlink:href="#DejaVuSans-30"/>
       <use xlink:href="#DejaVuSans-2e" transform="translate(63.623047 0)"/>
       <use xlink:href="#DejaVuSans-32" transform="translate(95.410156 0)"/>
      </g>
     </g>
    </g>
    <g id="xtick_9">
     <g id="line2d_31">
      <path d="M 545.614862 318.04 
L 545.614862 26.16 
" clip-path="url(#p4b1d628faa)" style="fill: none; stroke: #b0b0b0; stroke-opacity: 0.25; stroke-width: 0.8; stroke-linecap: square"/>
     </g>
     <g id="line2d_32">
      <g>
       <use xlink:href="#m59cce235e3" x="545.614862" y="318.04" style="stroke: #000000; stroke-width: 0.8"/>
      </g>
     </g>
     <g id="text_20">
      <!-- 0.4 -->
      <g transform="translate(537.663299 332.638438) scale(0.1 -0.1)">
       <use xlink:href="#DejaVuSans-30"/>
       <use xlink:href="#DejaVuSans-2e" transform="translate(63.623047 0)"/>
       <use xlink:href="#DejaVuSans-34" transform="translate(95.410156 0)"/>
      </g>
     </g>
    </g>
    <g id="xtick_10">
     <g id="line2d_33">
      <path d="M 605.417935 318.04 
L 605.417935 26.16 
" clip-path="url(#p4b1d628faa)" style="fill: none; stroke: #b0b0b0; stroke-opacity: 0.25; stroke-width: 0.8; stroke-linecap: square"/>
     </g>
     <g id="line2d_34">
      <g>
       <use xlink:href="#m59cce235e3" x="605.417935" y="318.04" style="stroke: #000000; stroke-width: 0.8"/>
      </g>
     </g>
     <g id="text_21">
      <!-- 0.6 -->
      <g transform="translate(597.466373 332.638438) scale(0.1 -0.1)">
       <use xlink:href="#DejaVuSans-30"/>
       <use xlink:href="#DejaVuSans-2e" transform="translate(63.623047 0)"/>
       <use xlink:href="#DejaVuSans-36" transform="translate(95.410156 0)"/>
      </g>
     </g>
    </g>
    <g id="xtick_11">
     <g id="line2d_35">
      <path d="M 665.221009 318.04 
L 665.221009 26.16 
" clip-path="url(#p4b1d628faa)" style="fill: none; stroke: #b0b0b0; stroke-opacity: 0.25; stroke-width: 0.8; stroke-linecap: square"/>
     </g>
     <g id="line2d_36">
      <g>
       <use xlink:href="#m59cce235e3" x="665.221009" y="318.04" style="stroke: #000000; stroke-width: 0.8"/>
      </g>
     </g>
     <g id="text_22">
      <!-- 0.8 -->
      <g transform="translate(657.269446 332.638438) scale(0.1 -0.1)">
       <use xlink:href="#DejaVuSans-30"/>
       <use xlink:href="#DejaVuSans-2e" transform="translate(63.623047 0)"/>
       <use xlink:href="#DejaVuSans-38" transform="translate(95.410156 0)"/>
      </g>
     </g>
    </g>
    <g id="xtick_12">
     <g id="line2d_37">
      <path d="M 725.024082 318.04 
L 725.024082 26.16 
" clip-path="url(#p4b1d628faa)" style="fill: none; stroke: #b0b0b0; stroke-opacity: 0.25; stroke-width: 0.8; stroke-linecap: square"/>
     </g>
     <g id="line2d_38">
      <g>
       <use xlink:href="#m59cce235e3" x="725.024082" y="318.04" style="stroke: #000000; stroke-width: 0.8"/>
      </g>
     </g>
     <g id="text_23">
      <!-- 1.0 -->
      <g transform="translate(717.07252 332.638438) scale(0.1 -0.1)">
       <use xlink:href="#DejaVuSans-31"/>
       <use xlink:href="#DejaVuSans-2e" transform="translate(63.623047 0)"/>
       <use xlink:href="#DejaVuSans-30" transform="translate(95.410156 0)"/>
      </g>
     </g>
    </g>
    <g id="xtick_13">
     <g id="line2d_39">
      <path d="M 784.827156 318.04 
L 784.827156 26.16 
" clip-path="url(#p4b1d628faa)" style="fill: none; stroke: #b0b0b0; stroke-opacity: 0.25; stroke-width: 0.8; stroke-linecap: square"/>
     </g>
     <g id="line2d_40">
      <g>
       <use xlink:href="#m59cce235e3" x="784.827156" y="318.04" style="stroke: #000000; stroke-width: 0.8"/>
      </g>
     </g>
     <g id="text_24">
      <!-- 1.2 -->
      <g transform="translate(776.875594 332.638438) scale(0.1 -0.1)">
       <use xlink:href="#DejaVuSans-31"/>
       <use xlink:href="#DejaVuSans-2e" transform="translate(63.623047 0)"/>
       <use xlink:href="#DejaVuSans-32" transform="translate(95.410156 0)"/>
      </g>
     </g>
    </g>
    <g id="xtick_14">
     <g id="line2d_41">
      <path d="M 844.63023 318.04 
L 844.63023 26.16 
" clip-path="url(#p4b1d628faa)" style="fill: none; stroke: #b0b0b0; stroke-opacity: 0.25; stroke-width: 0.8; stroke-linecap: square"/>
     </g>
     <g id="line2d_42">
      <g>
       <use xlink:href="#m59cce235e3" x="844.63023" y="318.04" style="stroke: #000000; stroke-width: 0.8"/>
      </g>
     </g>
     <g id="text_25">
      <!-- 1.4 -->
      <g transform="translate(836.678667 332.638438) scale(0.1 -0.1)">
       <use xlink:href="#DejaVuSans-31"/>
       <use xlink:href="#DejaVuSans-2e" transform="translate(63.623047 0)"/>
       <use xlink:href="#DejaVuSans-34" transform="translate(95.410156 0)"/>
      </g>
     </g>
    </g>
    <g id="text_26">
     <!-- Production Rate (million m^3/yr) -->
     <g transform="translate(580.056087 346.316563) scale(0.1 -0.1)">
      <use xlink:href="#DejaVuSans-50"/>
      <use xlink:href="#DejaVuSans-72" transform="translate(58.552734 0)"/>
      <use xlink:href="#DejaVuSans-6f" transform="translate(97.416016 0)"/>
      <use xlink:href="#DejaVuSans-64" transform="translate(158.597656 0)"/>
      <use xlink:href="#DejaVuSans-75" transform="translate(222.074219 0)"/>
      <use xlink:href="#DejaVuSans-63" transform="translate(285.453125 0)"/>
      <use xlink:href="#DejaVuSans-74" transform="translate(340.433594 0)"/>
      <use xlink:href="#DejaVuSans-69" transform="translate(379.642578 0)"/>
      <use xlink:href="#DejaVuSans-6f" transform="translate(407.425781 0)"/>
      <use xlink:href="#DejaVuSans-6e" transform="translate(468.607422 0)"/>
      <use xlink:href="#DejaVuSans-20" transform="translate(531.986328 0)"/>
      <use xlink:href="#DejaVuSans-52" transform="translate(563.773438 0)"/>
      <use xlink:href="#DejaVuSans-61" transform="translate(631.005859 0)"/>
      <use xlink:href="#DejaVuSans-74" transform="translate(692.285156 0)"/>
      <use xlink:href="#DejaVuSans-65" transform="translate(731.494141 0)"/>
      <use xlink:href="#DejaVuSans-20" transform="translate(793.017578 0)"/>
      <use xlink:href="#DejaVuSans-28" transform="translate(824.804688 0)"/>
      <use xlink:href="#DejaVuSans-6d" transform="translate(863.818359 0)"/>
      <use xlink:href="#DejaVuSans-69" transform="translate(961.230469 0)"/>
      <use xlink:href="#DejaVuSans-6c" transform="translate(989.013672 0)"/>
      <use xlink:href="#DejaVuSans-6c" transform="translate(1016.796875 0)"/>
      <use xlink:href="#DejaVuSans-69" transform="translate(1044.580078 0)"/>
      <use xlink:href="#DejaVuSans-6f" transform="translate(1072.363281 0)"/>
      <use xlink:href="#DejaVuSans-6e" transform="translate(1133.544922 0)"/>
      <use xlink:href="#DejaVuSans-20" transform="translate(1196.923828 0)"/>
      <use xlink:href="#DejaVuSans-6d" transform="translate(1228.710938 0)"/>
      <use xlink:href="#DejaVuSans-5e" transform="translate(1326.123047 0)"/>
      <use xlink:href="#DejaVuSans-33" transform="translate(1409.912109 0)"/>
      <use xlink:href="#DejaVuSans-2f" transform="translate(1473.535156 0)"/>
      <use xlink:href="#DejaVuSans-79" transform="translate(1507.226562 0)"/>
      <use xlink:href="#DejaVuSans-72" transform="translate(1566.40625 0)"/>
      <use xlink:href="#DejaVuSans-29" transform="translate(1607.519531 0)"/>
     </g>
    </g>
   </g>
   <g id="matplotlib.axis_4">
    <g id="ytick_7">
     <g id="line2d_43">
      <path d="M 476.660105 220.778133 
L 848.103633 220.778133 
" clip-path="url(#p4b1d628faa)" style="fill: none; stroke: #b0b0b0; stroke-opacity: 0.25; stroke-width: 0.8; stroke-linecap: square"/>
     </g>
     <g id="line2d_44">
      <g>
       <use xlink:href="#m2c4e27fed9" x="476.660105" y="220.778133" style="stroke: #000000; stroke-width: 0.8"/>
      </g>
     </g>
     <g id="text_27">
      <!-- $\mathdefault{10^{1}}$ -->
      <g transform="translate(452.060105 224.577351) scale(0.1 -0.1)">
       <use xlink:href="#DejaVuSans-31" transform="translate(0 0.684375)"/>
       <use xlink:href="#DejaVuSans-30" transform="translate(63.623047 0.684375)"/>
       <use xlink:href="#DejaVuSans-31" transform="translate(128.203125 38.965625) scale(0.7)"/>
      </g>
     </g>
    </g>
    <g id="ytick_8">
     <g id="line2d_45">
      <path d="M 476.660105 91.470691 
L 848.103633 91.470691 
" clip-path="url(#p4b1d628faa)" style="fill: none; stroke: #b0b0b0; stroke-opacity: 0.25; stroke-width: 0.8; stroke-linecap: square"/>
     </g>
     <g id="line2d_46">
      <g>
       <use xlink:href="#m2c4e27fed9" x="476.660105" y="91.470691" style="stroke: #000000; stroke-width: 0.8"/>
      </g>
     </g>
     <g id="text_28">
      <!-- $\mathdefault{10^{2}}$ -->
      <g transform="translate(452.060105 95.269909) scale(0.1 -0.1)">
       <use xlink:href="#DejaVuSans-31" transform="translate(0 0.765625)"/>
       <use xlink:href="#DejaVuSans-30" transform="translate(63.623047 0.765625)"/>
       <use xlink:href="#DejaVuSans-32" transform="translate(128.203125 39.046875) scale(0.7)"/>
      </g>
     </g>
    </g>
    <g id="ytick_9">
     <g id="line2d_47">
      <path d="M 476.660105 311.160156 
L 848.103633 311.160156 
" clip-path="url(#p4b1d628faa)" style="fill: none; stroke: #b0b0b0; stroke-opacity: 0.25; stroke-width: 0.8; stroke-linecap: square"/>
     </g>
     <g id="line2d_48">
      <defs>
       <path id="m9b72a4cf5d" d="M 0 0 
L -2 0 
" style="stroke: #000000; stroke-width: 0.6"/>
      </defs>
      <g>
       <use xlink:href="#m9b72a4cf5d" x="476.660105" y="311.160156" style="stroke: #000000; stroke-width: 0.6"/>
      </g>
     </g>
    </g>
    <g id="ytick_10">
     <g id="line2d_49">
      <path d="M 476.660105 288.390246 
L 848.103633 288.390246 
" clip-path="url(#p4b1d628faa)" style="fill: none; stroke: #b0b0b0; stroke-opacity: 0.25; stroke-width: 0.8; stroke-linecap: square"/>
     </g>
     <g id="line2d_50">
      <g>
       <use xlink:href="#m9b72a4cf5d" x="476.660105" y="288.390246" style="stroke: #000000; stroke-width: 0.6"/>
      </g>
     </g>
    </g>
    <g id="ytick_11">
     <g id="line2d_51">
      <path d="M 476.660105 272.234737 
L 848.103633 272.234737 
" clip-path="url(#p4b1d628faa)" style="fill: none; stroke: #b0b0b0; stroke-opacity: 0.25; stroke-width: 0.8; stroke-linecap: square"/>
     </g>
     <g id="line2d_52">
      <g>
       <use xlink:href="#m9b72a4cf5d" x="476.660105" y="272.234737" style="stroke: #000000; stroke-width: 0.6"/>
      </g>
     </g>
    </g>
    <g id="ytick_12">
     <g id="line2d_53">
      <path d="M 476.660105 259.703551 
L 848.103633 259.703551 
" clip-path="url(#p4b1d628faa)" style="fill: none; stroke: #b0b0b0; stroke-opacity: 0.25; stroke-width: 0.8; stroke-linecap: square"/>
     </g>
     <g id="line2d_54">
      <g>
       <use xlink:href="#m9b72a4cf5d" x="476.660105" y="259.703551" style="stroke: #000000; stroke-width: 0.6"/>
      </g>
     </g>
    </g>
    <g id="ytick_13">
     <g id="line2d_55">
      <path d="M 476.660105 249.464827 
L 848.103633 249.464827 
" clip-path="url(#p4b1d628faa)" style="fill: none; stroke: #b0b0b0; stroke-opacity: 0.25; stroke-width: 0.8; stroke-linecap: square"/>
     </g>
     <g id="line2d_56">
      <g>
       <use xlink:href="#m9b72a4cf5d" x="476.660105" y="249.464827" style="stroke: #000000; stroke-width: 0.6"/>
      </g>
     </g>
    </g>
    <g id="ytick_14">
     <g id="line2d_57">
      <path d="M 476.660105 240.808109 
L 848.103633 240.808109 
" clip-path="url(#p4b1d628faa)" style="fill: none; stroke: #b0b0b0; stroke-opacity: 0.25; stroke-width: 0.8; stroke-linecap: square"/>
     </g>
     <g id="line2d_58">
      <g>
       <use xlink:href="#m9b72a4cf5d" x="476.660105" y="240.808109" style="stroke: #000000; stroke-width: 0.6"/>
      </g>
     </g>
    </g>
    <g id="ytick_15">
     <g id="line2d_59">
      <path d="M 476.660105 233.309319 
L 848.103633 233.309319 
" clip-path="url(#p4b1d628faa)" style="fill: none; stroke: #b0b0b0; stroke-opacity: 0.25; stroke-width: 0.8; stroke-linecap: square"/>
     </g>
     <g id="line2d_60">
      <g>
       <use xlink:href="#m9b72a4cf5d" x="476.660105" y="233.309319" style="stroke: #000000; stroke-width: 0.6"/>
      </g>
     </g>
    </g>
    <g id="ytick_16">
     <g id="line2d_61">
      <path d="M 476.660105 226.694917 
L 848.103633 226.694917 
" clip-path="url(#p4b1d628faa)" style="fill: none; stroke: #b0b0b0; stroke-opacity: 0.25; stroke-width: 0.8; stroke-linecap: square"/>
     </g>
     <g id="line2d_62">
      <g>
       <use xlink:href="#m9b72a4cf5d" x="476.660105" y="226.694917" style="stroke: #000000; stroke-width: 0.6"/>
      </g>
     </g>
    </g>
    <g id="ytick_17">
     <g id="line2d_63">
      <path d="M 476.660105 181.852714 
L 848.103633 181.852714 
" clip-path="url(#p4b1d628faa)" style="fill: none; stroke: #b0b0b0; stroke-opacity: 0.25; stroke-width: 0.8; stroke-linecap: square"/>
     </g>
     <g id="line2d_64">
      <g>
       <use xlink:href="#m9b72a4cf5d" x="476.660105" y="181.852714" style="stroke: #000000; stroke-width: 0.6"/>
      </g>
     </g>
    </g>
    <g id="ytick_18">
     <g id="line2d_65">
      <path d="M 476.660105 159.082804 
L 848.103633 159.082804 
" clip-path="url(#p4b1d628faa)" style="fill: none; stroke: #b0b0b0; stroke-opacity: 0.25; stroke-width: 0.8; stroke-linecap: square"/>
     </g>
     <g id="line2d_66">
      <g>
       <use xlink:href="#m9b72a4cf5d" x="476.660105" y="159.082804" style="stroke: #000000; stroke-width: 0.6"/>
      </g>
     </g>
    </g>
    <g id="ytick_19">
     <g id="line2d_67">
      <path d="M 476.660105 142.927295 
L 848.103633 142.927295 
" clip-path="url(#p4b1d628faa)" style="fill: none; stroke: #b0b0b0; stroke-opacity: 0.25; stroke-width: 0.8; stroke-linecap: square"/>
     </g>
     <g id="line2d_68">
      <g>
       <use xlink:href="#m9b72a4cf5d" x="476.660105" y="142.927295" style="stroke: #000000; stroke-width: 0.6"/>
      </g>
     </g>
    </g>
    <g id="ytick_20">
     <g id="line2d_69">
      <path d="M 476.660105 130.396109 
L 848.103633 130.396109 
" clip-path="url(#p4b1d628faa)" style="fill: none; stroke: #b0b0b0; stroke-opacity: 0.25; stroke-width: 0.8; stroke-linecap: square"/>
     </g>
     <g id="line2d_70">
      <g>
       <use xlink:href="#m9b72a4cf5d" x="476.660105" y="130.396109" style="stroke: #000000; stroke-width: 0.6"/>
      </g>
     </g>
    </g>
    <g id="ytick_21">
     <g id="line2d_71">
      <path d="M 476.660105 120.157385 
L 848.103633 120.157385 
" clip-path="url(#p4b1d628faa)" style="fill: none; stroke: #b0b0b0; stroke-opacity: 0.25; stroke-width: 0.8; stroke-linecap: square"/>
     </g>
     <g id="line2d_72">
      <g>
       <use xlink:href="#m9b72a4cf5d" x="476.660105" y="120.157385" style="stroke: #000000; stroke-width: 0.6"/>
      </g>
     </g>
    </g>
    <g id="ytick_22">
     <g id="line2d_73">
      <path d="M 476.660105 111.500667 
L 848.103633 111.500667 
" clip-path="url(#p4b1d628faa)" style="fill: none; stroke: #b0b0b0; stroke-opacity: 0.25; stroke-width: 0.8; stroke-linecap: square"/>
     </g>
     <g id="line2d_74">
      <g>
       <use xlink:href="#m9b72a4cf5d" x="476.660105" y="111.500667" style="stroke: #000000; stroke-width: 0.6"/>
      </g>
     </g>
    </g>
    <g id="ytick_23">
     <g id="line2d_75">
      <path d="M 476.660105 104.001877 
L 848.103633 104.001877 
" clip-path="url(#p4b1d628faa)" style="fill: none; stroke: #b0b0b0; stroke-opacity: 0.25; stroke-width: 0.8; stroke-linecap: square"/>
     </g>
     <g id="line2d_76">
      <g>
       <use xlink:href="#m9b72a4cf5d" x="476.660105" y="104.001877" style="stroke: #000000; stroke-width: 0.6"/>
      </g>
     </g>
    </g>
    <g id="ytick_24">
     <g id="line2d_77">
      <path d="M 476.660105 97.387475 
L 848.103633 97.387475 
" clip-path="url(#p4b1d628faa)" style="fill: none; stroke: #b0b0b0; stroke-opacity: 0.25; stroke-width: 0.8; stroke-linecap: square"/>
     </g>
     <g id="line2d_78">
      <g>
       <use xlink:href="#m9b72a4cf5d" x="476.660105" y="97.387475" style="stroke: #000000; stroke-width: 0.6"/>
      </g>
     </g>
    </g>
    <g id="ytick_25">
     <g id="line2d_79">
      <path d="M 476.660105 52.545272 
L 848.103633 52.545272 
" clip-path="url(#p4b1d628faa)" style="fill: none; stroke: #b0b0b0; stroke-opacity: 0.25; stroke-width: 0.8; stroke-linecap: square"/>
     </g>
     <g id="line2d_80">
      <g>
       <use xlink:href="#m9b72a4cf5d" x="476.660105" y="52.545272" style="stroke: #000000; stroke-width: 0.6"/>
      </g>
     </g>
    </g>
    <g id="ytick_26">
     <g id="line2d_81">
      <path d="M 476.660105 29.775362 
L 848.103633 29.775362 
" clip-path="url(#p4b1d628faa)" style="fill: none; stroke: #b0b0b0; stroke-opacity: 0.25; stroke-width: 0.8; stroke-linecap: square"/>
     </g>
     <g id="line2d_82">
      <g>
       <use xlink:href="#m9b72a4cf5d" x="476.660105" y="29.775362" style="stroke: #000000; stroke-width: 0.6"/>
      </g>
     </g>
    </g>
    <g id="text_29">
     <!-- Estimated Costs ($k/yr) -->
     <g transform="translate(445.980417 230.934375) rotate(-90) scale(0.1 -0.1)">
      <use xlink:href="#DejaVuSans-45"/>
      <use xlink:href="#DejaVuSans-73" transform="translate(63.183594 0)"/>
      <use xlink:href="#DejaVuSans-74" transform="translate(115.283203 0)"/>
      <use xlink:href="#DejaVuSans-69" transform="translate(154.492188 0)"/>
      <use xlink:href="#DejaVuSans-6d" transform="translate(182.275391 0)"/>
      <use xlink:href="#DejaVuSans-61" transform="translate(279.6875 0)"/>
      <use xlink:href="#DejaVuSans-74" transform="translate(340.966797 0)"/>
      <use xlink:href="#DejaVuSans-65" transform="translate(380.175781 0)"/>
      <use xlink:href="#DejaVuSans-64" transform="translate(441.699219 0)"/>
      <use xlink:href="#DejaVuSans-20" transform="translate(505.175781 0)"/>
      <use xlink:href="#DejaVuSans-43" transform="translate(536.962891 0)"/>
      <use xlink:href="#DejaVuSans-6f" transform="translate(606.787109 0)"/>
      <use xlink:href="#DejaVuSans-73" transform="translate(667.96875 0)"/>
      <use xlink:href="#DejaVuSans-74" transform="translate(720.068359 0)"/>
      <use xlink:href="#DejaVuSans-73" transform="translate(759.277344 0)"/>
      <use xlink:href="#DejaVuSans-20" transform="translate(811.376953 0)"/>
      <use xlink:href="#DejaVuSans-28" transform="translate(843.164062 0)"/>
      <use xlink:href="#DejaVuSans-24" transform="translate(882.177734 0)"/>
      <use xlink:href="#DejaVuSans-6b" transform="translate(945.800781 0)"/>
      <use xlink:href="#DejaVuSans-2f" transform="translate(1003.710938 0)"/>
      <use xlink:href="#DejaVuSans-79" transform="translate(1037.402344 0)"/>
      <use xlink:href="#DejaVuSans-72" transform="translate(1096.582031 0)"/>
      <use xlink:href="#DejaVuSans-29" transform="translate(1137.695312 0)"/>
     </g>
    </g>
   </g>
   <g id="line2d_83">
    <path d="M 493.543901 302.582133 
L 500.435247 292.669962 
L 507.326593 283.689756 
L 514.217938 275.35646 
L 521.109284 267.402329 
L 528.000629 259.821631 
L 534.891975 252.902825 
L 541.783321 246.18068 
L 548.674666 239.738078 
L 555.566012 233.457064 
L 562.457357 227.466234 
L 569.348703 222.042235 
L 576.240049 216.287616 
L 583.131394 210.773088 
L 590.02274 205.558825 
L 596.914085 200.320028 
L 603.805431 195.35726 
L 610.696777 190.181161 
L 617.588122 185.331673 
L 624.479468 180.284565 
L 631.370813 175.898508 
L 638.262159 171.00434 
L 645.153505 166.360089 
L 652.04485 161.952858 
L 658.936196 157.073013 
L 665.827541 152.662989 
L 672.718887 148.113037 
L 679.610233 143.463044 
L 686.501578 139.240627 
L 693.392924 134.778519 
L 700.284269 130.479031 
L 707.175615 125.941053 
L 714.066961 121.258806 
L 720.958306 117.326074 
L 727.849652 112.691078 
L 734.740997 108.767873 
L 741.632343 104.723085 
L 748.523689 99.778557 
L 755.415034 95.75254 
L 762.30638 91.464674 
L 769.197725 87.708115 
L 776.089071 83.190745 
L 782.980417 78.660432 
L 789.871762 74.456455 
L 796.763108 70.989067 
L 803.654453 67.135156 
L 810.545799 62.598427 
L 817.437145 58.158874 
L 824.32849 55.104527 
L 831.219836 51.259669 
" clip-path="url(#p4b1d628faa)" style="fill: none; stroke: #1f77b4; stroke-width: 2; stroke-linecap: square"/>
   </g>
   <g id="patch_10">
    <path d="M 476.660105 318.04 
L 476.660105 26.16 
" style="fill: none; stroke: #000000; stroke-width: 0.8; stroke-linejoin: miter; stroke-linecap: square"/>
   </g>
   <g id="patch_11">
    <path d="M 848.103633 318.04 
L 848.103633 26.16 
" style="fill: none; stroke: #000000; stroke-width: 0.8; stroke-linejoin: miter; stroke-linecap: square"/>
   </g>
   <g id="patch_12">
    <path d="M 476.660105 318.04 
L 848.103633 318.04 
" style="fill: none; stroke: #000000; stroke-width: 0.8; stroke-linejoin: miter; stroke-linecap: square"/>
   </g>
   <g id="patch_13">
    <path d="M 476.660105 26.16 
L 848.103633 26.16 
" style="fill: none; stroke: #000000; stroke-width: 0.8; stroke-linejoin: miter; stroke-linecap: square"/>
   </g>
   <g id="text_30">
    <!-- Log scale -->
    <g transform="translate(634.296244 20.16) scale(0.12 -0.12)">
     <use xlink:href="#DejaVuSans-4c"/>
     <use xlink:href="#DejaVuSans-6f" transform="translate(53.962891 0)"/>
     <use xlink:href="#DejaVuSans-67" transform="translate(115.144531 0)"/>
     <use xlink:href="#DejaVuSans-20" transform="translate(178.621094 0)"/>
     <use xlink:href="#DejaVuSans-73" transform="translate(210.408203 0)"/>
     <use xlink:href="#DejaVuSans-63" transform="translate(262.507812 0)"/>
     <use xlink:href="#DejaVuSans-61" transform="translate(317.488281 0)"/>
     <use xlink:href="#DejaVuSans-6c" transform="translate(378.767578 0)"/>
     <use xlink:href="#DejaVuSans-65" transform="translate(406.550781 0)"/>
    </g>
   </g>
   <g id="legend_2">
    <g id="patch_14">
     <path d="M 483.660105 63.51625 
L 639.227292 63.51625 
Q 641.227292 63.51625 641.227292 61.51625 
L 641.227292 33.16 
Q 641.227292 31.16 639.227292 31.16 
L 483.660105 31.16 
Q 481.660105 31.16 481.660105 33.16 
L 481.660105 61.51625 
Q 481.660105 63.51625 483.660105 63.51625 
z
" style="fill: #ffffff; opacity: 0.8; stroke: #cccccc; stroke-linejoin: miter"/>
    </g>
    <g id="line2d_84">
     <path d="M 485.660105 39.258437 
L 495.660105 39.258437 
L 505.660105 39.258437 
" style="fill: none; stroke: #1f77b4; stroke-width: 2; stroke-linecap: square"/>
    </g>
    <g id="text_31">
     <!-- Median annual total cost -->
     <g transform="translate(513.660105 42.758437) scale(0.1 -0.1)">
      <use xlink:href="#DejaVuSans-4d"/>
      <use xlink:href="#DejaVuSans-65" transform="translate(86.279297 0)"/>
      <use xlink:href="#DejaVuSans-64" transform="translate(147.802734 0)"/>
      <use xlink:href="#DejaVuSans-69" transform="translate(211.279297 0)"/>
      <use xlink:href="#DejaVuSans-61" transform="translate(239.0625 0)"/>
      <use xlink:href="#DejaVuSans-6e" transform="translate(300.341797 0)"/>
      <use xlink:href="#DejaVuSans-20" transform="translate(363.720703 0)"/>
      <use xlink:href="#DejaVuSans-61" transform="translate(395.507812 0)"/>
      <use xlink:href="#DejaVuSans-6e" transform="translate(456.787109 0)"/>
      <use xlink:href="#DejaVuSans-6e" transform="translate(520.166016 0)"/>
      <use xlink:href="#DejaVuSans-75" transform="translate(583.544922 0)"/>
      <use xlink:href="#DejaVuSans-61" transform="translate(646.923828 0)"/>
      <use xlink:href="#DejaVuSans-6c" transform="translate(708.203125 0)"/>
      <use xlink:href="#DejaVuSans-20" transform="translate(735.986328 0)"/>
      <use xlink:href="#DejaVuSans-74" transform="translate(767.773438 0)"/>
      <use xlink:href="#DejaVuSans-6f" transform="translate(806.982422 0)"/>
      <use xlink:href="#DejaVuSans-74" transform="translate(868.164062 0)"/>
      <use xlink:href="#DejaVuSans-61" transform="translate(907.373047 0)"/>
      <use xlink:href="#DejaVuSans-6c" transform="translate(968.652344 0)"/>
      <use xlink:href="#DejaVuSans-20" transform="translate(996.435547 0)"/>
      <use xlink:href="#DejaVuSans-63" transform="translate(1028.222656 0)"/>
      <use xlink:href="#DejaVuSans-6f" transform="translate(1083.203125 0)"/>
      <use xlink:href="#DejaVuSans-73" transform="translate(1144.384766 0)"/>
      <use xlink:href="#DejaVuSans-74" transform="translate(1196.484375 0)"/>
     </g>
    </g>
    <g id="patch_15">
     <path d="M 485.660105 57.436562 
L 505.660105 57.436562 
L 505.660105 50.436562 
L 485.660105 50.436562 
z
" style="fill: #1f77b4; fill-opacity: 0.25; stroke: #1f77b4; stroke-opacity: 0.25; stroke-linejoin: miter"/>
    </g>
    <g id="text_32">
     <!-- 10-90% posterior range -->
     <g transform="translate(513.660105 57.436562) scale(0.1 -0.1)">
      <use xlink:href="#DejaVuSans-31"/>
      <use xlink:href="#DejaVuSans-30" transform="translate(63.623047 0)"/>
      <use xlink:href="#DejaVuSans-2d" transform="translate(127.246094 0)"/>
      <use xlink:href="#DejaVuSans-39" transform="translate(163.330078 0)"/>
      <use xlink:href="#DejaVuSans-30" transform="translate(226.953125 0)"/>
      <use xlink:href="#DejaVuSans-25" transform="translate(290.576172 0)"/>
      <use xlink:href="#DejaVuSans-20" transform="translate(385.595703 0)"/>
      <use xlink:href="#DejaVuSans-70" transform="translate(417.382812 0)"/>
      <use xlink:href="#DejaVuSans-6f" transform="translate(480.859375 0)"/>
      <use xlink:href="#DejaVuSans-73" transform="translate(542.041016 0)"/>
      <use xlink:href="#DejaVuSans-74" transform="translate(594.140625 0)"/>
      <use xlink:href="#DejaVuSans-65" transform="translate(633.349609 0)"/>
      <use xlink:href="#DejaVuSans-72" transform="translate(694.873047 0)"/>
      <use xlink:href="#DejaVuSans-69" transform="translate(735.986328 0)"/>
      <use xlink:href="#DejaVuSans-6f" transform="translate(763.769531 0)"/>
      <use xlink:href="#DejaVuSans-72" transform="translate(824.951172 0)"/>
      <use xlink:href="#DejaVuSans-20" transform="translate(866.064453 0)"/>
      <use xlink:href="#DejaVuSans-72" transform="translate(897.851562 0)"/>
      <use xlink:href="#DejaVuSans-61" transform="translate(938.964844 0)"/>
      <use xlink:href="#DejaVuSans-6e" transform="translate(1000.244141 0)"/>
      <use xlink:href="#DejaVuSans-67" transform="translate(1063.623047 0)"/>
      <use xlink:href="#DejaVuSans-65" transform="translate(1127.099609 0)"/>
     </g>
    </g>
   </g>
  </g>
 </g>
 <defs>
  <clipPath id="p50dbc4ae75">
   <rect x="50.915" y="26.16" width="371.443528" height="291.88"/>
  </clipPath>
  <clipPath id="p4b1d628faa">
   <rect x="476.660105" y="26.16" width="371.443528" height="291.88"/>
  </clipPath>
 </defs>
</svg>
