<?xml version="1.0" encoding="utf-8" standalone="no"?>
<!DOCTYPE svg PUBLIC "-//W3C//DTD SVG 1.1//EN"
  "http://www.w3.org/Graphics/SVG/1.1/DTD/svg11.dtd">
<svg xmlns:xlink="http://www.w3.org/1999/xlink" width="936pt" height="360pt" viewBox="0 0 936 360" xmlns="http://www.w3.org/2000/svg" version="1.1">
 <metadata>
  <rdf:RDF xmlns:dc="http://purl.org/dc/elements/1.1/" xmlns:cc="http://creativecommons.org/ns#" xmlns:rdf="http://www.w3.org/1999/02/22-rdf-syntax-ns#">
   <cc:Work>
    <dc:type rdf:resource="http://purl.org/dc/dcmitype/StillImage"/>
    <dc:date>2026-05-13T14:41:56.015951</dc:date>
    <dc:format>image/svg+xml</dc:format>
    <dc:creator>
     <cc:Agent>
      <dc:title>Matplotlib v3.10.8, https://matplotlib.org/</dc:title>
     </cc:Agent>
    </dc:creator>
   </cc:Work>
  </rdf:RDF>
 </metadata>
 <defs>
  <style type="text/css">*{stroke-linejoin: round; stroke-linecap: butt}</style>
 </defs>
 <g id="figure_1">
  <g id="patch_1">
   <path d="M 0 360 
L 936 360 
L 936 0 
L 0 0 
z
" style="fill: #ffffff"/>
  </g>
  <g id="axes_1">
   <g id="patch_2">
    <path d="M 50.915 318.04 
L 454.56831 318.04 
L 454.56831 26.16 
L 50.915 26.16 
z
" style="fill: #ffffff"/>
   </g>
   <g id="FillBetweenPolyCollection_1">
    <defs>
     <path id="m5bde130114" d="M 69.262878 -55.437381 
L 69.262878 -55.227273 
L 76.751807 -55.698511 
L 84.240737 -56.191208 
L 91.729667 -56.745918 
L 99.218596 -57.30981 
L 106.707526 -57.991712 
L 114.196456 -58.631669 
L 121.685386 -59.375089 
L 129.174315 -60.166001 
L 136.663245 -61.065117 
L 144.152175 -62.024195 
L 151.641104 -62.958592 
L 159.130034 -64.001121 
L 166.618964 -65.117909 
L 174.107893 -66.378048 
L 181.596823 -67.577255 
L 189.085753 -69.092387 
L 196.574682 -70.52728 
L 204.063612 -72.223017 
L 211.552542 -73.961431 
L 219.041472 -75.693823 
L 226.530401 -77.761491 
L 234.019331 -79.744579 
L 241.508261 -82.015698 
L 248.99719 -84.778265 
L 256.48612 -87.258618 
L 263.97505 -89.786561 
L 271.463979 -92.701648 
L 278.952909 -96.294533 
L 286.441839 -99.502338 
L 293.930768 -103.006581 
L 301.419698 -106.674703 
L 308.908628 -111.018995 
L 316.397558 -115.152752 
L 323.886487 -119.596461 
L 331.375417 -125.610768 
L 338.864347 -130.334731 
L 346.353276 -135.878463 
L 353.842206 -140.55161 
L 361.331136 -146.772478 
L 368.820065 -155.244431 
L 376.308995 -160.47682 
L 383.797925 -167.759667 
L 391.286854 -178.256502 
L 398.775784 -183.180906 
L 406.264714 -195.174618 
L 413.753643 -203.21595 
L 421.242573 -213.182971 
L 428.731503 -221.796405 
L 436.220433 -234.354592 
L 436.220433 -320.572727 
L 436.220433 -320.572727 
L 428.731503 -296.02807 
L 421.242573 -279.952611 
L 413.753643 -262.922188 
L 406.264714 -248.535128 
L 398.775784 -228.138759 
L 391.286854 -220.324016 
L 383.797925 -205.295303 
L 376.308995 -191.758048 
L 368.820065 -181.287339 
L 361.331136 -174.034431 
L 353.842206 -162.200973 
L 346.353276 -154.192428 
L 338.864347 -145.570305 
L 331.375417 -139.0882 
L 323.886487 -131.932776 
L 316.397558 -125.536608 
L 308.908628 -119.810826 
L 301.419698 -114.273411 
L 293.930768 -109.423412 
L 286.441839 -105.192596 
L 278.952909 -100.917177 
L 271.463979 -97.133438 
L 263.97505 -93.61239 
L 256.48612 -90.438843 
L 248.99719 -87.514733 
L 241.508261 -84.602553 
L 234.019331 -82.144054 
L 226.530401 -79.76994 
L 219.041472 -77.579983 
L 211.552542 -75.632902 
L 204.063612 -73.87611 
L 196.574682 -71.94054 
L 189.085753 -70.381058 
L 181.596823 -68.877875 
L 174.107893 -67.447785 
L 166.618964 -66.165467 
L 159.130034 -64.91803 
L 151.641104 -63.772918 
L 144.152175 -62.787451 
L 136.663245 -61.720431 
L 129.174315 -60.796002 
L 121.685386 -59.962823 
L 114.196456 -59.143263 
L 106.707526 -58.415163 
L 99.218596 -57.715428 
L 91.729667 -57.07355 
L 84.240737 -56.477269 
L 76.751807 -55.933878 
L 69.262878 -55.437381 
z
" style="stroke: #1f77b4; stroke-opacity: 0.25"/>
    </defs>
    <g clip-path="url(#pc8c9652599)">
     <use xlink:href="#m5bde130114" x="0" y="360" style="fill: #1f77b4; fill-opacity: 0.25; stroke: #1f77b4; stroke-opacity: 0.25"/>
    </g>
   </g>
   <g id="matplotlib.axis_1">
    <g id="xtick_1">
     <g id="line2d_1">
      <path d="M 60.860273 318.04 
L 60.860273 26.16 
" clip-path="url(#pc8c9652599)" style="fill: none; stroke: #b0b0b0; stroke-opacity: 0.25; stroke-width: 0.8; stroke-linecap: square"/>
     </g>
     <g id="line2d_2">
      <defs>
       <path id="m897ab5b71a" d="M 0 0 
L 0 3.5 
" style="stroke: #000000; stroke-width: 0.8"/>
      </defs>
      <g>
       <use xlink:href="#m897ab5b71a" x="60.860273" y="318.04" style="stroke: #000000; stroke-width: 0.8"/>
      </g>
     </g>
     <g id="text_1">
      <!-- 0.2 -->
      <g transform="translate(52.908711 332.638438) scale(0.1 -0.1)">
       <defs>
        <path id="DejaVuSans-30" d="M 2034 4250 
Q 1547 4250 1301 3770 
Q 1056 3291 1056 2328 
Q 1056 1369 1301 889 
Q 1547 409 2034 409 
Q 2525 409 2770 889 
Q 3016 1369 3016 2328 
Q 3016 3291 2770 3770 
Q 2525 4250 2034 4250 
z
M 2034 4750 
Q 2819 4750 3233 4129 
Q 3647 3509 3647 2328 
Q 3647 1150 3233 529 
Q 2819 -91 2034 -91 
Q 1250 -91 836 529 
Q 422 1150 422 2328 
Q 422 3509 836 4129 
Q 1250 4750 2034 4750 
z
" transform="scale(0.015625)"/>
        <path id="DejaVuSans-2e" d="M 684 794 
L 1344 794 
L 1344 0 
L 684 0 
L 684 794 
z
" transform="scale(0.015625)"/>
        <path id="DejaVuSans-32" d="M 1228 531 
L 3431 531 
L 3431 0 
L 469 0 
L 469 531 
Q 828 903 1448 1529 
Q 2069 2156 2228 2338 
Q 2531 2678 2651 2914 
Q 2772 3150 2772 3378 
Q 2772 3750 2511 3984 
Q 2250 4219 1831 4219 
Q 1534 4219 1204 4116 
Q 875 4013 500 3803 
L 500 4441 
Q 881 4594 1212 4672 
Q 1544 4750 1819 4750 
Q 2544 4750 2975 4387 
Q 3406 4025 3406 3419 
Q 3406 3131 3298 2873 
Q 3191 2616 2906 2266 
Q 2828 2175 2409 1742 
Q 1991 1309 1228 531 
z
" transform="scale(0.015625)"/>
       </defs>
       <use xlink:href="#DejaVuSans-30"/>
       <use xlink:href="#DejaVuSans-2e" transform="translate(63.623047 0)"/>
       <use xlink:href="#DejaVuSans-32" transform="translate(95.410156 0)"/>
      </g>
     </g>
    </g>
    <g id="xtick_2">
     <g id="line2d_3">
      <path d="M 125.849179 318.04 
L 125.849179 26.16 
" clip-path="url(#pc8c9652599)" style="fill: none; stroke: #b0b0b0; stroke-opacity: 0.25; stroke-width: 0.8; stroke-linecap: square"/>
     </g>
     <g id="line2d_4">
      <g>
       <use xlink:href="#m897ab5b71a" x="125.849179" y="318.04" style="stroke: #000000; stroke-width: 0.8"/>
      </g>
     </g>
     <g id="text_2">
      <!-- 0.4 -->
      <g transform="translate(117.897617 332.638438) scale(0.1 -0.1)">
       <defs>
        <path id="DejaVuSans-34" d="M 2419 4116 
L 825 1625 
L 2419 1625 
L 2419 4116 
z
M 2253 4666 
L 3047 4666 
L 3047 1625 
L 3713 1625 
L 3713 1100 
L 3047 1100 
L 3047 0 
L 2419 0 
L 2419 1100 
L 313 1100 
L 313 1709 
L 2253 4666 
z
" transform="scale(0.015625)"/>
       </defs>
       <use xlink:href="#DejaVuSans-30"/>
       <use xlink:href="#DejaVuSans-2e" transform="translate(63.623047 0)"/>
       <use xlink:href="#DejaVuSans-34" transform="translate(95.410156 0)"/>
      </g>
     </g>
    </g>
    <g id="xtick_3">
     <g id="line2d_5">
      <path d="M 190.838086 318.04 
L 190.838086 26.16 
" clip-path="url(#pc8c9652599)" style="fill: none; stroke: #b0b0b0; stroke-opacity: 0.25; stroke-width: 0.8; stroke-linecap: square"/>
     </g>
     <g id="line2d_6">
      <g>
       <use xlink:href="#m897ab5b71a" x="190.838086" y="318.04" style="stroke: #000000; stroke-width: 0.8"/>
      </g>
     </g>
     <g id="text_3">
      <!-- 0.6 -->
      <g transform="translate(182.886523 332.638438) scale(0.1 -0.1)">
       <defs>
        <path id="DejaVuSans-36" d="M 2113 2584 
Q 1688 2584 1439 2293 
Q 1191 2003 1191 1497 
Q 1191 994 1439 701 
Q 1688 409 2113 409 
Q 2538 409 2786 701 
Q 3034 994 3034 1497 
Q 3034 2003 2786 2293 
Q 2538 2584 2113 2584 
z
M 3366 4563 
L 3366 3988 
Q 3128 4100 2886 4159 
Q 2644 4219 2406 4219 
Q 1781 4219 1451 3797 
Q 1122 3375 1075 2522 
Q 1259 2794 1537 2939 
Q 1816 3084 2150 3084 
Q 2853 3084 3261 2657 
Q 3669 2231 3669 1497 
Q 3669 778 3244 343 
Q 2819 -91 2113 -91 
Q 1303 -91 875 529 
Q 447 1150 447 2328 
Q 447 3434 972 4092 
Q 1497 4750 2381 4750 
Q 2619 4750 2861 4703 
Q 3103 4656 3366 4563 
z
" transform="scale(0.015625)"/>
       </defs>
       <use xlink:href="#DejaVuSans-30"/>
       <use xlink:href="#DejaVuSans-2e" transform="translate(63.623047 0)"/>
       <use xlink:href="#DejaVuSans-36" transform="translate(95.410156 0)"/>
      </g>
     </g>
    </g>
    <g id="xtick_4">
     <g id="line2d_7">
      <path d="M 255.826992 318.04 
L 255.826992 26.16 
" clip-path="url(#pc8c9652599)" style="fill: none; stroke: #b0b0b0; stroke-opacity: 0.25; stroke-width: 0.8; stroke-linecap: square"/>
     </g>
     <g id="line2d_8">
      <g>
       <use xlink:href="#m897ab5b71a" x="255.826992" y="318.04" style="stroke: #000000; stroke-width: 0.8"/>
      </g>
     </g>
     <g id="text_4">
      <!-- 0.8 -->
      <g transform="translate(247.875429 332.638438) scale(0.1 -0.1)">
       <defs>
        <path id="DejaVuSans-38" d="M 2034 2216 
Q 1584 2216 1326 1975 
Q 1069 1734 1069 1313 
Q 1069 891 1326 650 
Q 1584 409 2034 409 
Q 2484 409 2743 651 
Q 3003 894 3003 1313 
Q 3003 1734 2745 1975 
Q 2488 2216 2034 2216 
z
M 1403 2484 
Q 997 2584 770 2862 
Q 544 3141 544 3541 
Q 544 4100 942 4425 
Q 1341 4750 2034 4750 
Q 2731 4750 3128 4425 
Q 3525 4100 3525 3541 
Q 3525 3141 3298 2862 
Q 3072 2584 2669 2484 
Q 3125 2378 3379 2068 
Q 3634 1759 3634 1313 
Q 3634 634 3220 271 
Q 2806 -91 2034 -91 
Q 1263 -91 848 271 
Q 434 634 434 1313 
Q 434 1759 690 2068 
Q 947 2378 1403 2484 
z
M 1172 3481 
Q 1172 3119 1398 2916 
Q 1625 2713 2034 2713 
Q 2441 2713 2670 2916 
Q 2900 3119 2900 3481 
Q 2900 3844 2670 4047 
Q 2441 4250 2034 4250 
Q 1625 4250 1398 4047 
Q 1172 3844 1172 3481 
z
" transform="scale(0.015625)"/>
       </defs>
       <use xlink:href="#DejaVuSans-30"/>
       <use xlink:href="#DejaVuSans-2e" transform="translate(63.623047 0)"/>
       <use xlink:href="#DejaVuSans-38" transform="translate(95.410156 0)"/>
      </g>
     </g>
    </g>
    <g id="xtick_5">
     <g id="line2d_9">
      <path d="M 320.815898 318.04 
L 320.815898 26.16 
" clip-path="url(#pc8c9652599)" style="fill: none; stroke: #b0b0b0; stroke-opacity: 0.25; stroke-width: 0.8; stroke-linecap: square"/>
     </g>
     <g id="line2d_10">
      <g>
       <use xlink:href="#m897ab5b71a" x="320.815898" y="318.04" style="stroke: #000000; stroke-width: 0.8"/>
      </g>
     </g>
     <g id="text_5">
      <!-- 1.0 -->
      <g transform="translate(312.864336 332.638438) scale(0.1 -0.1)">
       <defs>
        <path id="DejaVuSans-31" d="M 794 531 
L 1825 531 
L 1825 4091 
L 703 3866 
L 703 4441 
L 1819 4666 
L 2450 4666 
L 2450 531 
L 3481 531 
L 3481 0 
L 794 0 
L 794 531 
z
" transform="scale(0.015625)"/>
       </defs>
       <use xlink:href="#DejaVuSans-31"/>
       <use xlink:href="#DejaVuSans-2e" transform="translate(63.623047 0)"/>
       <use xlink:href="#DejaVuSans-30" transform="translate(95.410156 0)"/>
      </g>
     </g>
    </g>
    <g id="xtick_6">
     <g id="line2d_11">
      <path d="M 385.804804 318.04 
L 385.804804 26.16 
" clip-path="url(#pc8c9652599)" style="fill: none; stroke: #b0b0b0; stroke-opacity: 0.25; stroke-width: 0.8; stroke-linecap: square"/>
     </g>
     <g id="line2d_12">
      <g>
       <use xlink:href="#m897ab5b71a" x="385.804804" y="318.04" style="stroke: #000000; stroke-width: 0.8"/>
      </g>
     </g>
     <g id="text_6">
      <!-- 1.2 -->
      <g transform="translate(377.853242 332.638438) scale(0.1 -0.1)">
       <use xlink:href="#DejaVuSans-31"/>
       <use xlink:href="#DejaVuSans-2e" transform="translate(63.623047 0)"/>
       <use xlink:href="#DejaVuSans-32" transform="translate(95.410156 0)"/>
      </g>
     </g>
    </g>
    <g id="xtick_7">
     <g id="line2d_13">
      <path d="M 450.793711 318.04 
L 450.793711 26.16 
" clip-path="url(#pc8c9652599)" style="fill: none; stroke: #b0b0b0; stroke-opacity: 0.25; stroke-width: 0.8; stroke-linecap: square"/>
     </g>
     <g id="line2d_14">
      <g>
       <use xlink:href="#m897ab5b71a" x="450.793711" y="318.04" style="stroke: #000000; stroke-width: 0.8"/>
      </g>
     </g>
     <g id="text_7">
      <!-- 1.4 -->
      <g transform="translate(442.842148 332.638438) scale(0.1 -0.1)">
       <use xlink:href="#DejaVuSans-31"/>
       <use xlink:href="#DejaVuSans-2e" transform="translate(63.623047 0)"/>
       <use xlink:href="#DejaVuSans-34" transform="translate(95.410156 0)"/>
      </g>
     </g>
    </g>
    <g id="text_8">
     <!-- Production Rate (million m³/yr) -->
     <g transform="translate(175.78228 346.316563) scale(0.1 -0.1)">
      <defs>
       <path id="DejaVuSans-50" d="M 1259 4147 
L 1259 2394 
L 2053 2394 
Q 2494 2394 2734 2622 
Q 2975 2850 2975 3272 
Q 2975 3691 2734 3919 
Q 2494 4147 2053 4147 
L 1259 4147 
z
M 628 4666 
L 2053 4666 
Q 2838 4666 3239 4311 
Q 3641 3956 3641 3272 
Q 3641 2581 3239 2228 
Q 2838 1875 2053 1875 
L 1259 1875 
L 1259 0 
L 628 0 
L 628 4666 
z
" transform="scale(0.015625)"/>
       <path id="DejaVuSans-72" d="M 2631 2963 
Q 2534 3019 2420 3045 
Q 2306 3072 2169 3072 
Q 1681 3072 1420 2755 
Q 1159 2438 1159 1844 
L 1159 0 
L 581 0 
L 581 3500 
L 1159 3500 
L 1159 2956 
Q 1341 3275 1631 3429 
Q 1922 3584 2338 3584 
Q 2397 3584 2469 3576 
Q 2541 3569 2628 3553 
L 2631 2963 
z
" transform="scale(0.015625)"/>
       <path id="DejaVuSans-6f" d="M 1959 3097 
Q 1497 3097 1228 2736 
Q 959 2375 959 1747 
Q 959 1119 1226 758 
Q 1494 397 1959 397 
Q 2419 397 2687 759 
Q 2956 1122 2956 1747 
Q 2956 2369 2687 2733 
Q 2419 3097 1959 3097 
z
M 1959 3584 
Q 2709 3584 3137 3096 
Q 3566 2609 3566 1747 
Q 3566 888 3137 398 
Q 2709 -91 1959 -91 
Q 1206 -91 779 398 
Q 353 888 353 1747 
Q 353 2609 779 3096 
Q 1206 3584 1959 3584 
z
" transform="scale(0.015625)"/>
       <path id="DejaVuSans-64" d="M 2906 2969 
L 2906 4863 
L 3481 4863 
L 3481 0 
L 2906 0 
L 2906 525 
Q 2725 213 2448 61 
Q 2172 -91 1784 -91 
Q 1150 -91 751 415 
Q 353 922 353 1747 
Q 353 2572 751 3078 
Q 1150 3584 1784 3584 
Q 2172 3584 2448 3432 
Q 2725 3281 2906 2969 
z
M 947 1747 
Q 947 1113 1208 752 
Q 1469 391 1925 391 
Q 2381 391 2643 752 
Q 2906 1113 2906 1747 
Q 2906 2381 2643 2742 
Q 2381 3103 1925 3103 
Q 1469 3103 1208 2742 
Q 947 2381 947 1747 
z
" transform="scale(0.015625)"/>
       <path id="DejaVuSans-75" d="M 544 1381 
L 544 3500 
L 1119 3500 
L 1119 1403 
Q 1119 906 1312 657 
Q 1506 409 1894 409 
Q 2359 409 2629 706 
Q 2900 1003 2900 1516 
L 2900 3500 
L 3475 3500 
L 3475 0 
L 2900 0 
L 2900 538 
Q 2691 219 2414 64 
Q 2138 -91 1772 -91 
Q 1169 -91 856 284 
Q 544 659 544 1381 
z
M 1991 3584 
L 1991 3584 
z
" transform="scale(0.015625)"/>
       <path id="DejaVuSans-63" d="M 3122 3366 
L 3122 2828 
Q 2878 2963 2633 3030 
Q 2388 3097 2138 3097 
Q 1578 3097 1268 2742 
Q 959 2388 959 1747 
Q 959 1106 1268 751 
Q 1578 397 2138 397 
Q 2388 397 2633 464 
Q 2878 531 3122 666 
L 3122 134 
Q 2881 22 2623 -34 
Q 2366 -91 2075 -91 
Q 1284 -91 818 406 
Q 353 903 353 1747 
Q 353 2603 823 3093 
Q 1294 3584 2113 3584 
Q 2378 3584 2631 3529 
Q 2884 3475 3122 3366 
z
" transform="scale(0.015625)"/>
       <path id="DejaVuSans-74" d="M 1172 4494 
L 1172 3500 
L 2356 3500 
L 2356 3053 
L 1172 3053 
L 1172 1153 
Q 1172 725 1289 603 
Q 1406 481 1766 481 
L 2356 481 
L 2356 0 
L 1766 0 
Q 1100 0 847 248 
Q 594 497 594 1153 
L 594 3053 
L 172 3053 
L 172 3500 
L 594 3500 
L 594 4494 
L 1172 4494 
z
" transform="scale(0.015625)"/>
       <path id="DejaVuSans-69" d="M 603 3500 
L 1178 3500 
L 1178 0 
L 603 0 
L 603 3500 
z
M 603 4863 
L 1178 4863 
L 1178 4134 
L 603 4134 
L 603 4863 
z
" transform="scale(0.015625)"/>
       <path id="DejaVuSans-6e" d="M 3513 2113 
L 3513 0 
L 2938 0 
L 2938 2094 
Q 2938 2591 2744 2837 
Q 2550 3084 2163 3084 
Q 1697 3084 1428 2787 
Q 1159 2491 1159 1978 
L 1159 0 
L 581 0 
L 581 3500 
L 1159 3500 
L 1159 2956 
Q 1366 3272 1645 3428 
Q 1925 3584 2291 3584 
Q 2894 3584 3203 3211 
Q 3513 2838 3513 2113 
z
" transform="scale(0.015625)"/>
       <path id="DejaVuSans-20" transform="scale(0.015625)"/>
       <path id="DejaVuSans-52" d="M 2841 2188 
Q 3044 2119 3236 1894 
Q 3428 1669 3622 1275 
L 4263 0 
L 3584 0 
L 2988 1197 
Q 2756 1666 2539 1819 
Q 2322 1972 1947 1972 
L 1259 1972 
L 1259 0 
L 628 0 
L 628 4666 
L 2053 4666 
Q 2853 4666 3247 4331 
Q 3641 3997 3641 3322 
Q 3641 2881 3436 2590 
Q 3231 2300 2841 2188 
z
M 1259 4147 
L 1259 2491 
L 2053 2491 
Q 2509 2491 2742 2702 
Q 2975 2913 2975 3322 
Q 2975 3731 2742 3939 
Q 2509 4147 2053 4147 
L 1259 4147 
z
" transform="scale(0.015625)"/>
       <path id="DejaVuSans-61" d="M 2194 1759 
Q 1497 1759 1228 1600 
Q 959 1441 959 1056 
Q 959 750 1161 570 
Q 1363 391 1709 391 
Q 2188 391 2477 730 
Q 2766 1069 2766 1631 
L 2766 1759 
L 2194 1759 
z
M 3341 1997 
L 3341 0 
L 2766 0 
L 2766 531 
Q 2569 213 2275 61 
Q 1981 -91 1556 -91 
Q 1019 -91 701 211 
Q 384 513 384 1019 
Q 384 1609 779 1909 
Q 1175 2209 1959 2209 
L 2766 2209 
L 2766 2266 
Q 2766 2663 2505 2880 
Q 2244 3097 1772 3097 
Q 1472 3097 1187 3025 
Q 903 2953 641 2809 
L 641 3341 
Q 956 3463 1253 3523 
Q 1550 3584 1831 3584 
Q 2591 3584 2966 3190 
Q 3341 2797 3341 1997 
z
" transform="scale(0.015625)"/>
       <path id="DejaVuSans-65" d="M 3597 1894 
L 3597 1613 
L 953 1613 
Q 991 1019 1311 708 
Q 1631 397 2203 397 
Q 2534 397 2845 478 
Q 3156 559 3463 722 
L 3463 178 
Q 3153 47 2828 -22 
Q 2503 -91 2169 -91 
Q 1331 -91 842 396 
Q 353 884 353 1716 
Q 353 2575 817 3079 
Q 1281 3584 2069 3584 
Q 2775 3584 3186 3129 
Q 3597 2675 3597 1894 
z
M 3022 2063 
Q 3016 2534 2758 2815 
Q 2500 3097 2075 3097 
Q 1594 3097 1305 2825 
Q 1016 2553 972 2059 
L 3022 2063 
z
" transform="scale(0.015625)"/>
       <path id="DejaVuSans-28" d="M 1984 4856 
Q 1566 4138 1362 3434 
Q 1159 2731 1159 2009 
Q 1159 1288 1364 580 
Q 1569 -128 1984 -844 
L 1484 -844 
Q 1016 -109 783 600 
Q 550 1309 550 2009 
Q 550 2706 781 3412 
Q 1013 4119 1484 4856 
L 1984 4856 
z
" transform="scale(0.015625)"/>
       <path id="DejaVuSans-6d" d="M 3328 2828 
Q 3544 3216 3844 3400 
Q 4144 3584 4550 3584 
Q 5097 3584 5394 3201 
Q 5691 2819 5691 2113 
L 5691 0 
L 5113 0 
L 5113 2094 
Q 5113 2597 4934 2840 
Q 4756 3084 4391 3084 
Q 3944 3084 3684 2787 
Q 3425 2491 3425 1978 
L 3425 0 
L 2847 0 
L 2847 2094 
Q 2847 2600 2669 2842 
Q 2491 3084 2119 3084 
Q 1678 3084 1418 2786 
Q 1159 2488 1159 1978 
L 1159 0 
L 581 0 
L 581 3500 
L 1159 3500 
L 1159 2956 
Q 1356 3278 1631 3431 
Q 1906 3584 2284 3584 
Q 2666 3584 2933 3390 
Q 3200 3197 3328 2828 
z
" transform="scale(0.015625)"/>
       <path id="DejaVuSans-6c" d="M 603 4863 
L 1178 4863 
L 1178 0 
L 603 0 
L 603 4863 
z
" transform="scale(0.015625)"/>
       <path id="DejaVuSans-b3" d="M 1638 3500 
Q 1925 3444 2083 3273 
Q 2241 3103 2241 2847 
Q 2241 2459 1944 2250 
Q 1647 2041 1094 2041 
Q 916 2041 720 2073 
Q 525 2106 306 2169 
L 306 2547 
Q 469 2463 655 2422 
Q 841 2381 1050 2381 
Q 1391 2381 1578 2504 
Q 1766 2628 1766 2847 
Q 1766 3078 1592 3197 
Q 1419 3316 1081 3316 
L 813 3316 
L 813 3653 
L 1106 3653 
Q 1400 3653 1551 3751 
Q 1703 3850 1703 4038 
Q 1703 4219 1547 4314 
Q 1391 4409 1094 4409 
Q 969 4409 809 4381 
Q 650 4353 397 4281 
L 397 4641 
Q 625 4694 825 4722 
Q 1025 4750 1197 4750 
Q 1647 4750 1911 4565 
Q 2175 4381 2175 4072 
Q 2175 3856 2034 3706 
Q 1894 3556 1638 3500 
z
" transform="scale(0.015625)"/>
       <path id="DejaVuSans-2f" d="M 1625 4666 
L 2156 4666 
L 531 -594 
L 0 -594 
L 1625 4666 
z
" transform="scale(0.015625)"/>
       <path id="DejaVuSans-79" d="M 2059 -325 
Q 1816 -950 1584 -1140 
Q 1353 -1331 966 -1331 
L 506 -1331 
L 506 -850 
L 844 -850 
Q 1081 -850 1212 -737 
Q 1344 -625 1503 -206 
L 1606 56 
L 191 3500 
L 800 3500 
L 1894 763 
L 2988 3500 
L 3597 3500 
L 2059 -325 
z
" transform="scale(0.015625)"/>
       <path id="DejaVuSans-29" d="M 513 4856 
L 1013 4856 
Q 1481 4119 1714 3412 
Q 1947 2706 1947 2009 
Q 1947 1309 1714 600 
Q 1481 -109 1013 -844 
L 513 -844 
Q 928 -128 1133 580 
Q 1338 1288 1338 2009 
Q 1338 2731 1133 3434 
Q 928 4138 513 4856 
z
" transform="scale(0.015625)"/>
      </defs>
      <use xlink:href="#DejaVuSans-50"/>
      <use xlink:href="#DejaVuSans-72" transform="translate(58.552734 0)"/>
      <use xlink:href="#DejaVuSans-6f" transform="translate(97.416016 0)"/>
      <use xlink:href="#DejaVuSans-64" transform="translate(158.597656 0)"/>
      <use xlink:href="#DejaVuSans-75" transform="translate(222.074219 0)"/>
      <use xlink:href="#DejaVuSans-63" transform="translate(285.453125 0)"/>
      <use xlink:href="#DejaVuSans-74" transform="translate(340.433594 0)"/>
      <use xlink:href="#DejaVuSans-69" transform="translate(379.642578 0)"/>
      <use xlink:href="#DejaVuSans-6f" transform="translate(407.425781 0)"/>
      <use xlink:href="#DejaVuSans-6e" transform="translate(468.607422 0)"/>
      <use xlink:href="#DejaVuSans-20" transform="translate(531.986328 0)"/>
      <use xlink:href="#DejaVuSans-52" transform="translate(563.773438 0)"/>
      <use xlink:href="#DejaVuSans-61" transform="translate(631.005859 0)"/>
      <use xlink:href="#DejaVuSans-74" transform="translate(692.285156 0)"/>
      <use xlink:href="#DejaVuSans-65" transform="translate(731.494141 0)"/>
      <use xlink:href="#DejaVuSans-20" transform="translate(793.017578 0)"/>
      <use xlink:href="#DejaVuSans-28" transform="translate(824.804688 0)"/>
      <use xlink:href="#DejaVuSans-6d" transform="translate(863.818359 0)"/>
      <use xlink:href="#DejaVuSans-69" transform="translate(961.230469 0)"/>
      <use xlink:href="#DejaVuSans-6c" transform="translate(989.013672 0)"/>
      <use xlink:href="#DejaVuSans-6c" transform="translate(1016.796875 0)"/>
      <use xlink:href="#DejaVuSans-69" transform="translate(1044.580078 0)"/>
      <use xlink:href="#DejaVuSans-6f" transform="translate(1072.363281 0)"/>
      <use xlink:href="#DejaVuSans-6e" transform="translate(1133.544922 0)"/>
      <use xlink:href="#DejaVuSans-20" transform="translate(1196.923828 0)"/>
      <use xlink:href="#DejaVuSans-6d" transform="translate(1228.710938 0)"/>
      <use xlink:href="#DejaVuSans-b3" transform="translate(1326.123047 0)"/>
      <use xlink:href="#DejaVuSans-2f" transform="translate(1366.210938 0)"/>
      <use xlink:href="#DejaVuSans-79" transform="translate(1399.902344 0)"/>
      <use xlink:href="#DejaVuSans-72" transform="translate(1459.082031 0)"/>
      <use xlink:href="#DejaVuSans-29" transform="translate(1500.195312 0)"/>
     </g>
    </g>
   </g>
   <g id="matplotlib.axis_2">
    <g id="ytick_1">
     <g id="line2d_15">
      <path d="M 50.915 307.172183 
L 454.56831 307.172183 
" clip-path="url(#pc8c9652599)" style="fill: none; stroke: #b0b0b0; stroke-opacity: 0.25; stroke-width: 0.8; stroke-linecap: square"/>
     </g>
     <g id="line2d_16">
      <defs>
       <path id="m10b1b98535" d="M 0 0 
L -3.5 0 
" style="stroke: #000000; stroke-width: 0.8"/>
      </defs>
      <g>
       <use xlink:href="#m10b1b98535" x="50.915" y="307.172183" style="stroke: #000000; stroke-width: 0.8"/>
      </g>
     </g>
     <g id="text_9">
      <!-- 0 -->
      <g transform="translate(37.5525 310.971402) scale(0.1 -0.1)">
       <use xlink:href="#DejaVuSans-30"/>
      </g>
     </g>
    </g>
    <g id="ytick_2">
     <g id="line2d_17">
      <path d="M 50.915 253.629782 
L 454.56831 253.629782 
" clip-path="url(#pc8c9652599)" style="fill: none; stroke: #b0b0b0; stroke-opacity: 0.25; stroke-width: 0.8; stroke-linecap: square"/>
     </g>
     <g id="line2d_18">
      <g>
       <use xlink:href="#m10b1b98535" x="50.915" y="253.629782" style="stroke: #000000; stroke-width: 0.8"/>
      </g>
     </g>
     <g id="text_10">
      <!-- 50 -->
      <g transform="translate(31.19 257.429001) scale(0.1 -0.1)">
       <defs>
        <path id="DejaVuSans-35" d="M 691 4666 
L 3169 4666 
L 3169 4134 
L 1269 4134 
L 1269 2991 
Q 1406 3038 1543 3061 
Q 1681 3084 1819 3084 
Q 2600 3084 3056 2656 
Q 3513 2228 3513 1497 
Q 3513 744 3044 326 
Q 2575 -91 1722 -91 
Q 1428 -91 1123 -41 
Q 819 9 494 109 
L 494 744 
Q 775 591 1075 516 
Q 1375 441 1709 441 
Q 2250 441 2565 725 
Q 2881 1009 2881 1497 
Q 2881 1984 2565 2268 
Q 2250 2553 1709 2553 
Q 1456 2553 1204 2497 
Q 953 2441 691 2322 
L 691 4666 
z
" transform="scale(0.015625)"/>
       </defs>
       <use xlink:href="#DejaVuSans-35"/>
       <use xlink:href="#DejaVuSans-30" transform="translate(63.623047 0)"/>
      </g>
     </g>
    </g>
    <g id="ytick_3">
     <g id="line2d_19">
      <path d="M 50.915 200.087382 
L 454.56831 200.087382 
" clip-path="url(#pc8c9652599)" style="fill: none; stroke: #b0b0b0; stroke-opacity: 0.25; stroke-width: 0.8; stroke-linecap: square"/>
     </g>
     <g id="line2d_20">
      <g>
       <use xlink:href="#m10b1b98535" x="50.915" y="200.087382" style="stroke: #000000; stroke-width: 0.8"/>
      </g>
     </g>
     <g id="text_11">
      <!-- 100 -->
      <g transform="translate(24.8275 203.8866) scale(0.1 -0.1)">
       <use xlink:href="#DejaVuSans-31"/>
       <use xlink:href="#DejaVuSans-30" transform="translate(63.623047 0)"/>
       <use xlink:href="#DejaVuSans-30" transform="translate(127.246094 0)"/>
      </g>
     </g>
    </g>
    <g id="ytick_4">
     <g id="line2d_21">
      <path d="M 50.915 146.544981 
L 454.56831 146.544981 
" clip-path="url(#pc8c9652599)" style="fill: none; stroke: #b0b0b0; stroke-opacity: 0.25; stroke-width: 0.8; stroke-linecap: square"/>
     </g>
     <g id="line2d_22">
      <g>
       <use xlink:href="#m10b1b98535" x="50.915" y="146.544981" style="stroke: #000000; stroke-width: 0.8"/>
      </g>
     </g>
     <g id="text_12">
      <!-- 150 -->
      <g transform="translate(24.8275 150.344199) scale(0.1 -0.1)">
       <use xlink:href="#DejaVuSans-31"/>
       <use xlink:href="#DejaVuSans-35" transform="translate(63.623047 0)"/>
       <use xlink:href="#DejaVuSans-30" transform="translate(127.246094 0)"/>
      </g>
     </g>
    </g>
    <g id="ytick_5">
     <g id="line2d_23">
      <path d="M 50.915 93.00258 
L 454.56831 93.00258 
" clip-path="url(#pc8c9652599)" style="fill: none; stroke: #b0b0b0; stroke-opacity: 0.25; stroke-width: 0.8; stroke-linecap: square"/>
     </g>
     <g id="line2d_24">
      <g>
       <use xlink:href="#m10b1b98535" x="50.915" y="93.00258" style="stroke: #000000; stroke-width: 0.8"/>
      </g>
     </g>
     <g id="text_13">
      <!-- 200 -->
      <g transform="translate(24.8275 96.801798) scale(0.1 -0.1)">
       <use xlink:href="#DejaVuSans-32"/>
       <use xlink:href="#DejaVuSans-30" transform="translate(63.623047 0)"/>
       <use xlink:href="#DejaVuSans-30" transform="translate(127.246094 0)"/>
      </g>
     </g>
    </g>
    <g id="ytick_6">
     <g id="line2d_25">
      <path d="M 50.915 39.460179 
L 454.56831 39.460179 
" clip-path="url(#pc8c9652599)" style="fill: none; stroke: #b0b0b0; stroke-opacity: 0.25; stroke-width: 0.8; stroke-linecap: square"/>
     </g>
     <g id="line2d_26">
      <g>
       <use xlink:href="#m10b1b98535" x="50.915" y="39.460179" style="stroke: #000000; stroke-width: 0.8"/>
      </g>
     </g>
     <g id="text_14">
      <!-- 250 -->
      <g transform="translate(24.8275 43.259398) scale(0.1 -0.1)">
       <use xlink:href="#DejaVuSans-32"/>
       <use xlink:href="#DejaVuSans-35" transform="translate(63.623047 0)"/>
       <use xlink:href="#DejaVuSans-30" transform="translate(127.246094 0)"/>
      </g>
     </g>
    </g>
    <g id="text_15">
     <!-- Annual Cost ($k/yr) -->
     <g transform="translate(18.747813 220.450781) rotate(-90) scale(0.1 -0.1)">
      <defs>
       <path id="DejaVuSans-41" d="M 2188 4044 
L 1331 1722 
L 3047 1722 
L 2188 4044 
z
M 1831 4666 
L 2547 4666 
L 4325 0 
L 3669 0 
L 3244 1197 
L 1141 1197 
L 716 0 
L 50 0 
L 1831 4666 
z
" transform="scale(0.015625)"/>
       <path id="DejaVuSans-43" d="M 4122 4306 
L 4122 3641 
Q 3803 3938 3442 4084 
Q 3081 4231 2675 4231 
Q 1875 4231 1450 3742 
Q 1025 3253 1025 2328 
Q 1025 1406 1450 917 
Q 1875 428 2675 428 
Q 3081 428 3442 575 
Q 3803 722 4122 1019 
L 4122 359 
Q 3791 134 3420 21 
Q 3050 -91 2638 -91 
Q 1578 -91 968 557 
Q 359 1206 359 2328 
Q 359 3453 968 4101 
Q 1578 4750 2638 4750 
Q 3056 4750 3426 4639 
Q 3797 4528 4122 4306 
z
" transform="scale(0.015625)"/>
       <path id="DejaVuSans-73" d="M 2834 3397 
L 2834 2853 
Q 2591 2978 2328 3040 
Q 2066 3103 1784 3103 
Q 1356 3103 1142 2972 
Q 928 2841 928 2578 
Q 928 2378 1081 2264 
Q 1234 2150 1697 2047 
L 1894 2003 
Q 2506 1872 2764 1633 
Q 3022 1394 3022 966 
Q 3022 478 2636 193 
Q 2250 -91 1575 -91 
Q 1294 -91 989 -36 
Q 684 19 347 128 
L 347 722 
Q 666 556 975 473 
Q 1284 391 1588 391 
Q 1994 391 2212 530 
Q 2431 669 2431 922 
Q 2431 1156 2273 1281 
Q 2116 1406 1581 1522 
L 1381 1569 
Q 847 1681 609 1914 
Q 372 2147 372 2553 
Q 372 3047 722 3315 
Q 1072 3584 1716 3584 
Q 2034 3584 2315 3537 
Q 2597 3491 2834 3397 
z
" transform="scale(0.015625)"/>
       <path id="DejaVuSans-24" d="M 2163 -941 
L 1850 -941 
L 1847 0 
Q 1519 6 1191 76 
Q 863 147 531 288 
L 531 850 
Q 850 650 1176 548 
Q 1503 447 1850 444 
L 1850 1869 
Q 1159 1981 845 2250 
Q 531 2519 531 2988 
Q 531 3497 872 3790 
Q 1213 4084 1850 4128 
L 1850 4863 
L 2163 4863 
L 2163 4138 
Q 2453 4125 2725 4076 
Q 2997 4028 3256 3944 
L 3256 3397 
Q 2997 3528 2723 3600 
Q 2450 3672 2163 3684 
L 2163 2350 
Q 2872 2241 3206 1959 
Q 3541 1678 3541 1191 
Q 3541 663 3186 358 
Q 2831 53 2163 6 
L 2163 -941 
z
M 1850 2406 
L 1850 3688 
Q 1488 3647 1297 3481 
Q 1106 3316 1106 3041 
Q 1106 2772 1282 2622 
Q 1459 2472 1850 2406 
z
M 2163 1806 
L 2163 453 
Q 2559 506 2761 678 
Q 2963 850 2963 1131 
Q 2963 1406 2770 1568 
Q 2578 1731 2163 1806 
z
" transform="scale(0.015625)"/>
       <path id="DejaVuSans-6b" d="M 581 4863 
L 1159 4863 
L 1159 1991 
L 2875 3500 
L 3609 3500 
L 1753 1863 
L 3688 0 
L 2938 0 
L 1159 1709 
L 1159 0 
L 581 0 
L 581 4863 
z
" transform="scale(0.015625)"/>
      </defs>
      <use xlink:href="#DejaVuSans-41"/>
      <use xlink:href="#DejaVuSans-6e" transform="translate(68.408203 0)"/>
      <use xlink:href="#DejaVuSans-6e" transform="translate(131.787109 0)"/>
      <use xlink:href="#DejaVuSans-75" transform="translate(195.166016 0)"/>
      <use xlink:href="#DejaVuSans-61" transform="translate(258.544922 0)"/>
      <use xlink:href="#DejaVuSans-6c" transform="translate(319.824219 0)"/>
      <use xlink:href="#DejaVuSans-20" transform="translate(347.607422 0)"/>
      <use xlink:href="#DejaVuSans-43" transform="translate(379.394531 0)"/>
      <use xlink:href="#DejaVuSans-6f" transform="translate(449.21875 0)"/>
      <use xlink:href="#DejaVuSans-73" transform="translate(510.400391 0)"/>
      <use xlink:href="#DejaVuSans-74" transform="translate(562.5 0)"/>
      <use xlink:href="#DejaVuSans-20" transform="translate(601.708984 0)"/>
      <use xlink:href="#DejaVuSans-28" transform="translate(633.496094 0)"/>
      <use xlink:href="#DejaVuSans-24" transform="translate(672.509766 0)"/>
      <use xlink:href="#DejaVuSans-6b" transform="translate(736.132812 0)"/>
      <use xlink:href="#DejaVuSans-2f" transform="translate(794.042969 0)"/>
      <use xlink:href="#DejaVuSans-79" transform="translate(827.734375 0)"/>
      <use xlink:href="#DejaVuSans-72" transform="translate(886.914062 0)"/>
      <use xlink:href="#DejaVuSans-29" transform="translate(928.027344 0)"/>
     </g>
    </g>
   </g>
   <g id="line2d_27">
    <path d="M 69.262878 304.671444 
L 76.751807 304.194116 
L 84.240737 303.675477 
L 91.729667 303.114194 
L 99.218596 302.508291 
L 106.707526 301.825373 
L 114.196456 301.112488 
L 121.685386 300.331345 
L 129.174315 299.521406 
L 136.663245 298.616586 
L 144.152175 297.638983 
L 151.641104 296.658346 
L 159.130034 295.56528 
L 166.618964 294.36196 
L 174.107893 293.106594 
L 181.596823 291.740829 
L 189.085753 290.347531 
L 196.574682 288.743919 
L 204.063612 287.027663 
L 211.552542 285.191126 
L 219.041472 283.377677 
L 226.530401 281.174652 
L 234.019331 279.136265 
L 241.508261 276.592254 
L 248.99719 273.999895 
L 256.48612 271.080733 
L 263.97505 268.143527 
L 271.463979 264.766483 
L 278.952909 261.370129 
L 286.441839 257.978177 
L 293.930768 253.720144 
L 301.419698 249.731888 
L 308.908628 244.156602 
L 316.397558 239.273901 
L 323.886487 234.513422 
L 331.375417 228.906075 
L 338.864347 222.846621 
L 346.353276 215.421513 
L 353.842206 208.51179 
L 361.331136 200.600444 
L 368.820065 192.560122 
L 376.308995 185.16843 
L 383.797925 175.815059 
L 391.286854 164.19661 
L 398.775784 153.781409 
L 406.264714 142.263132 
L 413.753643 129.216439 
L 421.242573 115.665704 
L 428.731503 104.093367 
L 436.220433 87.867687 
" clip-path="url(#pc8c9652599)" style="fill: none; stroke: #1f77b4; stroke-width: 2; stroke-linecap: square"/>
   </g>
   <g id="line2d_28">
    <path d="M 69.262878 304.674576 
L 76.751807 304.200221 
L 84.240737 303.681634 
L 91.729667 303.117293 
L 99.218596 302.505415 
L 106.707526 301.843923 
L 114.196456 301.13042 
L 121.685386 300.362161 
L 129.174315 299.536019 
L 136.663245 298.648463 
L 144.152175 297.695521 
L 151.641104 296.672755 
L 159.130034 295.575227 
L 166.618964 294.397469 
L 174.107893 293.133455 
L 181.596823 291.776562 
L 189.085753 290.319546 
L 196.574682 288.754506 
L 204.063612 287.072852 
L 211.552542 285.265273 
L 219.041472 283.321705 
L 226.530401 281.231293 
L 234.019331 278.982366 
L 241.508261 276.562396 
L 248.99719 273.957968 
L 256.48612 271.154742 
L 263.97505 268.137427 
L 271.463979 264.889735 
L 278.952909 261.394357 
L 286.441839 257.632921 
L 293.930768 253.585959 
L 301.419698 249.232875 
L 308.908628 244.551902 
L 316.397558 239.520074 
L 323.886487 234.113186 
L 331.375417 228.305758 
L 338.864347 222.071 
L 346.353276 215.380777 
L 353.842206 208.205567 
L 361.331136 200.51443 
L 368.820065 192.274968 
L 376.308995 183.45329 
L 383.797925 174.013972 
L 391.286854 163.920021 
L 398.775784 153.132838 
L 406.264714 141.61218 
L 413.753643 129.316121 
L 421.242573 116.201016 
L 428.731503 102.22146 
L 436.220433 87.330251 
" clip-path="url(#pc8c9652599)" style="fill: none; stroke-dasharray: 7.4,3.2; stroke-dashoffset: 0; stroke: #d62728; stroke-width: 2"/>
   </g>
   <g id="patch_3">
    <path d="M 50.915 318.04 
L 50.915 26.16 
" style="fill: none; stroke: #000000; stroke-width: 0.8; stroke-linejoin: miter; stroke-linecap: square"/>
   </g>
   <g id="patch_4">
    <path d="M 454.56831 318.04 
L 454.56831 26.16 
" style="fill: none; stroke: #000000; stroke-width: 0.8; stroke-linejoin: miter; stroke-linecap: square"/>
   </g>
   <g id="patch_5">
    <path d="M 50.915 318.04 
L 454.56831 318.04 
" style="fill: none; stroke: #000000; stroke-width: 0.8; stroke-linejoin: miter; stroke-linecap: square"/>
   </g>
   <g id="patch_6">
    <path d="M 50.915 26.16 
L 454.56831 26.16 
" style="fill: none; stroke: #000000; stroke-width: 0.8; stroke-linejoin: miter; stroke-linecap: square"/>
   </g>
   <g id="text_16">
    <!-- Annual Cost: Deterministic vs Probabilistic -->
    <g transform="translate(125.82478 20.16) scale(0.12 -0.12)">
     <defs>
      <path id="DejaVuSans-3a" d="M 750 794 
L 1409 794 
L 1409 0 
L 750 0 
L 750 794 
z
M 750 3309 
L 1409 3309 
L 1409 2516 
L 750 2516 
L 750 3309 
z
" transform="scale(0.015625)"/>
      <path id="DejaVuSans-44" d="M 1259 4147 
L 1259 519 
L 2022 519 
Q 2988 519 3436 956 
Q 3884 1394 3884 2338 
Q 3884 3275 3436 3711 
Q 2988 4147 2022 4147 
L 1259 4147 
z
M 628 4666 
L 1925 4666 
Q 3281 4666 3915 4102 
Q 4550 3538 4550 2338 
Q 4550 1131 3912 565 
Q 3275 0 1925 0 
L 628 0 
L 628 4666 
z
" transform="scale(0.015625)"/>
      <path id="DejaVuSans-76" d="M 191 3500 
L 800 3500 
L 1894 563 
L 2988 3500 
L 3597 3500 
L 2284 0 
L 1503 0 
L 191 3500 
z
" transform="scale(0.015625)"/>
      <path id="DejaVuSans-62" d="M 3116 1747 
Q 3116 2381 2855 2742 
Q 2594 3103 2138 3103 
Q 1681 3103 1420 2742 
Q 1159 2381 1159 1747 
Q 1159 1113 1420 752 
Q 1681 391 2138 391 
Q 2594 391 2855 752 
Q 3116 1113 3116 1747 
z
M 1159 2969 
Q 1341 3281 1617 3432 
Q 1894 3584 2278 3584 
Q 2916 3584 3314 3078 
Q 3713 2572 3713 1747 
Q 3713 922 3314 415 
Q 2916 -91 2278 -91 
Q 1894 -91 1617 61 
Q 1341 213 1159 525 
L 1159 0 
L 581 0 
L 581 4863 
L 1159 4863 
L 1159 2969 
z
" transform="scale(0.015625)"/>
     </defs>
     <use xlink:href="#DejaVuSans-41"/>
     <use xlink:href="#DejaVuSans-6e" transform="translate(68.408203 0)"/>
     <use xlink:href="#DejaVuSans-6e" transform="translate(131.787109 0)"/>
     <use xlink:href="#DejaVuSans-75" transform="translate(195.166016 0)"/>
     <use xlink:href="#DejaVuSans-61" transform="translate(258.544922 0)"/>
     <use xlink:href="#DejaVuSans-6c" transform="translate(319.824219 0)"/>
     <use xlink:href="#DejaVuSans-20" transform="translate(347.607422 0)"/>
     <use xlink:href="#DejaVuSans-43" transform="translate(379.394531 0)"/>
     <use xlink:href="#DejaVuSans-6f" transform="translate(449.21875 0)"/>
     <use xlink:href="#DejaVuSans-73" transform="translate(510.400391 0)"/>
     <use xlink:href="#DejaVuSans-74" transform="translate(562.5 0)"/>
     <use xlink:href="#DejaVuSans-3a" transform="translate(601.708984 0)"/>
     <use xlink:href="#DejaVuSans-20" transform="translate(635.400391 0)"/>
     <use xlink:href="#DejaVuSans-44" transform="translate(667.1875 0)"/>
     <use xlink:href="#DejaVuSans-65" transform="translate(744.189453 0)"/>
     <use xlink:href="#DejaVuSans-74" transform="translate(805.712891 0)"/>
     <use xlink:href="#DejaVuSans-65" transform="translate(844.921875 0)"/>
     <use xlink:href="#DejaVuSans-72" transform="translate(906.445312 0)"/>
     <use xlink:href="#DejaVuSans-6d" transform="translate(945.808594 0)"/>
     <use xlink:href="#DejaVuSans-69" transform="translate(1043.220703 0)"/>
     <use xlink:href="#DejaVuSans-6e" transform="translate(1071.003906 0)"/>
     <use xlink:href="#DejaVuSans-69" transform="translate(1134.382812 0)"/>
     <use xlink:href="#DejaVuSans-73" transform="translate(1162.166016 0)"/>
     <use xlink:href="#DejaVuSans-74" transform="translate(1214.265625 0)"/>
     <use xlink:href="#DejaVuSans-69" transform="translate(1253.474609 0)"/>
     <use xlink:href="#DejaVuSans-63" transform="translate(1281.257812 0)"/>
     <use xlink:href="#DejaVuSans-20" transform="translate(1336.238281 0)"/>
     <use xlink:href="#DejaVuSans-76" transform="translate(1368.025391 0)"/>
     <use xlink:href="#DejaVuSans-73" transform="translate(1427.205078 0)"/>
     <use xlink:href="#DejaVuSans-20" transform="translate(1479.304688 0)"/>
     <use xlink:href="#DejaVuSans-50" transform="translate(1511.091797 0)"/>
     <use xlink:href="#DejaVuSans-72" transform="translate(1569.644531 0)"/>
     <use xlink:href="#DejaVuSans-6f" transform="translate(1608.507812 0)"/>
     <use xlink:href="#DejaVuSans-62" transform="translate(1669.689453 0)"/>
     <use xlink:href="#DejaVuSans-61" transform="translate(1733.166016 0)"/>
     <use xlink:href="#DejaVuSans-62" transform="translate(1794.445312 0)"/>
     <use xlink:href="#DejaVuSans-69" transform="translate(1857.921875 0)"/>
     <use xlink:href="#DejaVuSans-6c" transform="translate(1885.705078 0)"/>
     <use xlink:href="#DejaVuSans-69" transform="translate(1913.488281 0)"/>
     <use xlink:href="#DejaVuSans-73" transform="translate(1941.271484 0)"/>
     <use xlink:href="#DejaVuSans-74" transform="translate(1993.371094 0)"/>
     <use xlink:href="#DejaVuSans-69" transform="translate(2032.580078 0)"/>
     <use xlink:href="#DejaVuSans-63" transform="translate(2060.363281 0)"/>
    </g>
   </g>
   <g id="legend_1">
    <g id="patch_7">
     <path d="M 57.915 78.194375 
L 196.522813 78.194375 
Q 198.522813 78.194375 198.522813 76.194375 
L 198.522813 33.16 
Q 198.522813 31.16 196.522813 31.16 
L 57.915 31.16 
Q 55.915 31.16 55.915 33.16 
L 55.915 76.194375 
Q 55.915 78.194375 57.915 78.194375 
z
" style="fill: #ffffff; opacity: 0.8; stroke: #cccccc; stroke-linejoin: miter"/>
    </g>
    <g id="patch_8">
     <path d="M 59.915 42.758437 
L 79.915 42.758437 
L 79.915 35.758437 
L 59.915 35.758437 
z
" style="fill: #1f77b4; fill-opacity: 0.25; stroke: #1f77b4; stroke-opacity: 0.25; stroke-linejoin: miter"/>
    </g>
    <g id="text_17">
     <!-- MCMC 10–90% range -->
     <g transform="translate(87.915 42.758437) scale(0.1 -0.1)">
      <defs>
       <path id="DejaVuSans-4d" d="M 628 4666 
L 1569 4666 
L 2759 1491 
L 3956 4666 
L 4897 4666 
L 4897 0 
L 4281 0 
L 4281 4097 
L 3078 897 
L 2444 897 
L 1241 4097 
L 1241 0 
L 628 0 
L 628 4666 
z
" transform="scale(0.015625)"/>
       <path id="DejaVuSans-2013" d="M 313 1978 
L 2888 1978 
L 2888 1528 
L 313 1528 
L 313 1978 
z
" transform="scale(0.015625)"/>
       <path id="DejaVuSans-39" d="M 703 97 
L 703 672 
Q 941 559 1184 500 
Q 1428 441 1663 441 
Q 2288 441 2617 861 
Q 2947 1281 2994 2138 
Q 2813 1869 2534 1725 
Q 2256 1581 1919 1581 
Q 1219 1581 811 2004 
Q 403 2428 403 3163 
Q 403 3881 828 4315 
Q 1253 4750 1959 4750 
Q 2769 4750 3195 4129 
Q 3622 3509 3622 2328 
Q 3622 1225 3098 567 
Q 2575 -91 1691 -91 
Q 1453 -91 1209 -44 
Q 966 3 703 97 
z
M 1959 2075 
Q 2384 2075 2632 2365 
Q 2881 2656 2881 3163 
Q 2881 3666 2632 3958 
Q 2384 4250 1959 4250 
Q 1534 4250 1286 3958 
Q 1038 3666 1038 3163 
Q 1038 2656 1286 2365 
Q 1534 2075 1959 2075 
z
" transform="scale(0.015625)"/>
       <path id="DejaVuSans-25" d="M 4653 2053 
Q 4381 2053 4226 1822 
Q 4072 1591 4072 1178 
Q 4072 772 4226 539 
Q 4381 306 4653 306 
Q 4919 306 5073 539 
Q 5228 772 5228 1178 
Q 5228 1588 5073 1820 
Q 4919 2053 4653 2053 
z
M 4653 2450 
Q 5147 2450 5437 2106 
Q 5728 1763 5728 1178 
Q 5728 594 5436 251 
Q 5144 -91 4653 -91 
Q 4153 -91 3862 251 
Q 3572 594 3572 1178 
Q 3572 1766 3864 2108 
Q 4156 2450 4653 2450 
z
M 1428 4353 
Q 1159 4353 1004 4120 
Q 850 3888 850 3481 
Q 850 3069 1003 2837 
Q 1156 2606 1428 2606 
Q 1700 2606 1854 2837 
Q 2009 3069 2009 3481 
Q 2009 3884 1853 4118 
Q 1697 4353 1428 4353 
z
M 4250 4750 
L 4750 4750 
L 1831 -91 
L 1331 -91 
L 4250 4750 
z
M 1428 4750 
Q 1922 4750 2215 4408 
Q 2509 4066 2509 3481 
Q 2509 2891 2217 2550 
Q 1925 2209 1428 2209 
Q 931 2209 642 2551 
Q 353 2894 353 3481 
Q 353 4063 643 4406 
Q 934 4750 1428 4750 
z
" transform="scale(0.015625)"/>
       <path id="DejaVuSans-67" d="M 2906 1791 
Q 2906 2416 2648 2759 
Q 2391 3103 1925 3103 
Q 1463 3103 1205 2759 
Q 947 2416 947 1791 
Q 947 1169 1205 825 
Q 1463 481 1925 481 
Q 2391 481 2648 825 
Q 2906 1169 2906 1791 
z
M 3481 434 
Q 3481 -459 3084 -895 
Q 2688 -1331 1869 -1331 
Q 1566 -1331 1297 -1286 
Q 1028 -1241 775 -1147 
L 775 -588 
Q 1028 -725 1275 -790 
Q 1522 -856 1778 -856 
Q 2344 -856 2625 -561 
Q 2906 -266 2906 331 
L 2906 616 
Q 2728 306 2450 153 
Q 2172 0 1784 0 
Q 1141 0 747 490 
Q 353 981 353 1791 
Q 353 2603 747 3093 
Q 1141 3584 1784 3584 
Q 2172 3584 2450 3431 
Q 2728 3278 2906 2969 
L 2906 3500 
L 3481 3500 
L 3481 434 
z
" transform="scale(0.015625)"/>
      </defs>
      <use xlink:href="#DejaVuSans-4d"/>
      <use xlink:href="#DejaVuSans-43" transform="translate(86.279297 0)"/>
      <use xlink:href="#DejaVuSans-4d" transform="translate(156.103516 0)"/>
      <use xlink:href="#DejaVuSans-43" transform="translate(242.382812 0)"/>
      <use xlink:href="#DejaVuSans-20" transform="translate(312.207031 0)"/>
      <use xlink:href="#DejaVuSans-31" transform="translate(343.994141 0)"/>
      <use xlink:href="#DejaVuSans-30" transform="translate(407.617188 0)"/>
      <use xlink:href="#DejaVuSans-2013" transform="translate(471.240234 0)"/>
      <use xlink:href="#DejaVuSans-39" transform="translate(521.240234 0)"/>
      <use xlink:href="#DejaVuSans-30" transform="translate(584.863281 0)"/>
      <use xlink:href="#DejaVuSans-25" transform="translate(648.486328 0)"/>
      <use xlink:href="#DejaVuSans-20" transform="translate(743.505859 0)"/>
      <use xlink:href="#DejaVuSans-72" transform="translate(775.292969 0)"/>
      <use xlink:href="#DejaVuSans-61" transform="translate(816.40625 0)"/>
      <use xlink:href="#DejaVuSans-6e" transform="translate(877.685547 0)"/>
      <use xlink:href="#DejaVuSans-67" transform="translate(941.064453 0)"/>
      <use xlink:href="#DejaVuSans-65" transform="translate(1004.541016 0)"/>
     </g>
    </g>
    <g id="line2d_29">
     <path d="M 59.915 53.936562 
L 69.915 53.936562 
L 79.915 53.936562 
" style="fill: none; stroke: #1f77b4; stroke-width: 2; stroke-linecap: square"/>
    </g>
    <g id="text_18">
     <!-- MCMC median -->
     <g transform="translate(87.915 57.436562) scale(0.1 -0.1)">
      <use xlink:href="#DejaVuSans-4d"/>
      <use xlink:href="#DejaVuSans-43" transform="translate(86.279297 0)"/>
      <use xlink:href="#DejaVuSans-4d" transform="translate(156.103516 0)"/>
      <use xlink:href="#DejaVuSans-43" transform="translate(242.382812 0)"/>
      <use xlink:href="#DejaVuSans-20" transform="translate(312.207031 0)"/>
      <use xlink:href="#DejaVuSans-6d" transform="translate(343.994141 0)"/>
      <use xlink:href="#DejaVuSans-65" transform="translate(441.40625 0)"/>
      <use xlink:href="#DejaVuSans-64" transform="translate(502.929688 0)"/>
      <use xlink:href="#DejaVuSans-69" transform="translate(566.40625 0)"/>
      <use xlink:href="#DejaVuSans-61" transform="translate(594.189453 0)"/>
      <use xlink:href="#DejaVuSans-6e" transform="translate(655.46875 0)"/>
     </g>
    </g>
    <g id="line2d_30">
     <path d="M 59.915 68.614687 
L 69.915 68.614687 
L 79.915 68.614687 
" style="fill: none; stroke-dasharray: 7.4,3.2; stroke-dashoffset: 0; stroke: #d62728; stroke-width: 2"/>
    </g>
    <g id="text_19">
     <!-- Deterministic (MAP) -->
     <g transform="translate(87.915 72.114687) scale(0.1 -0.1)">
      <use xlink:href="#DejaVuSans-44"/>
      <use xlink:href="#DejaVuSans-65" transform="translate(77.001953 0)"/>
      <use xlink:href="#DejaVuSans-74" transform="translate(138.525391 0)"/>
      <use xlink:href="#DejaVuSans-65" transform="translate(177.734375 0)"/>
      <use xlink:href="#DejaVuSans-72" transform="translate(239.257812 0)"/>
      <use xlink:href="#DejaVuSans-6d" transform="translate(278.621094 0)"/>
      <use xlink:href="#DejaVuSans-69" transform="translate(376.033203 0)"/>
      <use xlink:href="#DejaVuSans-6e" transform="translate(403.816406 0)"/>
      <use xlink:href="#DejaVuSans-69" transform="translate(467.195312 0)"/>
      <use xlink:href="#DejaVuSans-73" transform="translate(494.978516 0)"/>
      <use xlink:href="#DejaVuSans-74" transform="translate(547.078125 0)"/>
      <use xlink:href="#DejaVuSans-69" transform="translate(586.287109 0)"/>
      <use xlink:href="#DejaVuSans-63" transform="translate(614.070312 0)"/>
      <use xlink:href="#DejaVuSans-20" transform="translate(669.050781 0)"/>
      <use xlink:href="#DejaVuSans-28" transform="translate(700.837891 0)"/>
      <use xlink:href="#DejaVuSans-4d" transform="translate(739.851562 0)"/>
      <use xlink:href="#DejaVuSans-41" transform="translate(826.130859 0)"/>
      <use xlink:href="#DejaVuSans-50" transform="translate(894.539062 0)"/>
      <use xlink:href="#DejaVuSans-29" transform="translate(954.841797 0)"/>
     </g>
    </g>
   </g>
  </g>
  <g id="axes_2">
   <g id="patch_9">
    <path d="M 516.6875 318.04 
L 920.34081 318.04 
L 920.34081 26.16 
L 516.6875 26.16 
z
" style="fill: #ffffff"/>
   </g>
   <g id="FillBetweenPolyCollection_2">
    <defs>
     <path id="m8c1a1ba5a2" d="M 535.035378 -55.437381 
L 535.035378 -55.227273 
L 542.524307 -55.698511 
L 550.013237 -56.191208 
L 557.502167 -56.745918 
L 564.991096 -57.30981 
L 572.480026 -57.991712 
L 579.968956 -58.631669 
L 587.457886 -59.375089 
L 594.946815 -60.166001 
L 602.435745 -61.065117 
L 609.924675 -62.024195 
L 617.413604 -62.958592 
L 624.902534 -64.001121 
L 632.391464 -65.117909 
L 639.880393 -66.378048 
L 647.369323 -67.577255 
L 654.858253 -69.092387 
L 662.347182 -70.52728 
L 669.836112 -72.223017 
L 677.325042 -73.961431 
L 684.813972 -75.693823 
L 692.302901 -77.761491 
L 699.791831 -79.744579 
L 707.280761 -82.015698 
L 714.76969 -84.778265 
L 722.25862 -87.258618 
L 729.74755 -89.786561 
L 737.236479 -92.701648 
L 744.725409 -96.294533 
L 752.214339 -99.502338 
L 759.703268 -103.006581 
L 767.192198 -106.674703 
L 774.681128 -111.018995 
L 782.170058 -115.152752 
L 789.658987 -119.596461 
L 797.147917 -125.610768 
L 804.636847 -130.334731 
L 812.125776 -135.878463 
L 819.614706 -140.55161 
L 827.103636 -146.772478 
L 834.592565 -155.244431 
L 842.081495 -160.47682 
L 849.570425 -167.759667 
L 857.059354 -178.256502 
L 864.548284 -183.180906 
L 872.037214 -195.174618 
L 879.526143 -203.21595 
L 887.015073 -213.182971 
L 894.504003 -221.796405 
L 901.992933 -234.354592 
L 901.992933 -320.572727 
L 901.992933 -320.572727 
L 894.504003 -296.02807 
L 887.015073 -279.952611 
L 879.526143 -262.922188 
L 872.037214 -248.535128 
L 864.548284 -228.138759 
L 857.059354 -220.324016 
L 849.570425 -205.295303 
L 842.081495 -191.758048 
L 834.592565 -181.287339 
L 827.103636 -174.034431 
L 819.614706 -162.200973 
L 812.125776 -154.192428 
L 804.636847 -145.570305 
L 797.147917 -139.0882 
L 789.658987 -131.932776 
L 782.170058 -125.536608 
L 774.681128 -119.810826 
L 767.192198 -114.273411 
L 759.703268 -109.423412 
L 752.214339 -105.192596 
L 744.725409 -100.917177 
L 737.236479 -97.133438 
L 729.74755 -93.61239 
L 722.25862 -90.438843 
L 714.76969 -87.514733 
L 707.280761 -84.602553 
L 699.791831 -82.144054 
L 692.302901 -79.76994 
L 684.813972 -77.579983 
L 677.325042 -75.632902 
L 669.836112 -73.87611 
L 662.347182 -71.94054 
L 654.858253 -70.381058 
L 647.369323 -68.877875 
L 639.880393 -67.447785 
L 632.391464 -66.165467 
L 624.902534 -64.91803 
L 617.413604 -63.772918 
L 609.924675 -62.787451 
L 602.435745 -61.720431 
L 594.946815 -60.796002 
L 587.457886 -59.962823 
L 579.968956 -59.143263 
L 572.480026 -58.415163 
L 564.991096 -57.715428 
L 557.502167 -57.07355 
L 550.013237 -56.477269 
L 542.524307 -55.933878 
L 535.035378 -55.437381 
z
" style="stroke: #ff7f0e; stroke-opacity: 0.25"/>
    </defs>
    <g clip-path="url(#p3d9e07ec4d)">
     <use xlink:href="#m8c1a1ba5a2" x="0" y="360" style="fill: #ff7f0e; fill-opacity: 0.25; stroke: #ff7f0e; stroke-opacity: 0.25"/>
    </g>
   </g>
   <g id="matplotlib.axis_3">
    <g id="xtick_8">
     <g id="line2d_31">
      <path d="M 526.632773 318.04 
L 526.632773 26.16 
" clip-path="url(#p3d9e07ec4d)" style="fill: none; stroke: #b0b0b0; stroke-opacity: 0.25; stroke-width: 0.8; stroke-linecap: square"/>
     </g>
     <g id="line2d_32">
      <g>
       <use xlink:href="#m897ab5b71a" x="526.632773" y="318.04" style="stroke: #000000; stroke-width: 0.8"/>
      </g>
     </g>
     <g id="text_20">
      <!-- 0.2 -->
      <g transform="translate(518.681211 332.638438) scale(0.1 -0.1)">
       <use xlink:href="#DejaVuSans-30"/>
       <use xlink:href="#DejaVuSans-2e" transform="translate(63.623047 0)"/>
       <use xlink:href="#DejaVuSans-32" transform="translate(95.410156 0)"/>
      </g>
     </g>
    </g>
    <g id="xtick_9">
     <g id="line2d_33">
      <path d="M 591.621679 318.04 
L 591.621679 26.16 
" clip-path="url(#p3d9e07ec4d)" style="fill: none; stroke: #b0b0b0; stroke-opacity: 0.25; stroke-width: 0.8; stroke-linecap: square"/>
     </g>
     <g id="line2d_34">
      <g>
       <use xlink:href="#m897ab5b71a" x="591.621679" y="318.04" style="stroke: #000000; stroke-width: 0.8"/>
      </g>
     </g>
     <g id="text_21">
      <!-- 0.4 -->
      <g transform="translate(583.670117 332.638438) scale(0.1 -0.1)">
       <use xlink:href="#DejaVuSans-30"/>
       <use xlink:href="#DejaVuSans-2e" transform="translate(63.623047 0)"/>
       <use xlink:href="#DejaVuSans-34" transform="translate(95.410156 0)"/>
      </g>
     </g>
    </g>
    <g id="xtick_10">
     <g id="line2d_35">
      <path d="M 656.610586 318.04 
L 656.610586 26.16 
" clip-path="url(#p3d9e07ec4d)" style="fill: none; stroke: #b0b0b0; stroke-opacity: 0.25; stroke-width: 0.8; stroke-linecap: square"/>
     </g>
     <g id="line2d_36">
      <g>
       <use xlink:href="#m897ab5b71a" x="656.610586" y="318.04" style="stroke: #000000; stroke-width: 0.8"/>
      </g>
     </g>
     <g id="text_22">
      <!-- 0.6 -->
      <g transform="translate(648.659023 332.638438) scale(0.1 -0.1)">
       <use xlink:href="#DejaVuSans-30"/>
       <use xlink:href="#DejaVuSans-2e" transform="translate(63.623047 0)"/>
       <use xlink:href="#DejaVuSans-36" transform="translate(95.410156 0)"/>
      </g>
     </g>
    </g>
    <g id="xtick_11">
     <g id="line2d_37">
      <path d="M 721.599492 318.04 
L 721.599492 26.16 
" clip-path="url(#p3d9e07ec4d)" style="fill: none; stroke: #b0b0b0; stroke-opacity: 0.25; stroke-width: 0.8; stroke-linecap: square"/>
     </g>
     <g id="line2d_38">
      <g>
       <use xlink:href="#m897ab5b71a" x="721.599492" y="318.04" style="stroke: #000000; stroke-width: 0.8"/>
      </g>
     </g>
     <g id="text_23">
      <!-- 0.8 -->
      <g transform="translate(713.647929 332.638438) scale(0.1 -0.1)">
       <use xlink:href="#DejaVuSans-30"/>
       <use xlink:href="#DejaVuSans-2e" transform="translate(63.623047 0)"/>
       <use xlink:href="#DejaVuSans-38" transform="translate(95.410156 0)"/>
      </g>
     </g>
    </g>
    <g id="xtick_12">
     <g id="line2d_39">
      <path d="M 786.588398 318.04 
L 786.588398 26.16 
" clip-path="url(#p3d9e07ec4d)" style="fill: none; stroke: #b0b0b0; stroke-opacity: 0.25; stroke-width: 0.8; stroke-linecap: square"/>
     </g>
     <g id="line2d_40">
      <g>
       <use xlink:href="#m897ab5b71a" x="786.588398" y="318.04" style="stroke: #000000; stroke-width: 0.8"/>
      </g>
     </g>
     <g id="text_24">
      <!-- 1.0 -->
      <g transform="translate(778.636836 332.638438) scale(0.1 -0.1)">
       <use xlink:href="#DejaVuSans-31"/>
       <use xlink:href="#DejaVuSans-2e" transform="translate(63.623047 0)"/>
       <use xlink:href="#DejaVuSans-30" transform="translate(95.410156 0)"/>
      </g>
     </g>
    </g>
    <g id="xtick_13">
     <g id="line2d_41">
      <path d="M 851.577304 318.04 
L 851.577304 26.16 
" clip-path="url(#p3d9e07ec4d)" style="fill: none; stroke: #b0b0b0; stroke-opacity: 0.25; stroke-width: 0.8; stroke-linecap: square"/>
     </g>
     <g id="line2d_42">
      <g>
       <use xlink:href="#m897ab5b71a" x="851.577304" y="318.04" style="stroke: #000000; stroke-width: 0.8"/>
      </g>
     </g>
     <g id="text_25">
      <!-- 1.2 -->
      <g transform="translate(843.625742 332.638438) scale(0.1 -0.1)">
       <use xlink:href="#DejaVuSans-31"/>
       <use xlink:href="#DejaVuSans-2e" transform="translate(63.623047 0)"/>
       <use xlink:href="#DejaVuSans-32" transform="translate(95.410156 0)"/>
      </g>
     </g>
    </g>
    <g id="xtick_14">
     <g id="line2d_43">
      <path d="M 916.566211 318.04 
L 916.566211 26.16 
" clip-path="url(#p3d9e07ec4d)" style="fill: none; stroke: #b0b0b0; stroke-opacity: 0.25; stroke-width: 0.8; stroke-linecap: square"/>
     </g>
     <g id="line2d_44">
      <g>
       <use xlink:href="#m897ab5b71a" x="916.566211" y="318.04" style="stroke: #000000; stroke-width: 0.8"/>
      </g>
     </g>
     <g id="text_26">
      <!-- 1.4 -->
      <g transform="translate(908.614648 332.638438) scale(0.1 -0.1)">
       <use xlink:href="#DejaVuSans-31"/>
       <use xlink:href="#DejaVuSans-2e" transform="translate(63.623047 0)"/>
       <use xlink:href="#DejaVuSans-34" transform="translate(95.410156 0)"/>
      </g>
     </g>
    </g>
    <g id="text_27">
     <!-- Production Rate (million m³/yr) -->
     <g transform="translate(641.55478 346.316563) scale(0.1 -0.1)">
      <use xlink:href="#DejaVuSans-50"/>
      <use xlink:href="#DejaVuSans-72" transform="translate(58.552734 0)"/>
      <use xlink:href="#DejaVuSans-6f" transform="translate(97.416016 0)"/>
      <use xlink:href="#DejaVuSans-64" transform="translate(158.597656 0)"/>
      <use xlink:href="#DejaVuSans-75" transform="translate(222.074219 0)"/>
      <use xlink:href="#DejaVuSans-63" transform="translate(285.453125 0)"/>
      <use xlink:href="#DejaVuSans-74" transform="translate(340.433594 0)"/>
      <use xlink:href="#DejaVuSans-69" transform="translate(379.642578 0)"/>
      <use xlink:href="#DejaVuSans-6f" transform="translate(407.425781 0)"/>
      <use xlink:href="#DejaVuSans-6e" transform="translate(468.607422 0)"/>
      <use xlink:href="#DejaVuSans-20" transform="translate(531.986328 0)"/>
      <use xlink:href="#DejaVuSans-52" transform="translate(563.773438 0)"/>
      <use xlink:href="#DejaVuSans-61" transform="translate(631.005859 0)"/>
      <use xlink:href="#DejaVuSans-74" transform="translate(692.285156 0)"/>
      <use xlink:href="#DejaVuSans-65" transform="translate(731.494141 0)"/>
      <use xlink:href="#DejaVuSans-20" transform="translate(793.017578 0)"/>
      <use xlink:href="#DejaVuSans-28" transform="translate(824.804688 0)"/>
      <use xlink:href="#DejaVuSans-6d" transform="translate(863.818359 0)"/>
      <use xlink:href="#DejaVuSans-69" transform="translate(961.230469 0)"/>
      <use xlink:href="#DejaVuSans-6c" transform="translate(989.013672 0)"/>
      <use xlink:href="#DejaVuSans-6c" transform="translate(1016.796875 0)"/>
      <use xlink:href="#DejaVuSans-69" transform="translate(1044.580078 0)"/>
      <use xlink:href="#DejaVuSans-6f" transform="translate(1072.363281 0)"/>
      <use xlink:href="#DejaVuSans-6e" transform="translate(1133.544922 0)"/>
      <use xlink:href="#DejaVuSans-20" transform="translate(1196.923828 0)"/>
      <use xlink:href="#DejaVuSans-6d" transform="translate(1228.710938 0)"/>
      <use xlink:href="#DejaVuSans-b3" transform="translate(1326.123047 0)"/>
      <use xlink:href="#DejaVuSans-2f" transform="translate(1366.210938 0)"/>
      <use xlink:href="#DejaVuSans-79" transform="translate(1399.902344 0)"/>
      <use xlink:href="#DejaVuSans-72" transform="translate(1459.082031 0)"/>
      <use xlink:href="#DejaVuSans-29" transform="translate(1500.195312 0)"/>
     </g>
    </g>
   </g>
   <g id="matplotlib.axis_4">
    <g id="ytick_7">
     <g id="line2d_45">
      <path d="M 516.6875 307.172183 
L 920.34081 307.172183 
" clip-path="url(#p3d9e07ec4d)" style="fill: none; stroke: #b0b0b0; stroke-opacity: 0.25; stroke-width: 0.8; stroke-linecap: square"/>
     </g>
     <g id="line2d_46">
      <g>
       <use xlink:href="#m10b1b98535" x="516.6875" y="307.172183" style="stroke: #000000; stroke-width: 0.8"/>
      </g>
     </g>
     <g id="text_28">
      <!-- 0 -->
      <g transform="translate(503.325 310.971402) scale(0.1 -0.1)">
       <use xlink:href="#DejaVuSans-30"/>
      </g>
     </g>
    </g>
    <g id="ytick_8">
     <g id="line2d_47">
      <path d="M 516.6875 253.629782 
L 920.34081 253.629782 
" clip-path="url(#p3d9e07ec4d)" style="fill: none; stroke: #b0b0b0; stroke-opacity: 0.25; stroke-width: 0.8; stroke-linecap: square"/>
     </g>
     <g id="line2d_48">
      <g>
       <use xlink:href="#m10b1b98535" x="516.6875" y="253.629782" style="stroke: #000000; stroke-width: 0.8"/>
      </g>
     </g>
     <g id="text_29">
      <!-- 500 -->
      <g transform="translate(490.6 257.429001) scale(0.1 -0.1)">
       <use xlink:href="#DejaVuSans-35"/>
       <use xlink:href="#DejaVuSans-30" transform="translate(63.623047 0)"/>
       <use xlink:href="#DejaVuSans-30" transform="translate(127.246094 0)"/>
      </g>
     </g>
    </g>
    <g id="ytick_9">
     <g id="line2d_49">
      <path d="M 516.6875 200.087382 
L 920.34081 200.087382 
" clip-path="url(#p3d9e07ec4d)" style="fill: none; stroke: #b0b0b0; stroke-opacity: 0.25; stroke-width: 0.8; stroke-linecap: square"/>
     </g>
     <g id="line2d_50">
      <g>
       <use xlink:href="#m10b1b98535" x="516.6875" y="200.087382" style="stroke: #000000; stroke-width: 0.8"/>
      </g>
     </g>
     <g id="text_30">
      <!-- 1000 -->
      <g transform="translate(484.2375 203.8866) scale(0.1 -0.1)">
       <use xlink:href="#DejaVuSans-31"/>
       <use xlink:href="#DejaVuSans-30" transform="translate(63.623047 0)"/>
       <use xlink:href="#DejaVuSans-30" transform="translate(127.246094 0)"/>
       <use xlink:href="#DejaVuSans-30" transform="translate(190.869141 0)"/>
      </g>
     </g>
    </g>
    <g id="ytick_10">
     <g id="line2d_51">
      <path d="M 516.6875 146.544981 
L 920.34081 146.544981 
" clip-path="url(#p3d9e07ec4d)" style="fill: none; stroke: #b0b0b0; stroke-opacity: 0.25; stroke-width: 0.8; stroke-linecap: square"/>
     </g>
     <g id="line2d_52">
      <g>
       <use xlink:href="#m10b1b98535" x="516.6875" y="146.544981" style="stroke: #000000; stroke-width: 0.8"/>
      </g>
     </g>
     <g id="text_31">
      <!-- 1500 -->
      <g transform="translate(484.2375 150.344199) scale(0.1 -0.1)">
       <use xlink:href="#DejaVuSans-31"/>
       <use xlink:href="#DejaVuSans-35" transform="translate(63.623047 0)"/>
       <use xlink:href="#DejaVuSans-30" transform="translate(127.246094 0)"/>
       <use xlink:href="#DejaVuSans-30" transform="translate(190.869141 0)"/>
      </g>
     </g>
    </g>
    <g id="ytick_11">
     <g id="line2d_53">
      <path d="M 516.6875 93.00258 
L 920.34081 93.00258 
" clip-path="url(#p3d9e07ec4d)" style="fill: none; stroke: #b0b0b0; stroke-opacity: 0.25; stroke-width: 0.8; stroke-linecap: square"/>
     </g>
     <g id="line2d_54">
      <g>
       <use xlink:href="#m10b1b98535" x="516.6875" y="93.00258" style="stroke: #000000; stroke-width: 0.8"/>
      </g>
     </g>
     <g id="text_32">
      <!-- 2000 -->
      <g transform="translate(484.2375 96.801798) scale(0.1 -0.1)">
       <use xlink:href="#DejaVuSans-32"/>
       <use xlink:href="#DejaVuSans-30" transform="translate(63.623047 0)"/>
       <use xlink:href="#DejaVuSans-30" transform="translate(127.246094 0)"/>
       <use xlink:href="#DejaVuSans-30" transform="translate(190.869141 0)"/>
      </g>
     </g>
    </g>
    <g id="ytick_12">
     <g id="line2d_55">
      <path d="M 516.6875 39.460179 
L 920.34081 39.460179 
" clip-path="url(#p3d9e07ec4d)" style="fill: none; stroke: #b0b0b0; stroke-opacity: 0.25; stroke-width: 0.8; stroke-linecap: square"/>
     </g>
     <g id="line2d_56">
      <g>
       <use xlink:href="#m10b1b98535" x="516.6875" y="39.460179" style="stroke: #000000; stroke-width: 0.8"/>
      </g>
     </g>
     <g id="text_33">
      <!-- 2500 -->
      <g transform="translate(484.2375 43.259398) scale(0.1 -0.1)">
       <use xlink:href="#DejaVuSans-32"/>
       <use xlink:href="#DejaVuSans-35" transform="translate(63.623047 0)"/>
       <use xlink:href="#DejaVuSans-30" transform="translate(127.246094 0)"/>
       <use xlink:href="#DejaVuSans-30" transform="translate(190.869141 0)"/>
      </g>
     </g>
    </g>
    <g id="text_34">
     <!-- Annual Energy (MWh/yr) -->
     <g transform="translate(478.157813 233.191406) rotate(-90) scale(0.1 -0.1)">
      <defs>
       <path id="DejaVuSans-45" d="M 628 4666 
L 3578 4666 
L 3578 4134 
L 1259 4134 
L 1259 2753 
L 3481 2753 
L 3481 2222 
L 1259 2222 
L 1259 531 
L 3634 531 
L 3634 0 
L 628 0 
L 628 4666 
z
" transform="scale(0.015625)"/>
       <path id="DejaVuSans-57" d="M 213 4666 
L 850 4666 
L 1831 722 
L 2809 4666 
L 3519 4666 
L 4500 722 
L 5478 4666 
L 6119 4666 
L 4947 0 
L 4153 0 
L 3169 4050 
L 2175 0 
L 1381 0 
L 213 4666 
z
" transform="scale(0.015625)"/>
       <path id="DejaVuSans-68" d="M 3513 2113 
L 3513 0 
L 2938 0 
L 2938 2094 
Q 2938 2591 2744 2837 
Q 2550 3084 2163 3084 
Q 1697 3084 1428 2787 
Q 1159 2491 1159 1978 
L 1159 0 
L 581 0 
L 581 4863 
L 1159 4863 
L 1159 2956 
Q 1366 3272 1645 3428 
Q 1925 3584 2291 3584 
Q 2894 3584 3203 3211 
Q 3513 2838 3513 2113 
z
" transform="scale(0.015625)"/>
      </defs>
      <use xlink:href="#DejaVuSans-41"/>
      <use xlink:href="#DejaVuSans-6e" transform="translate(68.408203 0)"/>
      <use xlink:href="#DejaVuSans-6e" transform="translate(131.787109 0)"/>
      <use xlink:href="#DejaVuSans-75" transform="translate(195.166016 0)"/>
      <use xlink:href="#DejaVuSans-61" transform="translate(258.544922 0)"/>
      <use xlink:href="#DejaVuSans-6c" transform="translate(319.824219 0)"/>
      <use xlink:href="#DejaVuSans-20" transform="translate(347.607422 0)"/>
      <use xlink:href="#DejaVuSans-45" transform="translate(379.394531 0)"/>
      <use xlink:href="#DejaVuSans-6e" transform="translate(442.578125 0)"/>
      <use xlink:href="#DejaVuSans-65" transform="translate(505.957031 0)"/>
      <use xlink:href="#DejaVuSans-72" transform="translate(567.480469 0)"/>
      <use xlink:href="#DejaVuSans-67" transform="translate(606.84375 0)"/>
      <use xlink:href="#DejaVuSans-79" transform="translate(670.320312 0)"/>
      <use xlink:href="#DejaVuSans-20" transform="translate(729.5 0)"/>
      <use xlink:href="#DejaVuSans-28" transform="translate(761.287109 0)"/>
      <use xlink:href="#DejaVuSans-4d" transform="translate(800.300781 0)"/>
      <use xlink:href="#DejaVuSans-57" transform="translate(886.580078 0)"/>
      <use xlink:href="#DejaVuSans-68" transform="translate(985.457031 0)"/>
      <use xlink:href="#DejaVuSans-2f" transform="translate(1048.835938 0)"/>
      <use xlink:href="#DejaVuSans-79" transform="translate(1082.527344 0)"/>
      <use xlink:href="#DejaVuSans-72" transform="translate(1141.707031 0)"/>
      <use xlink:href="#DejaVuSans-29" transform="translate(1182.820312 0)"/>
     </g>
    </g>
   </g>
   <g id="line2d_57">
    <path d="M 535.035378 304.671444 
L 542.524307 304.194116 
L 550.013237 303.675477 
L 557.502167 303.114194 
L 564.991096 302.508291 
L 572.480026 301.825373 
L 579.968956 301.112488 
L 587.457886 300.331345 
L 594.946815 299.521406 
L 602.435745 298.616586 
L 609.924675 297.638983 
L 617.413604 296.658346 
L 624.902534 295.56528 
L 632.391464 294.36196 
L 639.880393 293.106594 
L 647.369323 291.740829 
L 654.858253 290.347531 
L 662.347182 288.743919 
L 669.836112 287.027663 
L 677.325042 285.191126 
L 684.813972 283.377677 
L 692.302901 281.174652 
L 699.791831 279.136265 
L 707.280761 276.592254 
L 714.76969 273.999895 
L 722.25862 271.080733 
L 729.74755 268.143527 
L 737.236479 264.766483 
L 744.725409 261.370129 
L 752.214339 257.978177 
L 759.703268 253.720144 
L 767.192198 249.731888 
L 774.681128 244.156602 
L 782.170058 239.273901 
L 789.658987 234.513422 
L 797.147917 228.906075 
L 804.636847 222.846621 
L 812.125776 215.421513 
L 819.614706 208.51179 
L 827.103636 200.600444 
L 834.592565 192.560122 
L 842.081495 185.16843 
L 849.570425 175.815059 
L 857.059354 164.19661 
L 864.548284 153.781409 
L 872.037214 142.263132 
L 879.526143 129.216439 
L 887.015073 115.665704 
L 894.504003 104.093367 
L 901.992933 87.867687 
" clip-path="url(#p3d9e07ec4d)" style="fill: none; stroke: #ff7f0e; stroke-width: 2; stroke-linecap: square"/>
   </g>
   <g id="line2d_58">
    <path d="M 535.035378 304.674576 
L 542.524307 304.200221 
L 550.013237 303.681634 
L 557.502167 303.117293 
L 564.991096 302.505415 
L 572.480026 301.843923 
L 579.968956 301.13042 
L 587.457886 300.362161 
L 594.946815 299.536019 
L 602.435745 298.648463 
L 609.924675 297.695521 
L 617.413604 296.672755 
L 624.902534 295.575227 
L 632.391464 294.397469 
L 639.880393 293.133455 
L 647.369323 291.776562 
L 654.858253 290.319546 
L 662.347182 288.754506 
L 669.836112 287.072852 
L 677.325042 285.265273 
L 684.813972 283.321705 
L 692.302901 281.231293 
L 699.791831 278.982366 
L 707.280761 276.562396 
L 714.76969 273.957968 
L 722.25862 271.154742 
L 729.74755 268.137427 
L 737.236479 264.889735 
L 744.725409 261.394357 
L 752.214339 257.632921 
L 759.703268 253.585959 
L 767.192198 249.232875 
L 774.681128 244.551902 
L 782.170058 239.520074 
L 789.658987 234.113186 
L 797.147917 228.305758 
L 804.636847 222.071 
L 812.125776 215.380777 
L 819.614706 208.205567 
L 827.103636 200.51443 
L 834.592565 192.274968 
L 842.081495 183.45329 
L 849.570425 174.013972 
L 857.059354 163.920021 
L 864.548284 153.132838 
L 872.037214 141.61218 
L 879.526143 129.316121 
L 887.015073 116.201016 
L 894.504003 102.22146 
L 901.992933 87.330251 
" clip-path="url(#p3d9e07ec4d)" style="fill: none; stroke-dasharray: 7.4,3.2; stroke-dashoffset: 0; stroke: #d62728; stroke-width: 2"/>
   </g>
   <g id="patch_10">
    <path d="M 516.6875 318.04 
L 516.6875 26.16 
" style="fill: none; stroke: #000000; stroke-width: 0.8; stroke-linejoin: miter; stroke-linecap: square"/>
   </g>
   <g id="patch_11">
    <path d="M 920.34081 318.04 
L 920.34081 26.16 
" style="fill: none; stroke: #000000; stroke-width: 0.8; stroke-linejoin: miter; stroke-linecap: square"/>
   </g>
   <g id="patch_12">
    <path d="M 516.6875 318.04 
L 920.34081 318.04 
" style="fill: none; stroke: #000000; stroke-width: 0.8; stroke-linejoin: miter; stroke-linecap: square"/>
   </g>
   <g id="patch_13">
    <path d="M 516.6875 26.16 
L 920.34081 26.16 
" style="fill: none; stroke: #000000; stroke-width: 0.8; stroke-linejoin: miter; stroke-linecap: square"/>
   </g>
   <g id="text_35">
    <!-- Annual Energy: Deterministic vs Probabilistic -->
    <g transform="translate(584.36353 20.16) scale(0.12 -0.12)">
     <use xlink:href="#DejaVuSans-41"/>
     <use xlink:href="#DejaVuSans-6e" transform="translate(68.408203 0)"/>
     <use xlink:href="#DejaVuSans-6e" transform="translate(131.787109 0)"/>
     <use xlink:href="#DejaVuSans-75" transform="translate(195.166016 0)"/>
     <use xlink:href="#DejaVuSans-61" transform="translate(258.544922 0)"/>
     <use xlink:href="#DejaVuSans-6c" transform="translate(319.824219 0)"/>
     <use xlink:href="#DejaVuSans-20" transform="translate(347.607422 0)"/>
     <use xlink:href="#DejaVuSans-45" transform="translate(379.394531 0)"/>
     <use xlink:href="#DejaVuSans-6e" transform="translate(442.578125 0)"/>
     <use xlink:href="#DejaVuSans-65" transform="translate(505.957031 0)"/>
     <use xlink:href="#DejaVuSans-72" transform="translate(567.480469 0)"/>
     <use xlink:href="#DejaVuSans-67" transform="translate(606.84375 0)"/>
     <use xlink:href="#DejaVuSans-79" transform="translate(670.320312 0)"/>
     <use xlink:href="#DejaVuSans-3a" transform="translate(722.25 0)"/>
     <use xlink:href="#DejaVuSans-20" transform="translate(755.941406 0)"/>
     <use xlink:href="#DejaVuSans-44" transform="translate(787.728516 0)"/>
     <use xlink:href="#DejaVuSans-65" transform="translate(864.730469 0)"/>
     <use xlink:href="#DejaVuSans-74" transform="translate(926.253906 0)"/>
     <use xlink:href="#DejaVuSans-65" transform="translate(965.462891 0)"/>
     <use xlink:href="#DejaVuSans-72" transform="translate(1026.986328 0)"/>
     <use xlink:href="#DejaVuSans-6d" transform="translate(1066.349609 0)"/>
     <use xlink:href="#DejaVuSans-69" transform="translate(1163.761719 0)"/>
     <use xlink:href="#DejaVuSans-6e" transform="translate(1191.544922 0)"/>
     <use xlink:href="#DejaVuSans-69" transform="translate(1254.923828 0)"/>
     <use xlink:href="#DejaVuSans-73" transform="translate(1282.707031 0)"/>
     <use xlink:href="#DejaVuSans-74" transform="translate(1334.806641 0)"/>
     <use xlink:href="#DejaVuSans-69" transform="translate(1374.015625 0)"/>
     <use xlink:href="#DejaVuSans-63" transform="translate(1401.798828 0)"/>
     <use xlink:href="#DejaVuSans-20" transform="translate(1456.779297 0)"/>
     <use xlink:href="#DejaVuSans-76" transform="translate(1488.566406 0)"/>
     <use xlink:href="#DejaVuSans-73" transform="translate(1547.746094 0)"/>
     <use xlink:href="#DejaVuSans-20" transform="translate(1599.845703 0)"/>
     <use xlink:href="#DejaVuSans-50" transform="translate(1631.632812 0)"/>
     <use xlink:href="#DejaVuSans-72" transform="translate(1690.185547 0)"/>
     <use xlink:href="#DejaVuSans-6f" transform="translate(1729.048828 0)"/>
     <use xlink:href="#DejaVuSans-62" transform="translate(1790.230469 0)"/>
     <use xlink:href="#DejaVuSans-61" transform="translate(1853.707031 0)"/>
     <use xlink:href="#DejaVuSans-62" transform="translate(1914.986328 0)"/>
     <use xlink:href="#DejaVuSans-69" transform="translate(1978.462891 0)"/>
     <use xlink:href="#DejaVuSans-6c" transform="translate(2006.246094 0)"/>
     <use xlink:href="#DejaVuSans-69" transform="translate(2034.029297 0)"/>
     <use xlink:href="#DejaVuSans-73" transform="translate(2061.8125 0)"/>
     <use xlink:href="#DejaVuSans-74" transform="translate(2113.912109 0)"/>
     <use xlink:href="#DejaVuSans-69" transform="translate(2153.121094 0)"/>
     <use xlink:href="#DejaVuSans-63" transform="translate(2180.904297 0)"/>
    </g>
   </g>
   <g id="legend_2">
    <g id="patch_14">
     <path d="M 523.6875 78.194375 
L 662.295313 78.194375 
Q 664.295313 78.194375 664.295313 76.194375 
L 664.295313 33.16 
Q 664.295313 31.16 662.295313 31.16 
L 523.6875 31.16 
Q 521.6875 31.16 521.6875 33.16 
L 521.6875 76.194375 
Q 521.6875 78.194375 523.6875 78.194375 
z
" style="fill: #ffffff; opacity: 0.8; stroke: #cccccc; stroke-linejoin: miter"/>
    </g>
    <g id="patch_15">
     <path d="M 525.6875 42.758437 
L 545.6875 42.758437 
L 545.6875 35.758437 
L 525.6875 35.758437 
z
" style="fill: #ff7f0e; fill-opacity: 0.25; stroke: #ff7f0e; stroke-opacity: 0.25; stroke-linejoin: miter"/>
    </g>
    <g id="text_36">
     <!-- MCMC 10–90% range -->
     <g transform="translate(553.6875 42.758437) scale(0.1 -0.1)">
      <use xlink:href="#DejaVuSans-4d"/>
      <use xlink:href="#DejaVuSans-43" transform="translate(86.279297 0)"/>
      <use xlink:href="#DejaVuSans-4d" transform="translate(156.103516 0)"/>
      <use xlink:href="#DejaVuSans-43" transform="translate(242.382812 0)"/>
      <use xlink:href="#DejaVuSans-20" transform="translate(312.207031 0)"/>
      <use xlink:href="#DejaVuSans-31" transform="translate(343.994141 0)"/>
      <use xlink:href="#DejaVuSans-30" transform="translate(407.617188 0)"/>
      <use xlink:href="#DejaVuSans-2013" transform="translate(471.240234 0)"/>
      <use xlink:href="#DejaVuSans-39" transform="translate(521.240234 0)"/>
      <use xlink:href="#DejaVuSans-30" transform="translate(584.863281 0)"/>
      <use xlink:href="#DejaVuSans-25" transform="translate(648.486328 0)"/>
      <use xlink:href="#DejaVuSans-20" transform="translate(743.505859 0)"/>
      <use xlink:href="#DejaVuSans-72" transform="translate(775.292969 0)"/>
      <use xlink:href="#DejaVuSans-61" transform="translate(816.40625 0)"/>
      <use xlink:href="#DejaVuSans-6e" transform="translate(877.685547 0)"/>
      <use xlink:href="#DejaVuSans-67" transform="translate(941.064453 0)"/>
      <use xlink:href="#DejaVuSans-65" transform="translate(1004.541016 0)"/>
     </g>
    </g>
    <g id="line2d_59">
     <path d="M 525.6875 53.936562 
L 535.6875 53.936562 
L 545.6875 53.936562 
" style="fill: none; stroke: #ff7f0e; stroke-width: 2; stroke-linecap: square"/>
    </g>
    <g id="text_37">
     <!-- MCMC median -->
     <g transform="translate(553.6875 57.436562) scale(0.1 -0.1)">
      <use xlink:href="#DejaVuSans-4d"/>
      <use xlink:href="#DejaVuSans-43" transform="translate(86.279297 0)"/>
      <use xlink:href="#DejaVuSans-4d" transform="translate(156.103516 0)"/>
      <use xlink:href="#DejaVuSans-43" transform="translate(242.382812 0)"/>
      <use xlink:href="#DejaVuSans-20" transform="translate(312.207031 0)"/>
      <use xlink:href="#DejaVuSans-6d" transform="translate(343.994141 0)"/>
      <use xlink:href="#DejaVuSans-65" transform="translate(441.40625 0)"/>
      <use xlink:href="#DejaVuSans-64" transform="translate(502.929688 0)"/>
      <use xlink:href="#DejaVuSans-69" transform="translate(566.40625 0)"/>
      <use xlink:href="#DejaVuSans-61" transform="translate(594.189453 0)"/>
      <use xlink:href="#DejaVuSans-6e" transform="translate(655.46875 0)"/>
     </g>
    </g>
    <g id="line2d_60">
     <path d="M 525.6875 68.614687 
L 535.6875 68.614687 
L 545.6875 68.614687 
" style="fill: none; stroke-dasharray: 7.4,3.2; stroke-dashoffset: 0; stroke: #d62728; stroke-width: 2"/>
    </g>
    <g id="text_38">
     <!-- Deterministic (MAP) -->
     <g transform="translate(553.6875 72.114687) scale(0.1 -0.1)">
      <use xlink:href="#DejaVuSans-44"/>
      <use xlink:href="#DejaVuSans-65" transform="translate(77.001953 0)"/>
      <use xlink:href="#DejaVuSans-74" transform="translate(138.525391 0)"/>
      <use xlink:href="#DejaVuSans-65" transform="translate(177.734375 0)"/>
      <use xlink:href="#DejaVuSans-72" transform="translate(239.257812 0)"/>
      <use xlink:href="#DejaVuSans-6d" transform="translate(278.621094 0)"/>
      <use xlink:href="#DejaVuSans-69" transform="translate(376.033203 0)"/>
      <use xlink:href="#DejaVuSans-6e" transform="translate(403.816406 0)"/>
      <use xlink:href="#DejaVuSans-69" transform="translate(467.195312 0)"/>
      <use xlink:href="#DejaVuSans-73" transform="translate(494.978516 0)"/>
      <use xlink:href="#DejaVuSans-74" transform="translate(547.078125 0)"/>
      <use xlink:href="#DejaVuSans-69" transform="translate(586.287109 0)"/>
      <use xlink:href="#DejaVuSans-63" transform="translate(614.070312 0)"/>
      <use xlink:href="#DejaVuSans-20" transform="translate(669.050781 0)"/>
      <use xlink:href="#DejaVuSans-28" transform="translate(700.837891 0)"/>
      <use xlink:href="#DejaVuSans-4d" transform="translate(739.851562 0)"/>
      <use xlink:href="#DejaVuSans-41" transform="translate(826.130859 0)"/>
      <use xlink:href="#DejaVuSans-50" transform="translate(894.539062 0)"/>
      <use xlink:href="#DejaVuSans-29" transform="translate(954.841797 0)"/>
     </g>
    </g>
   </g>
  </g>
 </g>
 <defs>
  <clipPath id="pc8c9652599">
   <rect x="50.915" y="26.16" width="403.65331" height="291.88"/>
  </clipPath>
  <clipPath id="p3d9e07ec4d">
   <rect x="516.6875" y="26.16" width="403.65331" height="291.88"/>
  </clipPath>
 </defs>
</svg>
