<?xml version="1.0" encoding="utf-8" standalone="no"?>
<!DOCTYPE svg PUBLIC "-//W3C//DTD SVG 1.1//EN"
  "http://www.w3.org/Graphics/SVG/1.1/DTD/svg11.dtd">
<svg xmlns:xlink="http://www.w3.org/1999/xlink" width="936pt" height="360pt" viewBox="0 0 936 360" xmlns="http://www.w3.org/2000/svg" version="1.1">
 <metadata>
  <rdf:RDF xmlns:dc="http://purl.org/dc/elements/1.1/" xmlns:cc="http://creativecommons.org/ns#" xmlns:rdf="http://www.w3.org/1999/02/22-rdf-syntax-ns#">
   <cc:Work>
    <dc:type rdf:resource="http://purl.org/dc/dcmitype/StillImage"/>
    <dc:date>2026-03-22T21:11:44.949638</dc:date>
    <dc:format>image/svg+xml</dc:format>
    <dc:creator>
     <cc:Agent>
      <dc:title>Matplotlib v3.10.8, https://matplotlib.org/</dc:title>
     </cc:Agent>
    </dc:creator>
   </cc:Work>
  </rdf:RDF>
 </metadata>
 <defs>
  <style type="text/css">*{stroke-linejoin: round; stroke-linecap: butt}</style>
 </defs>
 <g id="figure_1">
  <g id="patch_1">
   <path d="M 0 360 
L 936 360 
L 936 0 
L 0 0 
z
" style="fill: #ffffff"/>
  </g>
  <g id="axes_1">
   <g id="patch_2">
    <path d="M 51.05 318.04 
L 379.06896 318.04 
L 379.06896 25.44 
L 51.05 25.44 
z
" style="fill: #ffffff"/>
   </g>
   <g id="QuadContourSet_1">
    <path d="M 57.744264 318.04 
L 64.438529 318.04 
L 71.132793 318.04 
L 77.827058 318.04 
L 84.521322 318.04 
L 91.215587 318.04 
L 97.909851 318.04 
L 104.604116 318.04 
L 111.29838 318.04 
L 117.992645 318.04 
L 124.686909 318.04 
L 131.381174 318.04 
L 138.075438 318.04 
L 144.769703 318.04 
L 151.463967 318.04 
L 158.158232 318.04 
L 164.852496 318.04 
L 171.546761 318.04 
L 178.241025 318.04 
L 184.93529 318.04 
L 191.629554 318.04 
L 198.323819 318.04 
L 205.018083 318.04 
L 211.712348 318.04 
L 218.406612 318.04 
L 225.100877 318.04 
L 231.795141 318.04 
L 238.489406 318.04 
L 245.18367 318.04 
L 251.877935 318.04 
L 258.572199 318.04 
L 265.266464 318.04 
L 271.960728 318.04 
L 278.654993 318.04 
L 285.349257 318.04 
L 292.043522 318.04 
L 298.737786 318.04 
L 305.432051 318.04 
L 312.126315 318.04 
L 318.82058 318.04 
L 325.514844 318.04 
L 332.209109 318.04 
L 338.903373 318.04 
L 345.597638 318.04 
L 352.291902 318.04 
L 358.986167 318.04 
L 365.680431 318.04 
L 372.374696 318.04 
L 379.06896 318.04 
L 379.06896 285.528889 
L 379.06896 253.017778 
L 379.06896 220.506667 
L 379.06896 187.995556 
L 379.06896 155.484444 
L 379.06896 122.973333 
L 379.06896 90.462222 
L 379.06896 85.043704 
L 375.721828 90.462222 
L 372.374696 106.717778 
L 369.027564 122.973333 
L 365.680431 139.228889 
L 358.986167 139.228889 
L 352.291902 150.065926 
L 345.597638 139.228889 
L 344.760855 155.484444 
L 338.903373 183.931667 
L 335.556241 187.995556 
L 332.209109 204.251111 
L 328.861977 187.995556 
L 325.514844 183.931667 
L 322.167712 187.995556 
L 318.82058 204.251111 
L 312.126315 204.251111 
L 305.432051 217.255556 
L 298.737786 217.255556 
L 295.390654 220.506667 
L 292.043522 236.762222 
L 285.349257 247.599259 
L 278.654993 249.766667 
L 271.960728 249.766667 
L 265.266464 249.766667 
L 261.919332 253.017778 
L 258.572199 269.273333 
L 251.877935 281.465 
L 245.18367 282.277778 
L 238.489406 282.277778 
L 231.795141 282.277778 
L 225.100877 282.277778 
L 218.406612 282.277778 
L 211.712348 282.277778 
L 205.018083 282.277778 
L 204.348657 285.528889 
L 198.323819 314.788889 
L 191.629554 314.788889 
L 184.93529 314.788889 
L 178.241025 314.788889 
L 171.546761 314.788889 
L 164.852496 314.788889 
L 158.158232 314.788889 
L 151.463967 314.788889 
L 144.769703 314.788889 
L 138.075438 314.788889 
L 131.381174 314.788889 
L 124.686909 314.788889 
L 117.992645 314.788889 
L 111.29838 314.788889 
L 104.604116 314.788889 
L 97.909851 314.788889 
L 91.215587 314.788889 
L 84.521322 314.788889 
L 77.827058 314.788889 
L 71.132793 314.788889 
L 64.438529 314.788889 
L 57.744264 314.788889 
L 54.397132 318.04 
z
" clip-path="url(#p781b649c14)" style="fill: #471365"/>
    <path d="M 57.744264 314.788889 
L 64.438529 314.788889 
L 71.132793 314.788889 
L 77.827058 314.788889 
L 84.521322 314.788889 
L 91.215587 314.788889 
L 97.909851 314.788889 
L 104.604116 314.788889 
L 111.29838 314.788889 
L 117.992645 314.788889 
L 124.686909 314.788889 
L 131.381174 314.788889 
L 138.075438 314.788889 
L 144.769703 314.788889 
L 151.463967 314.788889 
L 158.158232 314.788889 
L 164.852496 314.788889 
L 171.546761 314.788889 
L 178.241025 314.788889 
L 184.93529 314.788889 
L 191.629554 314.788889 
L 198.323819 314.788889 
L 204.348657 285.528889 
L 205.018083 282.277778 
L 211.712348 282.277778 
L 218.406612 282.277778 
L 225.100877 282.277778 
L 231.795141 282.277778 
L 238.489406 282.277778 
L 245.18367 282.277778 
L 251.877935 281.465 
L 258.572199 269.273333 
L 261.919332 253.017778 
L 265.266464 249.766667 
L 271.960728 249.766667 
L 278.654993 249.766667 
L 285.349257 247.599259 
L 292.043522 236.762222 
L 295.390654 220.506667 
L 298.737786 217.255556 
L 305.432051 217.255556 
L 312.126315 204.251111 
L 318.82058 204.251111 
L 322.167712 187.995556 
L 325.514844 183.931667 
L 328.861977 187.995556 
L 332.209109 204.251111 
L 335.556241 187.995556 
L 338.903373 183.931667 
L 344.760855 155.484444 
L 345.597638 139.228889 
L 352.291902 150.065926 
L 358.986167 139.228889 
L 365.680431 139.228889 
L 369.027564 122.973333 
L 372.374696 106.717778 
L 375.721828 90.462222 
L 379.06896 85.043704 
L 379.06896 79.625185 
L 372.374696 90.462222 
L 372.374696 90.462222 
L 365.680431 122.973333 
L 358.986167 122.973333 
L 358.986167 122.973333 
L 352.291902 144.647407 
L 345.597638 122.973333 
L 345.597638 122.973333 
L 345.597638 122.973333 
L 343.924072 155.484444 
L 338.903373 179.867778 
L 332.209109 187.995556 
L 325.514844 179.867778 
L 318.82058 187.995556 
L 312.126315 187.995556 
L 312.126315 187.995556 
L 305.432051 214.004444 
L 298.737786 214.004444 
L 292.043522 220.506667 
L 292.043522 220.506667 
L 285.349257 242.180741 
L 278.654993 246.515556 
L 271.960728 246.515556 
L 265.266464 246.515556 
L 258.572199 253.017778 
L 258.572199 253.017778 
L 251.877935 277.401111 
L 245.18367 279.026667 
L 238.489406 279.026667 
L 231.795141 279.026667 
L 225.100877 279.026667 
L 218.406612 279.026667 
L 211.712348 279.026667 
L 205.018083 279.026667 
L 203.679231 285.528889 
L 198.323819 311.537778 
L 191.629554 311.537778 
L 184.93529 311.537778 
L 178.241025 311.537778 
L 171.546761 311.537778 
L 164.852496 311.537778 
L 158.158232 311.537778 
L 151.463967 311.537778 
L 144.769703 311.537778 
L 138.075438 311.537778 
L 131.381174 311.537778 
L 124.686909 311.537778 
L 117.992645 311.537778 
L 111.29838 311.537778 
L 104.604116 311.537778 
L 97.909851 311.537778 
L 91.215587 311.537778 
L 84.521322 311.537778 
L 77.827058 311.537778 
L 71.132793 311.537778 
L 64.438529 311.537778 
L 57.744264 311.537778 
L 51.05 318.04 
L 51.05 318.04 
L 54.397132 318.04 
z
" clip-path="url(#p781b649c14)" style="fill: #463480"/>
    <path d="M 57.744264 311.537778 
L 64.438529 311.537778 
L 71.132793 311.537778 
L 77.827058 311.537778 
L 84.521322 311.537778 
L 91.215587 311.537778 
L 97.909851 311.537778 
L 104.604116 311.537778 
L 111.29838 311.537778 
L 117.992645 311.537778 
L 124.686909 311.537778 
L 131.381174 311.537778 
L 138.075438 311.537778 
L 144.769703 311.537778 
L 151.463967 311.537778 
L 158.158232 311.537778 
L 164.852496 311.537778 
L 171.546761 311.537778 
L 178.241025 311.537778 
L 184.93529 311.537778 
L 191.629554 311.537778 
L 198.323819 311.537778 
L 203.679231 285.528889 
L 205.018083 279.026667 
L 211.712348 279.026667 
L 218.406612 279.026667 
L 225.100877 279.026667 
L 231.795141 279.026667 
L 238.489406 279.026667 
L 245.18367 279.026667 
L 251.877935 277.401111 
L 258.572199 253.017778 
L 258.572199 253.017778 
L 265.266464 246.515556 
L 271.960728 246.515556 
L 278.654993 246.515556 
L 285.349257 242.180741 
L 292.043522 220.506667 
L 292.043522 220.506667 
L 298.737786 214.004444 
L 305.432051 214.004444 
L 312.126315 187.995556 
L 312.126315 187.995556 
L 318.82058 187.995556 
L 325.514844 179.867778 
L 332.209109 187.995556 
L 338.903373 179.867778 
L 343.924072 155.484444 
L 345.597638 122.973333 
L 345.597638 122.973333 
L 345.597638 122.973333 
L 352.291902 144.647407 
L 358.986167 122.973333 
L 358.986167 122.973333 
L 365.680431 122.973333 
L 372.374696 90.462222 
L 372.374696 90.462222 
L 379.06896 79.625185 
L 379.06896 74.206667 
L 372.374696 85.043704 
L 369.027564 90.462222 
L 365.680431 106.717778 
L 358.986167 117.554815 
L 357.312601 122.973333 
L 352.291902 139.228889 
L 347.271204 122.973333 
L 345.597638 117.554815 
L 344.760855 122.973333 
L 343.087289 155.484444 
L 338.903373 175.803889 
L 332.209109 182.577037 
L 325.514844 175.803889 
L 318.82058 183.931667 
L 312.126315 183.931667 
L 311.289532 187.995556 
L 305.432051 210.753333 
L 298.737786 210.753333 
L 292.043522 216.442778 
L 290.369956 220.506667 
L 285.349257 236.762222 
L 278.654993 243.264444 
L 271.960728 243.264444 
L 265.266464 243.264444 
L 258.572199 248.953889 
L 257.456489 253.017778 
L 251.877935 273.337222 
L 245.18367 275.775556 
L 238.489406 275.775556 
L 231.795141 275.775556 
L 225.100877 275.775556 
L 218.406612 275.775556 
L 211.712348 275.775556 
L 205.018083 275.775556 
L 203.009804 285.528889 
L 198.323819 308.286667 
L 191.629554 308.286667 
L 184.93529 308.286667 
L 178.241025 308.286667 
L 171.546761 308.286667 
L 164.852496 308.286667 
L 158.158232 308.286667 
L 151.463967 308.286667 
L 144.769703 308.286667 
L 138.075438 308.286667 
L 131.381174 308.286667 
L 124.686909 308.286667 
L 117.992645 308.286667 
L 111.29838 308.286667 
L 104.604116 308.286667 
L 97.909851 308.286667 
L 91.215587 308.286667 
L 84.521322 308.286667 
L 77.827058 308.286667 
L 71.132793 308.286667 
L 64.438529 308.286667 
L 57.744264 308.286667 
L 51.05 313.976111 
L 51.05 318.04 
z
" clip-path="url(#p781b649c14)" style="fill: #3b528b"/>
    <path d="M 57.744264 308.286667 
L 64.438529 308.286667 
L 71.132793 308.286667 
L 77.827058 308.286667 
L 84.521322 308.286667 
L 91.215587 308.286667 
L 97.909851 308.286667 
L 104.604116 308.286667 
L 111.29838 308.286667 
L 117.992645 308.286667 
L 124.686909 308.286667 
L 131.381174 308.286667 
L 138.075438 308.286667 
L 144.769703 308.286667 
L 151.463967 308.286667 
L 158.158232 308.286667 
L 164.852496 308.286667 
L 171.546761 308.286667 
L 178.241025 308.286667 
L 184.93529 308.286667 
L 191.629554 308.286667 
L 198.323819 308.286667 
L 203.009804 285.528889 
L 205.018083 275.775556 
L 211.712348 275.775556 
L 218.406612 275.775556 
L 225.100877 275.775556 
L 231.795141 275.775556 
L 238.489406 275.775556 
L 245.18367 275.775556 
L 251.877935 273.337222 
L 257.456489 253.017778 
L 258.572199 248.953889 
L 265.266464 243.264444 
L 271.960728 243.264444 
L 278.654993 243.264444 
L 285.349257 236.762222 
L 290.369956 220.506667 
L 292.043522 216.442778 
L 298.737786 210.753333 
L 305.432051 210.753333 
L 311.289532 187.995556 
L 312.126315 183.931667 
L 318.82058 183.931667 
L 325.514844 175.803889 
L 332.209109 182.577037 
L 338.903373 175.803889 
L 343.087289 155.484444 
L 344.760855 122.973333 
L 345.597638 117.554815 
L 347.271204 122.973333 
L 352.291902 139.228889 
L 357.312601 122.973333 
L 358.986167 117.554815 
L 365.680431 106.717778 
L 369.027564 90.462222 
L 372.374696 85.043704 
L 379.06896 74.206667 
L 379.06896 68.788148 
L 372.374696 79.625185 
L 365.680431 90.462222 
L 365.680431 90.462222 
L 358.986167 112.136296 
L 355.639035 122.973333 
L 352.291902 133.81037 
L 348.94477 122.973333 
L 345.597638 112.136296 
L 343.924072 122.973333 
L 342.250506 155.484444 
L 338.903373 171.74 
L 332.209109 177.158519 
L 325.514844 171.74 
L 318.82058 179.867778 
L 312.126315 179.867778 
L 310.452749 187.995556 
L 305.432051 207.502222 
L 298.737786 207.502222 
L 292.043522 212.378889 
L 288.69639 220.506667 
L 285.349257 231.343704 
L 278.654993 240.013333 
L 271.960728 240.013333 
L 265.266464 240.013333 
L 258.572199 244.89 
L 256.340778 253.017778 
L 251.877935 269.273333 
L 245.18367 272.524444 
L 238.489406 272.524444 
L 231.795141 272.524444 
L 225.100877 272.524444 
L 218.406612 272.524444 
L 211.712348 272.524444 
L 205.018083 272.524444 
L 202.340378 285.528889 
L 198.323819 305.035556 
L 191.629554 305.035556 
L 184.93529 305.035556 
L 178.241025 305.035556 
L 171.546761 305.035556 
L 164.852496 305.035556 
L 158.158232 305.035556 
L 151.463967 305.035556 
L 144.769703 305.035556 
L 138.075438 305.035556 
L 131.381174 305.035556 
L 124.686909 305.035556 
L 117.992645 305.035556 
L 111.29838 305.035556 
L 104.604116 305.035556 
L 97.909851 305.035556 
L 91.215587 305.035556 
L 84.521322 305.035556 
L 77.827058 305.035556 
L 71.132793 305.035556 
L 64.438529 305.035556 
L 57.744264 305.035556 
L 51.05 309.912222 
L 51.05 313.976111 
z
" clip-path="url(#p781b649c14)" style="fill: #2f6c8e"/>
    <path d="M 57.744264 305.035556 
L 64.438529 305.035556 
L 71.132793 305.035556 
L 77.827058 305.035556 
L 84.521322 305.035556 
L 91.215587 305.035556 
L 97.909851 305.035556 
L 104.604116 305.035556 
L 111.29838 305.035556 
L 117.992645 305.035556 
L 124.686909 305.035556 
L 131.381174 305.035556 
L 138.075438 305.035556 
L 144.769703 305.035556 
L 151.463967 305.035556 
L 158.158232 305.035556 
L 164.852496 305.035556 
L 171.546761 305.035556 
L 178.241025 305.035556 
L 184.93529 305.035556 
L 191.629554 305.035556 
L 198.323819 305.035556 
L 202.340378 285.528889 
L 205.018083 272.524444 
L 211.712348 272.524444 
L 218.406612 272.524444 
L 225.100877 272.524444 
L 231.795141 272.524444 
L 238.489406 272.524444 
L 245.18367 272.524444 
L 251.877935 269.273333 
L 256.340778 253.017778 
L 258.572199 244.89 
L 265.266464 240.013333 
L 271.960728 240.013333 
L 278.654993 240.013333 
L 285.349257 231.343704 
L 288.69639 220.506667 
L 292.043522 212.378889 
L 298.737786 207.502222 
L 305.432051 207.502222 
L 310.452749 187.995556 
L 312.126315 179.867778 
L 318.82058 179.867778 
L 325.514844 171.74 
L 332.209109 177.158519 
L 338.903373 171.74 
L 342.250506 155.484444 
L 343.924072 122.973333 
L 345.597638 112.136296 
L 348.94477 122.973333 
L 352.291902 133.81037 
L 355.639035 122.973333 
L 358.986167 112.136296 
L 365.680431 90.462222 
L 365.680431 90.462222 
L 372.374696 79.625185 
L 379.06896 68.788148 
L 379.06896 63.36963 
L 372.374696 74.206667 
L 365.680431 82.334444 
L 364.006865 90.462222 
L 358.986167 106.717778 
L 353.965469 122.973333 
L 352.291902 128.391852 
L 350.618336 122.973333 
L 345.597638 106.717778 
L 343.087289 122.973333 
L 341.413723 155.484444 
L 338.903373 167.676111 
L 332.209109 171.74 
L 325.514844 167.676111 
L 318.82058 175.803889 
L 312.126315 175.803889 
L 309.615966 187.995556 
L 305.432051 204.251111 
L 298.737786 204.251111 
L 292.043522 208.315 
L 287.022824 220.506667 
L 285.349257 225.925185 
L 278.654993 236.762222 
L 271.960728 236.762222 
L 265.266464 236.762222 
L 258.572199 240.826111 
L 255.225067 253.017778 
L 251.877935 265.209444 
L 245.18367 269.273333 
L 238.489406 269.273333 
L 231.795141 269.273333 
L 225.100877 269.273333 
L 218.406612 269.273333 
L 211.712348 269.273333 
L 205.018083 269.273333 
L 201.670951 285.528889 
L 198.323819 301.784444 
L 191.629554 301.784444 
L 184.93529 301.784444 
L 178.241025 301.784444 
L 171.546761 301.784444 
L 164.852496 301.784444 
L 158.158232 301.784444 
L 151.463967 301.784444 
L 144.769703 301.784444 
L 138.075438 301.784444 
L 131.381174 301.784444 
L 124.686909 301.784444 
L 117.992645 301.784444 
L 111.29838 301.784444 
L 104.604116 301.784444 
L 97.909851 301.784444 
L 91.215587 301.784444 
L 84.521322 301.784444 
L 77.827058 301.784444 
L 71.132793 301.784444 
L 64.438529 301.784444 
L 57.744264 301.784444 
L 51.05 305.848333 
L 51.05 309.912222 
z
" clip-path="url(#p781b649c14)" style="fill: #25848e"/>
    <path d="M 57.744264 301.784444 
L 64.438529 301.784444 
L 71.132793 301.784444 
L 77.827058 301.784444 
L 84.521322 301.784444 
L 91.215587 301.784444 
L 97.909851 301.784444 
L 104.604116 301.784444 
L 111.29838 301.784444 
L 117.992645 301.784444 
L 124.686909 301.784444 
L 131.381174 301.784444 
L 138.075438 301.784444 
L 144.769703 301.784444 
L 151.463967 301.784444 
L 158.158232 301.784444 
L 164.852496 301.784444 
L 171.546761 301.784444 
L 178.241025 301.784444 
L 184.93529 301.784444 
L 191.629554 301.784444 
L 198.323819 301.784444 
L 201.670951 285.528889 
L 205.018083 269.273333 
L 211.712348 269.273333 
L 218.406612 269.273333 
L 225.100877 269.273333 
L 231.795141 269.273333 
L 238.489406 269.273333 
L 245.18367 269.273333 
L 251.877935 265.209444 
L 255.225067 253.017778 
L 258.572199 240.826111 
L 265.266464 236.762222 
L 271.960728 236.762222 
L 278.654993 236.762222 
L 285.349257 225.925185 
L 287.022824 220.506667 
L 292.043522 208.315 
L 298.737786 204.251111 
L 305.432051 204.251111 
L 309.615966 187.995556 
L 312.126315 175.803889 
L 318.82058 175.803889 
L 325.514844 167.676111 
L 332.209109 171.74 
L 338.903373 167.676111 
L 341.413723 155.484444 
L 343.087289 122.973333 
L 345.597638 106.717778 
L 350.618336 122.973333 
L 352.291902 128.391852 
L 353.965469 122.973333 
L 358.986167 106.717778 
L 364.006865 90.462222 
L 365.680431 82.334444 
L 372.374696 74.206667 
L 379.06896 63.36963 
L 379.06896 57.951111 
L 379.06896 57.951111 
L 379.06896 57.951111 
L 372.374696 68.788148 
L 365.680431 74.206667 
L 362.333299 90.462222 
L 358.986167 101.299259 
L 352.291902 122.973333 
L 345.597638 101.299259 
L 342.250506 122.973333 
L 340.57694 155.484444 
L 338.903373 163.612222 
L 332.209109 166.321481 
L 325.514844 163.612222 
L 318.82058 171.74 
L 312.126315 171.74 
L 308.779183 187.995556 
L 305.432051 201 
L 298.737786 201 
L 292.043522 204.251111 
L 285.349257 220.506667 
L 285.349257 220.506667 
L 278.654993 233.511111 
L 271.960728 233.511111 
L 265.266464 233.511111 
L 258.572199 236.762222 
L 254.109356 253.017778 
L 251.877935 261.145556 
L 245.18367 266.022222 
L 238.489406 266.022222 
L 231.795141 266.022222 
L 225.100877 266.022222 
L 218.406612 266.022222 
L 211.712348 266.022222 
L 205.018083 266.022222 
L 201.001525 285.528889 
L 198.323819 298.533333 
L 191.629554 298.533333 
L 184.93529 298.533333 
L 178.241025 298.533333 
L 171.546761 298.533333 
L 164.852496 298.533333 
L 158.158232 298.533333 
L 151.463967 298.533333 
L 144.769703 298.533333 
L 138.075438 298.533333 
L 131.381174 298.533333 
L 124.686909 298.533333 
L 117.992645 298.533333 
L 111.29838 298.533333 
L 104.604116 298.533333 
L 97.909851 298.533333 
L 91.215587 298.533333 
L 84.521322 298.533333 
L 77.827058 298.533333 
L 71.132793 298.533333 
L 64.438529 298.533333 
L 57.744264 298.533333 
L 51.05 301.784444 
L 51.05 305.848333 
z
" clip-path="url(#p781b649c14)" style="fill: #1e9c89"/>
    <path d="M 57.744264 298.533333 
L 64.438529 298.533333 
L 71.132793 298.533333 
L 77.827058 298.533333 
L 84.521322 298.533333 
L 91.215587 298.533333 
L 97.909851 298.533333 
L 104.604116 298.533333 
L 111.29838 298.533333 
L 117.992645 298.533333 
L 124.686909 298.533333 
L 131.381174 298.533333 
L 138.075438 298.533333 
L 144.769703 298.533333 
L 151.463967 298.533333 
L 158.158232 298.533333 
L 164.852496 298.533333 
L 171.546761 298.533333 
L 178.241025 298.533333 
L 184.93529 298.533333 
L 191.629554 298.533333 
L 198.323819 298.533333 
L 201.001525 285.528889 
L 205.018083 266.022222 
L 211.712348 266.022222 
L 218.406612 266.022222 
L 225.100877 266.022222 
L 231.795141 266.022222 
L 238.489406 266.022222 
L 245.18367 266.022222 
L 251.877935 261.145556 
L 254.109356 253.017778 
L 258.572199 236.762222 
L 265.266464 233.511111 
L 271.960728 233.511111 
L 278.654993 233.511111 
L 285.349257 220.506667 
L 285.349257 220.506667 
L 292.043522 204.251111 
L 298.737786 201 
L 305.432051 201 
L 308.779183 187.995556 
L 312.126315 171.74 
L 318.82058 171.74 
L 325.514844 163.612222 
L 332.209109 166.321481 
L 338.903373 163.612222 
L 340.57694 155.484444 
L 342.250506 122.973333 
L 345.597638 101.299259 
L 352.291902 122.973333 
L 358.986167 101.299259 
L 362.333299 90.462222 
L 365.680431 74.206667 
L 372.374696 68.788148 
L 379.06896 57.951111 
L 379.06896 57.951111 
L 379.06896 49.823333 
L 375.721828 57.951111 
L 372.374696 63.36963 
L 365.680431 66.078889 
L 360.659733 90.462222 
L 358.986167 95.880741 
L 352.291902 114.845556 
L 345.597638 95.880741 
L 341.413723 122.973333 
L 339.740157 155.484444 
L 338.903373 159.548333 
L 332.209109 160.902963 
L 325.514844 159.548333 
L 318.82058 167.676111 
L 312.126315 167.676111 
L 307.9424 187.995556 
L 305.432051 197.748889 
L 298.737786 197.748889 
L 292.043522 200.187222 
L 285.349257 212.378889 
L 283.675691 220.506667 
L 278.654993 230.26 
L 271.960728 230.26 
L 265.266464 230.26 
L 258.572199 232.698333 
L 252.993646 253.017778 
L 251.877935 257.081667 
L 245.18367 262.771111 
L 238.489406 262.771111 
L 231.795141 262.771111 
L 225.100877 262.771111 
L 218.406612 262.771111 
L 211.712348 262.771111 
L 205.018083 262.771111 
L 200.332098 285.528889 
L 198.323819 295.282222 
L 191.629554 295.282222 
L 184.93529 295.282222 
L 178.241025 295.282222 
L 171.546761 295.282222 
L 164.852496 295.282222 
L 158.158232 295.282222 
L 151.463967 295.282222 
L 144.769703 295.282222 
L 138.075438 295.282222 
L 131.381174 295.282222 
L 124.686909 295.282222 
L 117.992645 295.282222 
L 111.29838 295.282222 
L 104.604116 295.282222 
L 97.909851 295.282222 
L 91.215587 295.282222 
L 84.521322 295.282222 
L 77.827058 295.282222 
L 71.132793 295.282222 
L 64.438529 295.282222 
L 57.744264 295.282222 
L 51.05 297.720556 
L 51.05 301.784444 
z
" clip-path="url(#p781b649c14)" style="fill: #2fb47c"/>
    <path d="M 57.744264 295.282222 
L 64.438529 295.282222 
L 71.132793 295.282222 
L 77.827058 295.282222 
L 84.521322 295.282222 
L 91.215587 295.282222 
L 97.909851 295.282222 
L 104.604116 295.282222 
L 111.29838 295.282222 
L 117.992645 295.282222 
L 124.686909 295.282222 
L 131.381174 295.282222 
L 138.075438 295.282222 
L 144.769703 295.282222 
L 151.463967 295.282222 
L 158.158232 295.282222 
L 164.852496 295.282222 
L 171.546761 295.282222 
L 178.241025 295.282222 
L 184.93529 295.282222 
L 191.629554 295.282222 
L 198.323819 295.282222 
L 200.332098 285.528889 
L 205.018083 262.771111 
L 211.712348 262.771111 
L 218.406612 262.771111 
L 225.100877 262.771111 
L 231.795141 262.771111 
L 238.489406 262.771111 
L 245.18367 262.771111 
L 251.877935 257.081667 
L 252.993646 253.017778 
L 258.572199 232.698333 
L 265.266464 230.26 
L 271.960728 230.26 
L 278.654993 230.26 
L 283.675691 220.506667 
L 285.349257 212.378889 
L 292.043522 200.187222 
L 298.737786 197.748889 
L 305.432051 197.748889 
L 307.9424 187.995556 
L 312.126315 167.676111 
L 318.82058 167.676111 
L 325.514844 159.548333 
L 332.209109 160.902963 
L 338.903373 159.548333 
L 339.740157 155.484444 
L 341.413723 122.973333 
L 345.597638 95.880741 
L 352.291902 114.845556 
L 358.986167 95.880741 
L 360.659733 90.462222 
L 365.680431 66.078889 
L 372.374696 63.36963 
L 375.721828 57.951111 
L 379.06896 49.823333 
L 379.06896 41.695556 
L 372.374696 57.951111 
L 365.680431 57.951111 
L 365.680431 57.951111 
L 358.986167 90.462222 
L 358.986167 90.462222 
L 352.291902 106.717778 
L 345.597638 90.462222 
L 345.597638 90.462222 
L 345.597638 90.462222 
L 340.57694 122.973333 
L 338.903373 155.484444 
L 332.209109 155.484444 
L 325.514844 155.484444 
L 325.514844 155.484444 
L 318.82058 163.612222 
L 312.126315 163.612222 
L 307.105617 187.995556 
L 305.432051 194.497778 
L 298.737786 194.497778 
L 292.043522 196.123333 
L 285.349257 204.251111 
L 282.002125 220.506667 
L 278.654993 227.008889 
L 271.960728 227.008889 
L 265.266464 227.008889 
L 258.572199 228.634444 
L 251.877935 253.017778 
L 251.877935 253.017778 
L 245.18367 259.52 
L 238.489406 259.52 
L 231.795141 259.52 
L 225.100877 259.52 
L 218.406612 259.52 
L 211.712348 259.52 
L 205.018083 259.52 
L 199.662672 285.528889 
L 198.323819 292.031111 
L 191.629554 292.031111 
L 184.93529 292.031111 
L 178.241025 292.031111 
L 171.546761 292.031111 
L 164.852496 292.031111 
L 158.158232 292.031111 
L 151.463967 292.031111 
L 144.769703 292.031111 
L 138.075438 292.031111 
L 131.381174 292.031111 
L 124.686909 292.031111 
L 117.992645 292.031111 
L 111.29838 292.031111 
L 104.604116 292.031111 
L 97.909851 292.031111 
L 91.215587 292.031111 
L 84.521322 292.031111 
L 77.827058 292.031111 
L 71.132793 292.031111 
L 64.438529 292.031111 
L 57.744264 292.031111 
L 51.05 293.656667 
L 51.05 297.720556 
z
" clip-path="url(#p781b649c14)" style="fill: #5ec962"/>
    <path d="M 57.744264 292.031111 
L 64.438529 292.031111 
L 71.132793 292.031111 
L 77.827058 292.031111 
L 84.521322 292.031111 
L 91.215587 292.031111 
L 97.909851 292.031111 
L 104.604116 292.031111 
L 111.29838 292.031111 
L 117.992645 292.031111 
L 124.686909 292.031111 
L 131.381174 292.031111 
L 138.075438 292.031111 
L 144.769703 292.031111 
L 151.463967 292.031111 
L 158.158232 292.031111 
L 164.852496 292.031111 
L 171.546761 292.031111 
L 178.241025 292.031111 
L 184.93529 292.031111 
L 191.629554 292.031111 
L 198.323819 292.031111 
L 199.662672 285.528889 
L 205.018083 259.52 
L 211.712348 259.52 
L 218.406612 259.52 
L 225.100877 259.52 
L 231.795141 259.52 
L 238.489406 259.52 
L 245.18367 259.52 
L 251.877935 253.017778 
L 251.877935 253.017778 
L 258.572199 228.634444 
L 265.266464 227.008889 
L 271.960728 227.008889 
L 278.654993 227.008889 
L 282.002125 220.506667 
L 285.349257 204.251111 
L 292.043522 196.123333 
L 298.737786 194.497778 
L 305.432051 194.497778 
L 307.105617 187.995556 
L 312.126315 163.612222 
L 318.82058 163.612222 
L 325.514844 155.484444 
L 325.514844 155.484444 
L 332.209109 155.484444 
L 338.903373 155.484444 
L 340.57694 122.973333 
L 345.597638 90.462222 
L 345.597638 90.462222 
L 345.597638 90.462222 
L 352.291902 106.717778 
L 358.986167 90.462222 
L 358.986167 90.462222 
L 365.680431 57.951111 
L 365.680431 57.951111 
L 372.374696 57.951111 
L 379.06896 41.695556 
L 379.06896 33.567778 
L 372.374696 41.695556 
L 365.680431 41.695556 
L 362.333299 57.951111 
L 358.986167 74.206667 
L 355.639035 90.462222 
L 352.291902 98.59 
L 348.94477 90.462222 
L 345.597638 74.206667 
L 342.250506 90.462222 
L 339.740157 122.973333 
L 338.903373 139.228889 
L 332.209109 139.228889 
L 325.514844 139.228889 
L 322.167712 155.484444 
L 318.82058 159.548333 
L 312.126315 159.548333 
L 306.268834 187.995556 
L 305.432051 191.246667 
L 298.737786 191.246667 
L 292.043522 192.059444 
L 285.349257 196.123333 
L 280.328559 220.506667 
L 278.654993 223.757778 
L 271.960728 223.757778 
L 265.266464 223.757778 
L 258.572199 224.570556 
L 251.877935 236.762222 
L 248.530803 253.017778 
L 245.18367 256.268889 
L 238.489406 256.268889 
L 231.795141 256.268889 
L 225.100877 256.268889 
L 218.406612 256.268889 
L 211.712348 256.268889 
L 205.018083 256.268889 
L 198.993245 285.528889 
L 198.323819 288.78 
L 191.629554 288.78 
L 184.93529 288.78 
L 178.241025 288.78 
L 171.546761 288.78 
L 164.852496 288.78 
L 158.158232 288.78 
L 151.463967 288.78 
L 144.769703 288.78 
L 138.075438 288.78 
L 131.381174 288.78 
L 124.686909 288.78 
L 117.992645 288.78 
L 111.29838 288.78 
L 104.604116 288.78 
L 97.909851 288.78 
L 91.215587 288.78 
L 84.521322 288.78 
L 77.827058 288.78 
L 71.132793 288.78 
L 64.438529 288.78 
L 57.744264 288.78 
L 51.05 289.592778 
L 51.05 293.656667 
z
" clip-path="url(#p781b649c14)" style="fill: #9bd93c"/>
    <path d="M 57.744264 288.78 
L 64.438529 288.78 
L 71.132793 288.78 
L 77.827058 288.78 
L 84.521322 288.78 
L 91.215587 288.78 
L 97.909851 288.78 
L 104.604116 288.78 
L 111.29838 288.78 
L 117.992645 288.78 
L 124.686909 288.78 
L 131.381174 288.78 
L 138.075438 288.78 
L 144.769703 288.78 
L 151.463967 288.78 
L 158.158232 288.78 
L 164.852496 288.78 
L 171.546761 288.78 
L 178.241025 288.78 
L 184.93529 288.78 
L 191.629554 288.78 
L 198.323819 288.78 
L 198.993245 285.528889 
L 205.018083 256.268889 
L 211.712348 256.268889 
L 218.406612 256.268889 
L 225.100877 256.268889 
L 231.795141 256.268889 
L 238.489406 256.268889 
L 245.18367 256.268889 
L 248.530803 253.017778 
L 251.877935 236.762222 
L 258.572199 224.570556 
L 265.266464 223.757778 
L 271.960728 223.757778 
L 278.654993 223.757778 
L 280.328559 220.506667 
L 285.349257 196.123333 
L 292.043522 192.059444 
L 298.737786 191.246667 
L 305.432051 191.246667 
L 306.268834 187.995556 
L 312.126315 159.548333 
L 318.82058 159.548333 
L 322.167712 155.484444 
L 325.514844 139.228889 
L 332.209109 139.228889 
L 338.903373 139.228889 
L 339.740157 122.973333 
L 342.250506 90.462222 
L 345.597638 74.206667 
L 348.94477 90.462222 
L 352.291902 98.59 
L 355.639035 90.462222 
L 358.986167 74.206667 
L 362.333299 57.951111 
L 365.680431 41.695556 
L 372.374696 41.695556 
L 379.06896 33.567778 
L 379.06896 25.44 
L 372.374696 25.44 
L 365.680431 25.44 
L 358.986167 25.44 
L 352.291902 25.44 
L 345.597638 25.44 
L 338.903373 25.44 
L 332.209109 25.44 
L 325.514844 25.44 
L 318.82058 25.44 
L 312.126315 25.44 
L 305.432051 25.44 
L 298.737786 25.44 
L 292.043522 25.44 
L 285.349257 25.44 
L 278.654993 25.44 
L 271.960728 25.44 
L 265.266464 25.44 
L 258.572199 25.44 
L 251.877935 25.44 
L 245.18367 25.44 
L 238.489406 25.44 
L 231.795141 25.44 
L 225.100877 25.44 
L 218.406612 25.44 
L 211.712348 25.44 
L 205.018083 25.44 
L 198.323819 25.44 
L 191.629554 25.44 
L 184.93529 25.44 
L 178.241025 25.44 
L 171.546761 25.44 
L 164.852496 25.44 
L 158.158232 25.44 
L 151.463967 25.44 
L 144.769703 25.44 
L 138.075438 25.44 
L 131.381174 25.44 
L 124.686909 25.44 
L 117.992645 25.44 
L 111.29838 25.44 
L 104.604116 25.44 
L 97.909851 25.44 
L 91.215587 25.44 
L 84.521322 25.44 
L 77.827058 25.44 
L 71.132793 25.44 
L 64.438529 25.44 
L 57.744264 25.44 
L 51.05 25.44 
L 51.05 57.951111 
L 51.05 90.462222 
L 51.05 122.973333 
L 51.05 155.484444 
L 51.05 187.995556 
L 51.05 220.506667 
L 51.05 253.017778 
L 51.05 285.528889 
L 51.05 289.592778 
z
" clip-path="url(#p781b649c14)" style="fill: #dfe318"/>
   </g>
   <g id="matplotlib.axis_1">
    <g id="xtick_1">
     <g id="line2d_1">
      <defs>
       <path id="m0709626128" d="M 0 0 
L 0 3.5 
" style="stroke: #000000; stroke-width: 0.8"/>
      </defs>
      <g>
       <use xlink:href="#m0709626128" x="101.631817" y="318.04" style="stroke: #000000; stroke-width: 0.8"/>
      </g>
     </g>
     <g id="text_1">
      <!-- 0.4 -->
      <g transform="translate(93.680254 332.638438) scale(0.1 -0.1)">
       <defs>
        <path id="DejaVuSans-30" d="M 2034 4250 
Q 1547 4250 1301 3770 
Q 1056 3291 1056 2328 
Q 1056 1369 1301 889 
Q 1547 409 2034 409 
Q 2525 409 2770 889 
Q 3016 1369 3016 2328 
Q 3016 3291 2770 3770 
Q 2525 4250 2034 4250 
z
M 2034 4750 
Q 2819 4750 3233 4129 
Q 3647 3509 3647 2328 
Q 3647 1150 3233 529 
Q 2819 -91 2034 -91 
Q 1250 -91 836 529 
Q 422 1150 422 2328 
Q 422 3509 836 4129 
Q 1250 4750 2034 4750 
z
" transform="scale(0.015625)"/>
        <path id="DejaVuSans-2e" d="M 684 794 
L 1344 794 
L 1344 0 
L 684 0 
L 684 794 
z
" transform="scale(0.015625)"/>
        <path id="DejaVuSans-34" d="M 2419 4116 
L 825 1625 
L 2419 1625 
L 2419 4116 
z
M 2253 4666 
L 3047 4666 
L 3047 1625 
L 3713 1625 
L 3713 1100 
L 3047 1100 
L 3047 0 
L 2419 0 
L 2419 1100 
L 313 1100 
L 313 1709 
L 2253 4666 
z
" transform="scale(0.015625)"/>
       </defs>
       <use xlink:href="#DejaVuSans-30"/>
       <use xlink:href="#DejaVuSans-2e" transform="translate(63.623047 0)"/>
       <use xlink:href="#DejaVuSans-34" transform="translate(95.410156 0)"/>
      </g>
     </g>
    </g>
    <g id="xtick_2">
     <g id="line2d_2">
      <g>
       <use xlink:href="#m0709626128" x="159.724621" y="318.04" style="stroke: #000000; stroke-width: 0.8"/>
      </g>
     </g>
     <g id="text_2">
      <!-- 0.6 -->
      <g transform="translate(151.773059 332.638438) scale(0.1 -0.1)">
       <defs>
        <path id="DejaVuSans-36" d="M 2113 2584 
Q 1688 2584 1439 2293 
Q 1191 2003 1191 1497 
Q 1191 994 1439 701 
Q 1688 409 2113 409 
Q 2538 409 2786 701 
Q 3034 994 3034 1497 
Q 3034 2003 2786 2293 
Q 2538 2584 2113 2584 
z
M 3366 4563 
L 3366 3988 
Q 3128 4100 2886 4159 
Q 2644 4219 2406 4219 
Q 1781 4219 1451 3797 
Q 1122 3375 1075 2522 
Q 1259 2794 1537 2939 
Q 1816 3084 2150 3084 
Q 2853 3084 3261 2657 
Q 3669 2231 3669 1497 
Q 3669 778 3244 343 
Q 2819 -91 2113 -91 
Q 1303 -91 875 529 
Q 447 1150 447 2328 
Q 447 3434 972 4092 
Q 1497 4750 2381 4750 
Q 2619 4750 2861 4703 
Q 3103 4656 3366 4563 
z
" transform="scale(0.015625)"/>
       </defs>
       <use xlink:href="#DejaVuSans-30"/>
       <use xlink:href="#DejaVuSans-2e" transform="translate(63.623047 0)"/>
       <use xlink:href="#DejaVuSans-36" transform="translate(95.410156 0)"/>
      </g>
     </g>
    </g>
    <g id="xtick_3">
     <g id="line2d_3">
      <g>
       <use xlink:href="#m0709626128" x="217.817426" y="318.04" style="stroke: #000000; stroke-width: 0.8"/>
      </g>
     </g>
     <g id="text_3">
      <!-- 0.8 -->
      <g transform="translate(209.865863 332.638438) scale(0.1 -0.1)">
       <defs>
        <path id="DejaVuSans-38" d="M 2034 2216 
Q 1584 2216 1326 1975 
Q 1069 1734 1069 1313 
Q 1069 891 1326 650 
Q 1584 409 2034 409 
Q 2484 409 2743 651 
Q 3003 894 3003 1313 
Q 3003 1734 2745 1975 
Q 2488 2216 2034 2216 
z
M 1403 2484 
Q 997 2584 770 2862 
Q 544 3141 544 3541 
Q 544 4100 942 4425 
Q 1341 4750 2034 4750 
Q 2731 4750 3128 4425 
Q 3525 4100 3525 3541 
Q 3525 3141 3298 2862 
Q 3072 2584 2669 2484 
Q 3125 2378 3379 2068 
Q 3634 1759 3634 1313 
Q 3634 634 3220 271 
Q 2806 -91 2034 -91 
Q 1263 -91 848 271 
Q 434 634 434 1313 
Q 434 1759 690 2068 
Q 947 2378 1403 2484 
z
M 1172 3481 
Q 1172 3119 1398 2916 
Q 1625 2713 2034 2713 
Q 2441 2713 2670 2916 
Q 2900 3119 2900 3481 
Q 2900 3844 2670 4047 
Q 2441 4250 2034 4250 
Q 1625 4250 1398 4047 
Q 1172 3844 1172 3481 
z
" transform="scale(0.015625)"/>
       </defs>
       <use xlink:href="#DejaVuSans-30"/>
       <use xlink:href="#DejaVuSans-2e" transform="translate(63.623047 0)"/>
       <use xlink:href="#DejaVuSans-38" transform="translate(95.410156 0)"/>
      </g>
     </g>
    </g>
    <g id="xtick_4">
     <g id="line2d_4">
      <g>
       <use xlink:href="#m0709626128" x="275.91023" y="318.04" style="stroke: #000000; stroke-width: 0.8"/>
      </g>
     </g>
     <g id="text_4">
      <!-- 1.0 -->
      <g transform="translate(267.958668 332.638438) scale(0.1 -0.1)">
       <defs>
        <path id="DejaVuSans-31" d="M 794 531 
L 1825 531 
L 1825 4091 
L 703 3866 
L 703 4441 
L 1819 4666 
L 2450 4666 
L 2450 531 
L 3481 531 
L 3481 0 
L 794 0 
L 794 531 
z
" transform="scale(0.015625)"/>
       </defs>
       <use xlink:href="#DejaVuSans-31"/>
       <use xlink:href="#DejaVuSans-2e" transform="translate(63.623047 0)"/>
       <use xlink:href="#DejaVuSans-30" transform="translate(95.410156 0)"/>
      </g>
     </g>
    </g>
    <g id="xtick_5">
     <g id="line2d_5">
      <g>
       <use xlink:href="#m0709626128" x="334.003035" y="318.04" style="stroke: #000000; stroke-width: 0.8"/>
      </g>
     </g>
     <g id="text_5">
      <!-- 1.2 -->
      <g transform="translate(326.051472 332.638438) scale(0.1 -0.1)">
       <defs>
        <path id="DejaVuSans-32" d="M 1228 531 
L 3431 531 
L 3431 0 
L 469 0 
L 469 531 
Q 828 903 1448 1529 
Q 2069 2156 2228 2338 
Q 2531 2678 2651 2914 
Q 2772 3150 2772 3378 
Q 2772 3750 2511 3984 
Q 2250 4219 1831 4219 
Q 1534 4219 1204 4116 
Q 875 4013 500 3803 
L 500 4441 
Q 881 4594 1212 4672 
Q 1544 4750 1819 4750 
Q 2544 4750 2975 4387 
Q 3406 4025 3406 3419 
Q 3406 3131 3298 2873 
Q 3191 2616 2906 2266 
Q 2828 2175 2409 1742 
Q 1991 1309 1228 531 
z
" transform="scale(0.015625)"/>
       </defs>
       <use xlink:href="#DejaVuSans-31"/>
       <use xlink:href="#DejaVuSans-2e" transform="translate(63.623047 0)"/>
       <use xlink:href="#DejaVuSans-32" transform="translate(95.410156 0)"/>
      </g>
     </g>
    </g>
    <g id="text_6">
     <!-- Production Rate (million m^3/yr) -->
     <g transform="translate(132.733699 346.316563) scale(0.1 -0.1)">
      <defs>
       <path id="DejaVuSans-50" d="M 1259 4147 
L 1259 2394 
L 2053 2394 
Q 2494 2394 2734 2622 
Q 2975 2850 2975 3272 
Q 2975 3691 2734 3919 
Q 2494 4147 2053 4147 
L 1259 4147 
z
M 628 4666 
L 2053 4666 
Q 2838 4666 3239 4311 
Q 3641 3956 3641 3272 
Q 3641 2581 3239 2228 
Q 2838 1875 2053 1875 
L 1259 1875 
L 1259 0 
L 628 0 
L 628 4666 
z
" transform="scale(0.015625)"/>
       <path id="DejaVuSans-72" d="M 2631 2963 
Q 2534 3019 2420 3045 
Q 2306 3072 2169 3072 
Q 1681 3072 1420 2755 
Q 1159 2438 1159 1844 
L 1159 0 
L 581 0 
L 581 3500 
L 1159 3500 
L 1159 2956 
Q 1341 3275 1631 3429 
Q 1922 3584 2338 3584 
Q 2397 3584 2469 3576 
Q 2541 3569 2628 3553 
L 2631 2963 
z
" transform="scale(0.015625)"/>
       <path id="DejaVuSans-6f" d="M 1959 3097 
Q 1497 3097 1228 2736 
Q 959 2375 959 1747 
Q 959 1119 1226 758 
Q 1494 397 1959 397 
Q 2419 397 2687 759 
Q 2956 1122 2956 1747 
Q 2956 2369 2687 2733 
Q 2419 3097 1959 3097 
z
M 1959 3584 
Q 2709 3584 3137 3096 
Q 3566 2609 3566 1747 
Q 3566 888 3137 398 
Q 2709 -91 1959 -91 
Q 1206 -91 779 398 
Q 353 888 353 1747 
Q 353 2609 779 3096 
Q 1206 3584 1959 3584 
z
" transform="scale(0.015625)"/>
       <path id="DejaVuSans-64" d="M 2906 2969 
L 2906 4863 
L 3481 4863 
L 3481 0 
L 2906 0 
L 2906 525 
Q 2725 213 2448 61 
Q 2172 -91 1784 -91 
Q 1150 -91 751 415 
Q 353 922 353 1747 
Q 353 2572 751 3078 
Q 1150 3584 1784 3584 
Q 2172 3584 2448 3432 
Q 2725 3281 2906 2969 
z
M 947 1747 
Q 947 1113 1208 752 
Q 1469 391 1925 391 
Q 2381 391 2643 752 
Q 2906 1113 2906 1747 
Q 2906 2381 2643 2742 
Q 2381 3103 1925 3103 
Q 1469 3103 1208 2742 
Q 947 2381 947 1747 
z
" transform="scale(0.015625)"/>
       <path id="DejaVuSans-75" d="M 544 1381 
L 544 3500 
L 1119 3500 
L 1119 1403 
Q 1119 906 1312 657 
Q 1506 409 1894 409 
Q 2359 409 2629 706 
Q 2900 1003 2900 1516 
L 2900 3500 
L 3475 3500 
L 3475 0 
L 2900 0 
L 2900 538 
Q 2691 219 2414 64 
Q 2138 -91 1772 -91 
Q 1169 -91 856 284 
Q 544 659 544 1381 
z
M 1991 3584 
L 1991 3584 
z
" transform="scale(0.015625)"/>
       <path id="DejaVuSans-63" d="M 3122 3366 
L 3122 2828 
Q 2878 2963 2633 3030 
Q 2388 3097 2138 3097 
Q 1578 3097 1268 2742 
Q 959 2388 959 1747 
Q 959 1106 1268 751 
Q 1578 397 2138 397 
Q 2388 397 2633 464 
Q 2878 531 3122 666 
L 3122 134 
Q 2881 22 2623 -34 
Q 2366 -91 2075 -91 
Q 1284 -91 818 406 
Q 353 903 353 1747 
Q 353 2603 823 3093 
Q 1294 3584 2113 3584 
Q 2378 3584 2631 3529 
Q 2884 3475 3122 3366 
z
" transform="scale(0.015625)"/>
       <path id="DejaVuSans-74" d="M 1172 4494 
L 1172 3500 
L 2356 3500 
L 2356 3053 
L 1172 3053 
L 1172 1153 
Q 1172 725 1289 603 
Q 1406 481 1766 481 
L 2356 481 
L 2356 0 
L 1766 0 
Q 1100 0 847 248 
Q 594 497 594 1153 
L 594 3053 
L 172 3053 
L 172 3500 
L 594 3500 
L 594 4494 
L 1172 4494 
z
" transform="scale(0.015625)"/>
       <path id="DejaVuSans-69" d="M 603 3500 
L 1178 3500 
L 1178 0 
L 603 0 
L 603 3500 
z
M 603 4863 
L 1178 4863 
L 1178 4134 
L 603 4134 
L 603 4863 
z
" transform="scale(0.015625)"/>
       <path id="DejaVuSans-6e" d="M 3513 2113 
L 3513 0 
L 2938 0 
L 2938 2094 
Q 2938 2591 2744 2837 
Q 2550 3084 2163 3084 
Q 1697 3084 1428 2787 
Q 1159 2491 1159 1978 
L 1159 0 
L 581 0 
L 581 3500 
L 1159 3500 
L 1159 2956 
Q 1366 3272 1645 3428 
Q 1925 3584 2291 3584 
Q 2894 3584 3203 3211 
Q 3513 2838 3513 2113 
z
" transform="scale(0.015625)"/>
       <path id="DejaVuSans-20" transform="scale(0.015625)"/>
       <path id="DejaVuSans-52" d="M 2841 2188 
Q 3044 2119 3236 1894 
Q 3428 1669 3622 1275 
L 4263 0 
L 3584 0 
L 2988 1197 
Q 2756 1666 2539 1819 
Q 2322 1972 1947 1972 
L 1259 1972 
L 1259 0 
L 628 0 
L 628 4666 
L 2053 4666 
Q 2853 4666 3247 4331 
Q 3641 3997 3641 3322 
Q 3641 2881 3436 2590 
Q 3231 2300 2841 2188 
z
M 1259 4147 
L 1259 2491 
L 2053 2491 
Q 2509 2491 2742 2702 
Q 2975 2913 2975 3322 
Q 2975 3731 2742 3939 
Q 2509 4147 2053 4147 
L 1259 4147 
z
" transform="scale(0.015625)"/>
       <path id="DejaVuSans-61" d="M 2194 1759 
Q 1497 1759 1228 1600 
Q 959 1441 959 1056 
Q 959 750 1161 570 
Q 1363 391 1709 391 
Q 2188 391 2477 730 
Q 2766 1069 2766 1631 
L 2766 1759 
L 2194 1759 
z
M 3341 1997 
L 3341 0 
L 2766 0 
L 2766 531 
Q 2569 213 2275 61 
Q 1981 -91 1556 -91 
Q 1019 -91 701 211 
Q 384 513 384 1019 
Q 384 1609 779 1909 
Q 1175 2209 1959 2209 
L 2766 2209 
L 2766 2266 
Q 2766 2663 2505 2880 
Q 2244 3097 1772 3097 
Q 1472 3097 1187 3025 
Q 903 2953 641 2809 
L 641 3341 
Q 956 3463 1253 3523 
Q 1550 3584 1831 3584 
Q 2591 3584 2966 3190 
Q 3341 2797 3341 1997 
z
" transform="scale(0.015625)"/>
       <path id="DejaVuSans-65" d="M 3597 1894 
L 3597 1613 
L 953 1613 
Q 991 1019 1311 708 
Q 1631 397 2203 397 
Q 2534 397 2845 478 
Q 3156 559 3463 722 
L 3463 178 
Q 3153 47 2828 -22 
Q 2503 -91 2169 -91 
Q 1331 -91 842 396 
Q 353 884 353 1716 
Q 353 2575 817 3079 
Q 1281 3584 2069 3584 
Q 2775 3584 3186 3129 
Q 3597 2675 3597 1894 
z
M 3022 2063 
Q 3016 2534 2758 2815 
Q 2500 3097 2075 3097 
Q 1594 3097 1305 2825 
Q 1016 2553 972 2059 
L 3022 2063 
z
" transform="scale(0.015625)"/>
       <path id="DejaVuSans-28" d="M 1984 4856 
Q 1566 4138 1362 3434 
Q 1159 2731 1159 2009 
Q 1159 1288 1364 580 
Q 1569 -128 1984 -844 
L 1484 -844 
Q 1016 -109 783 600 
Q 550 1309 550 2009 
Q 550 2706 781 3412 
Q 1013 4119 1484 4856 
L 1984 4856 
z
" transform="scale(0.015625)"/>
       <path id="DejaVuSans-6d" d="M 3328 2828 
Q 3544 3216 3844 3400 
Q 4144 3584 4550 3584 
Q 5097 3584 5394 3201 
Q 5691 2819 5691 2113 
L 5691 0 
L 5113 0 
L 5113 2094 
Q 5113 2597 4934 2840 
Q 4756 3084 4391 3084 
Q 3944 3084 3684 2787 
Q 3425 2491 3425 1978 
L 3425 0 
L 2847 0 
L 2847 2094 
Q 2847 2600 2669 2842 
Q 2491 3084 2119 3084 
Q 1678 3084 1418 2786 
Q 1159 2488 1159 1978 
L 1159 0 
L 581 0 
L 581 3500 
L 1159 3500 
L 1159 2956 
Q 1356 3278 1631 3431 
Q 1906 3584 2284 3584 
Q 2666 3584 2933 3390 
Q 3200 3197 3328 2828 
z
" transform="scale(0.015625)"/>
       <path id="DejaVuSans-6c" d="M 603 4863 
L 1178 4863 
L 1178 0 
L 603 0 
L 603 4863 
z
" transform="scale(0.015625)"/>
       <path id="DejaVuSans-5e" d="M 2988 4666 
L 4684 2925 
L 4056 2925 
L 2681 4159 
L 1306 2925 
L 678 2925 
L 2375 4666 
L 2988 4666 
z
" transform="scale(0.015625)"/>
       <path id="DejaVuSans-33" d="M 2597 2516 
Q 3050 2419 3304 2112 
Q 3559 1806 3559 1356 
Q 3559 666 3084 287 
Q 2609 -91 1734 -91 
Q 1441 -91 1130 -33 
Q 819 25 488 141 
L 488 750 
Q 750 597 1062 519 
Q 1375 441 1716 441 
Q 2309 441 2620 675 
Q 2931 909 2931 1356 
Q 2931 1769 2642 2001 
Q 2353 2234 1838 2234 
L 1294 2234 
L 1294 2753 
L 1863 2753 
Q 2328 2753 2575 2939 
Q 2822 3125 2822 3475 
Q 2822 3834 2567 4026 
Q 2313 4219 1838 4219 
Q 1578 4219 1281 4162 
Q 984 4106 628 3988 
L 628 4550 
Q 988 4650 1302 4700 
Q 1616 4750 1894 4750 
Q 2613 4750 3031 4423 
Q 3450 4097 3450 3541 
Q 3450 3153 3228 2886 
Q 3006 2619 2597 2516 
z
" transform="scale(0.015625)"/>
       <path id="DejaVuSans-2f" d="M 1625 4666 
L 2156 4666 
L 531 -594 
L 0 -594 
L 1625 4666 
z
" transform="scale(0.015625)"/>
       <path id="DejaVuSans-79" d="M 2059 -325 
Q 1816 -950 1584 -1140 
Q 1353 -1331 966 -1331 
L 506 -1331 
L 506 -850 
L 844 -850 
Q 1081 -850 1212 -737 
Q 1344 -625 1503 -206 
L 1606 56 
L 191 3500 
L 800 3500 
L 1894 763 
L 2988 3500 
L 3597 3500 
L 2059 -325 
z
" transform="scale(0.015625)"/>
       <path id="DejaVuSans-29" d="M 513 4856 
L 1013 4856 
Q 1481 4119 1714 3412 
Q 1947 2706 1947 2009 
Q 1947 1309 1714 600 
Q 1481 -109 1013 -844 
L 513 -844 
Q 928 -128 1133 580 
Q 1338 1288 1338 2009 
Q 1338 2731 1133 3434 
Q 928 4138 513 4856 
z
" transform="scale(0.015625)"/>
      </defs>
      <use xlink:href="#DejaVuSans-50"/>
      <use xlink:href="#DejaVuSans-72" transform="translate(58.552734 0)"/>
      <use xlink:href="#DejaVuSans-6f" transform="translate(97.416016 0)"/>
      <use xlink:href="#DejaVuSans-64" transform="translate(158.597656 0)"/>
      <use xlink:href="#DejaVuSans-75" transform="translate(222.074219 0)"/>
      <use xlink:href="#DejaVuSans-63" transform="translate(285.453125 0)"/>
      <use xlink:href="#DejaVuSans-74" transform="translate(340.433594 0)"/>
      <use xlink:href="#DejaVuSans-69" transform="translate(379.642578 0)"/>
      <use xlink:href="#DejaVuSans-6f" transform="translate(407.425781 0)"/>
      <use xlink:href="#DejaVuSans-6e" transform="translate(468.607422 0)"/>
      <use xlink:href="#DejaVuSans-20" transform="translate(531.986328 0)"/>
      <use xlink:href="#DejaVuSans-52" transform="translate(563.773438 0)"/>
      <use xlink:href="#DejaVuSans-61" transform="translate(631.005859 0)"/>
      <use xlink:href="#DejaVuSans-74" transform="translate(692.285156 0)"/>
      <use xlink:href="#DejaVuSans-65" transform="translate(731.494141 0)"/>
      <use xlink:href="#DejaVuSans-20" transform="translate(793.017578 0)"/>
      <use xlink:href="#DejaVuSans-28" transform="translate(824.804688 0)"/>
      <use xlink:href="#DejaVuSans-6d" transform="translate(863.818359 0)"/>
      <use xlink:href="#DejaVuSans-69" transform="translate(961.230469 0)"/>
      <use xlink:href="#DejaVuSans-6c" transform="translate(989.013672 0)"/>
      <use xlink:href="#DejaVuSans-6c" transform="translate(1016.796875 0)"/>
      <use xlink:href="#DejaVuSans-69" transform="translate(1044.580078 0)"/>
      <use xlink:href="#DejaVuSans-6f" transform="translate(1072.363281 0)"/>
      <use xlink:href="#DejaVuSans-6e" transform="translate(1133.544922 0)"/>
      <use xlink:href="#DejaVuSans-20" transform="translate(1196.923828 0)"/>
      <use xlink:href="#DejaVuSans-6d" transform="translate(1228.710938 0)"/>
      <use xlink:href="#DejaVuSans-5e" transform="translate(1326.123047 0)"/>
      <use xlink:href="#DejaVuSans-33" transform="translate(1409.912109 0)"/>
      <use xlink:href="#DejaVuSans-2f" transform="translate(1473.535156 0)"/>
      <use xlink:href="#DejaVuSans-79" transform="translate(1507.226562 0)"/>
      <use xlink:href="#DejaVuSans-72" transform="translate(1566.40625 0)"/>
      <use xlink:href="#DejaVuSans-29" transform="translate(1607.519531 0)"/>
     </g>
    </g>
   </g>
   <g id="matplotlib.axis_2">
    <g id="ytick_1">
     <g id="line2d_6">
      <defs>
       <path id="m6b3a9e09ba" d="M 0 0 
L -3.5 0 
" style="stroke: #000000; stroke-width: 0.8"/>
      </defs>
      <g>
       <use xlink:href="#m6b3a9e09ba" x="51.05" y="288.087713" style="stroke: #000000; stroke-width: 0.8"/>
      </g>
     </g>
     <g id="text_7">
      <!-- 25 -->
      <g transform="translate(31.325 291.886932) scale(0.1 -0.1)">
       <defs>
        <path id="DejaVuSans-35" d="M 691 4666 
L 3169 4666 
L 3169 4134 
L 1269 4134 
L 1269 2991 
Q 1406 3038 1543 3061 
Q 1681 3084 1819 3084 
Q 2600 3084 3056 2656 
Q 3513 2228 3513 1497 
Q 3513 744 3044 326 
Q 2575 -91 1722 -91 
Q 1428 -91 1123 -41 
Q 819 9 494 109 
L 494 744 
Q 775 591 1075 516 
Q 1375 441 1709 441 
Q 2250 441 2565 725 
Q 2881 1009 2881 1497 
Q 2881 1984 2565 2268 
Q 2250 2553 1709 2553 
Q 1456 2553 1204 2497 
Q 953 2441 691 2322 
L 691 4666 
z
" transform="scale(0.015625)"/>
       </defs>
       <use xlink:href="#DejaVuSans-32"/>
       <use xlink:href="#DejaVuSans-35" transform="translate(63.623047 0)"/>
      </g>
     </g>
    </g>
    <g id="ytick_2">
     <g id="line2d_7">
      <g>
       <use xlink:href="#m6b3a9e09ba" x="51.05" y="255.131646" style="stroke: #000000; stroke-width: 0.8"/>
      </g>
     </g>
     <g id="text_8">
      <!-- 50 -->
      <g transform="translate(31.325 258.930864) scale(0.1 -0.1)">
       <use xlink:href="#DejaVuSans-35"/>
       <use xlink:href="#DejaVuSans-30" transform="translate(63.623047 0)"/>
      </g>
     </g>
    </g>
    <g id="ytick_3">
     <g id="line2d_8">
      <g>
       <use xlink:href="#m6b3a9e09ba" x="51.05" y="222.175578" style="stroke: #000000; stroke-width: 0.8"/>
      </g>
     </g>
     <g id="text_9">
      <!-- 75 -->
      <g transform="translate(31.325 225.974797) scale(0.1 -0.1)">
       <defs>
        <path id="DejaVuSans-37" d="M 525 4666 
L 3525 4666 
L 3525 4397 
L 1831 0 
L 1172 0 
L 2766 4134 
L 525 4134 
L 525 4666 
z
" transform="scale(0.015625)"/>
       </defs>
       <use xlink:href="#DejaVuSans-37"/>
       <use xlink:href="#DejaVuSans-35" transform="translate(63.623047 0)"/>
      </g>
     </g>
    </g>
    <g id="ytick_4">
     <g id="line2d_9">
      <g>
       <use xlink:href="#m6b3a9e09ba" x="51.05" y="189.21951" style="stroke: #000000; stroke-width: 0.8"/>
      </g>
     </g>
     <g id="text_10">
      <!-- 100 -->
      <g transform="translate(24.9625 193.018729) scale(0.1 -0.1)">
       <use xlink:href="#DejaVuSans-31"/>
       <use xlink:href="#DejaVuSans-30" transform="translate(63.623047 0)"/>
       <use xlink:href="#DejaVuSans-30" transform="translate(127.246094 0)"/>
      </g>
     </g>
    </g>
    <g id="ytick_5">
     <g id="line2d_10">
      <g>
       <use xlink:href="#m6b3a9e09ba" x="51.05" y="156.263443" style="stroke: #000000; stroke-width: 0.8"/>
      </g>
     </g>
     <g id="text_11">
      <!-- 125 -->
      <g transform="translate(24.9625 160.062661) scale(0.1 -0.1)">
       <use xlink:href="#DejaVuSans-31"/>
       <use xlink:href="#DejaVuSans-32" transform="translate(63.623047 0)"/>
       <use xlink:href="#DejaVuSans-35" transform="translate(127.246094 0)"/>
      </g>
     </g>
    </g>
    <g id="ytick_6">
     <g id="line2d_11">
      <g>
       <use xlink:href="#m6b3a9e09ba" x="51.05" y="123.307375" style="stroke: #000000; stroke-width: 0.8"/>
      </g>
     </g>
     <g id="text_12">
      <!-- 150 -->
      <g transform="translate(24.9625 127.106594) scale(0.1 -0.1)">
       <use xlink:href="#DejaVuSans-31"/>
       <use xlink:href="#DejaVuSans-35" transform="translate(63.623047 0)"/>
       <use xlink:href="#DejaVuSans-30" transform="translate(127.246094 0)"/>
      </g>
     </g>
    </g>
    <g id="ytick_7">
     <g id="line2d_12">
      <g>
       <use xlink:href="#m6b3a9e09ba" x="51.05" y="90.351307" style="stroke: #000000; stroke-width: 0.8"/>
      </g>
     </g>
     <g id="text_13">
      <!-- 175 -->
      <g transform="translate(24.9625 94.150526) scale(0.1 -0.1)">
       <use xlink:href="#DejaVuSans-31"/>
       <use xlink:href="#DejaVuSans-37" transform="translate(63.623047 0)"/>
       <use xlink:href="#DejaVuSans-35" transform="translate(127.246094 0)"/>
      </g>
     </g>
    </g>
    <g id="ytick_8">
     <g id="line2d_13">
      <g>
       <use xlink:href="#m6b3a9e09ba" x="51.05" y="57.395239" style="stroke: #000000; stroke-width: 0.8"/>
      </g>
     </g>
     <g id="text_14">
      <!-- 200 -->
      <g transform="translate(24.9625 61.194458) scale(0.1 -0.1)">
       <use xlink:href="#DejaVuSans-32"/>
       <use xlink:href="#DejaVuSans-30" transform="translate(63.623047 0)"/>
       <use xlink:href="#DejaVuSans-30" transform="translate(127.246094 0)"/>
      </g>
     </g>
    </g>
    <g id="text_15">
     <!-- Price Threshold ($k/yr) -->
     <g transform="translate(18.882812 228.431406) rotate(-90) scale(0.1 -0.1)">
      <defs>
       <path id="DejaVuSans-54" d="M -19 4666 
L 3928 4666 
L 3928 4134 
L 2272 4134 
L 2272 0 
L 1638 0 
L 1638 4134 
L -19 4134 
L -19 4666 
z
" transform="scale(0.015625)"/>
       <path id="DejaVuSans-68" d="M 3513 2113 
L 3513 0 
L 2938 0 
L 2938 2094 
Q 2938 2591 2744 2837 
Q 2550 3084 2163 3084 
Q 1697 3084 1428 2787 
Q 1159 2491 1159 1978 
L 1159 0 
L 581 0 
L 581 4863 
L 1159 4863 
L 1159 2956 
Q 1366 3272 1645 3428 
Q 1925 3584 2291 3584 
Q 2894 3584 3203 3211 
Q 3513 2838 3513 2113 
z
" transform="scale(0.015625)"/>
       <path id="DejaVuSans-73" d="M 2834 3397 
L 2834 2853 
Q 2591 2978 2328 3040 
Q 2066 3103 1784 3103 
Q 1356 3103 1142 2972 
Q 928 2841 928 2578 
Q 928 2378 1081 2264 
Q 1234 2150 1697 2047 
L 1894 2003 
Q 2506 1872 2764 1633 
Q 3022 1394 3022 966 
Q 3022 478 2636 193 
Q 2250 -91 1575 -91 
Q 1294 -91 989 -36 
Q 684 19 347 128 
L 347 722 
Q 666 556 975 473 
Q 1284 391 1588 391 
Q 1994 391 2212 530 
Q 2431 669 2431 922 
Q 2431 1156 2273 1281 
Q 2116 1406 1581 1522 
L 1381 1569 
Q 847 1681 609 1914 
Q 372 2147 372 2553 
Q 372 3047 722 3315 
Q 1072 3584 1716 3584 
Q 2034 3584 2315 3537 
Q 2597 3491 2834 3397 
z
" transform="scale(0.015625)"/>
       <path id="DejaVuSans-24" d="M 2163 -941 
L 1850 -941 
L 1847 0 
Q 1519 6 1191 76 
Q 863 147 531 288 
L 531 850 
Q 850 650 1176 548 
Q 1503 447 1850 444 
L 1850 1869 
Q 1159 1981 845 2250 
Q 531 2519 531 2988 
Q 531 3497 872 3790 
Q 1213 4084 1850 4128 
L 1850 4863 
L 2163 4863 
L 2163 4138 
Q 2453 4125 2725 4076 
Q 2997 4028 3256 3944 
L 3256 3397 
Q 2997 3528 2723 3600 
Q 2450 3672 2163 3684 
L 2163 2350 
Q 2872 2241 3206 1959 
Q 3541 1678 3541 1191 
Q 3541 663 3186 358 
Q 2831 53 2163 6 
L 2163 -941 
z
M 1850 2406 
L 1850 3688 
Q 1488 3647 1297 3481 
Q 1106 3316 1106 3041 
Q 1106 2772 1282 2622 
Q 1459 2472 1850 2406 
z
M 2163 1806 
L 2163 453 
Q 2559 506 2761 678 
Q 2963 850 2963 1131 
Q 2963 1406 2770 1568 
Q 2578 1731 2163 1806 
z
" transform="scale(0.015625)"/>
       <path id="DejaVuSans-6b" d="M 581 4863 
L 1159 4863 
L 1159 1991 
L 2875 3500 
L 3609 3500 
L 1753 1863 
L 3688 0 
L 2938 0 
L 1159 1709 
L 1159 0 
L 581 0 
L 581 4863 
z
" transform="scale(0.015625)"/>
      </defs>
      <use xlink:href="#DejaVuSans-50"/>
      <use xlink:href="#DejaVuSans-72" transform="translate(58.552734 0)"/>
      <use xlink:href="#DejaVuSans-69" transform="translate(99.666016 0)"/>
      <use xlink:href="#DejaVuSans-63" transform="translate(127.449219 0)"/>
      <use xlink:href="#DejaVuSans-65" transform="translate(182.429688 0)"/>
      <use xlink:href="#DejaVuSans-20" transform="translate(243.953125 0)"/>
      <use xlink:href="#DejaVuSans-54" transform="translate(275.740234 0)"/>
      <use xlink:href="#DejaVuSans-68" transform="translate(336.824219 0)"/>
      <use xlink:href="#DejaVuSans-72" transform="translate(400.203125 0)"/>
      <use xlink:href="#DejaVuSans-65" transform="translate(439.066406 0)"/>
      <use xlink:href="#DejaVuSans-73" transform="translate(500.589844 0)"/>
      <use xlink:href="#DejaVuSans-68" transform="translate(552.689453 0)"/>
      <use xlink:href="#DejaVuSans-6f" transform="translate(616.068359 0)"/>
      <use xlink:href="#DejaVuSans-6c" transform="translate(677.25 0)"/>
      <use xlink:href="#DejaVuSans-64" transform="translate(705.033203 0)"/>
      <use xlink:href="#DejaVuSans-20" transform="translate(768.509766 0)"/>
      <use xlink:href="#DejaVuSans-28" transform="translate(800.296875 0)"/>
      <use xlink:href="#DejaVuSans-24" transform="translate(839.310547 0)"/>
      <use xlink:href="#DejaVuSans-6b" transform="translate(902.933594 0)"/>
      <use xlink:href="#DejaVuSans-2f" transform="translate(960.84375 0)"/>
      <use xlink:href="#DejaVuSans-79" transform="translate(994.535156 0)"/>
      <use xlink:href="#DejaVuSans-72" transform="translate(1053.714844 0)"/>
      <use xlink:href="#DejaVuSans-29" transform="translate(1094.828125 0)"/>
     </g>
    </g>
   </g>
   <g id="line2d_14">
    <path d="M 51.05 248.697344 
L 379.06896 248.697344 
" clip-path="url(#p781b649c14)" style="fill: none; stroke-dasharray: 5.55,2.4; stroke-dashoffset: 0; stroke: #ffffff; stroke-width: 1.5"/>
   </g>
   <g id="line2d_15">
    <path d="M 117.992645 318.04 
L 117.992645 25.44 
" clip-path="url(#p781b649c14)" style="fill: none; stroke-dasharray: 1.5,2.475; stroke-dashoffset: 0; stroke: #ffffff; stroke-width: 1.5"/>
   </g>
   <g id="patch_3">
    <path d="M 51.05 318.04 
L 51.05 25.44 
" style="fill: none; stroke: #000000; stroke-width: 0.8; stroke-linejoin: miter; stroke-linecap: square"/>
   </g>
   <g id="patch_4">
    <path d="M 379.06896 318.04 
L 379.06896 25.44 
" style="fill: none; stroke: #000000; stroke-width: 0.8; stroke-linejoin: miter; stroke-linecap: square"/>
   </g>
   <g id="patch_5">
    <path d="M 51.05 318.04 
L 379.06896 318.04 
" style="fill: none; stroke: #000000; stroke-width: 0.8; stroke-linejoin: miter; stroke-linecap: square"/>
   </g>
   <g id="patch_6">
    <path d="M 51.05 25.44 
L 379.06896 25.44 
" style="fill: none; stroke: #000000; stroke-width: 0.8; stroke-linejoin: miter; stroke-linecap: square"/>
   </g>
   <g id="text_16">
    <!-- P(cost &lt;= threshold) -->
    <g transform="translate(152.188855 19.44) scale(0.12 -0.12)">
     <defs>
      <path id="DejaVuSans-3c" d="M 4684 3150 
L 1459 2003 
L 4684 863 
L 4684 294 
L 678 1747 
L 678 2266 
L 4684 3719 
L 4684 3150 
z
" transform="scale(0.015625)"/>
      <path id="DejaVuSans-3d" d="M 678 2906 
L 4684 2906 
L 4684 2381 
L 678 2381 
L 678 2906 
z
M 678 1631 
L 4684 1631 
L 4684 1100 
L 678 1100 
L 678 1631 
z
" transform="scale(0.015625)"/>
     </defs>
     <use xlink:href="#DejaVuSans-50"/>
     <use xlink:href="#DejaVuSans-28" transform="translate(60.302734 0)"/>
     <use xlink:href="#DejaVuSans-63" transform="translate(99.316406 0)"/>
     <use xlink:href="#DejaVuSans-6f" transform="translate(154.296875 0)"/>
     <use xlink:href="#DejaVuSans-73" transform="translate(215.478516 0)"/>
     <use xlink:href="#DejaVuSans-74" transform="translate(267.578125 0)"/>
     <use xlink:href="#DejaVuSans-20" transform="translate(306.787109 0)"/>
     <use xlink:href="#DejaVuSans-3c" transform="translate(338.574219 0)"/>
     <use xlink:href="#DejaVuSans-3d" transform="translate(422.363281 0)"/>
     <use xlink:href="#DejaVuSans-20" transform="translate(506.152344 0)"/>
     <use xlink:href="#DejaVuSans-74" transform="translate(537.939453 0)"/>
     <use xlink:href="#DejaVuSans-68" transform="translate(577.148438 0)"/>
     <use xlink:href="#DejaVuSans-72" transform="translate(640.527344 0)"/>
     <use xlink:href="#DejaVuSans-65" transform="translate(679.390625 0)"/>
     <use xlink:href="#DejaVuSans-73" transform="translate(740.914062 0)"/>
     <use xlink:href="#DejaVuSans-68" transform="translate(793.013672 0)"/>
     <use xlink:href="#DejaVuSans-6f" transform="translate(856.392578 0)"/>
     <use xlink:href="#DejaVuSans-6c" transform="translate(917.574219 0)"/>
     <use xlink:href="#DejaVuSans-64" transform="translate(945.357422 0)"/>
     <use xlink:href="#DejaVuSans-29" transform="translate(1008.833984 0)"/>
    </g>
   </g>
  </g>
  <g id="axes_2">
   <g id="patch_7">
    <path d="M 510.29461 318.04 
L 920.31831 318.04 
L 920.31831 25.44 
L 510.29461 25.44 
z
" style="fill: #ffffff"/>
   </g>
   <g id="matplotlib.axis_3">
    <g id="xtick_6">
     <g id="line2d_16">
      <path d="M 520.396837 318.04 
L 520.396837 25.44 
" clip-path="url(#pa374c6bb4c)" style="fill: none; stroke: #b0b0b0; stroke-opacity: 0.25; stroke-width: 0.8; stroke-linecap: square"/>
     </g>
     <g id="line2d_17">
      <g>
       <use xlink:href="#m0709626128" x="520.396837" y="318.04" style="stroke: #000000; stroke-width: 0.8"/>
      </g>
     </g>
     <g id="text_17">
      <!-- 0.2 -->
      <g transform="translate(512.445275 332.638438) scale(0.1 -0.1)">
       <use xlink:href="#DejaVuSans-30"/>
       <use xlink:href="#DejaVuSans-2e" transform="translate(63.623047 0)"/>
       <use xlink:href="#DejaVuSans-32" transform="translate(95.410156 0)"/>
      </g>
     </g>
    </g>
    <g id="xtick_7">
     <g id="line2d_18">
      <path d="M 586.411388 318.04 
L 586.411388 25.44 
" clip-path="url(#pa374c6bb4c)" style="fill: none; stroke: #b0b0b0; stroke-opacity: 0.25; stroke-width: 0.8; stroke-linecap: square"/>
     </g>
     <g id="line2d_19">
      <g>
       <use xlink:href="#m0709626128" x="586.411388" y="318.04" style="stroke: #000000; stroke-width: 0.8"/>
      </g>
     </g>
     <g id="text_18">
      <!-- 0.4 -->
      <g transform="translate(578.459825 332.638438) scale(0.1 -0.1)">
       <use xlink:href="#DejaVuSans-30"/>
       <use xlink:href="#DejaVuSans-2e" transform="translate(63.623047 0)"/>
       <use xlink:href="#DejaVuSans-34" transform="translate(95.410156 0)"/>
      </g>
     </g>
    </g>
    <g id="xtick_8">
     <g id="line2d_20">
      <path d="M 652.425938 318.04 
L 652.425938 25.44 
" clip-path="url(#pa374c6bb4c)" style="fill: none; stroke: #b0b0b0; stroke-opacity: 0.25; stroke-width: 0.8; stroke-linecap: square"/>
     </g>
     <g id="line2d_21">
      <g>
       <use xlink:href="#m0709626128" x="652.425938" y="318.04" style="stroke: #000000; stroke-width: 0.8"/>
      </g>
     </g>
     <g id="text_19">
      <!-- 0.6 -->
      <g transform="translate(644.474376 332.638438) scale(0.1 -0.1)">
       <use xlink:href="#DejaVuSans-30"/>
       <use xlink:href="#DejaVuSans-2e" transform="translate(63.623047 0)"/>
       <use xlink:href="#DejaVuSans-36" transform="translate(95.410156 0)"/>
      </g>
     </g>
    </g>
    <g id="xtick_9">
     <g id="line2d_22">
      <path d="M 718.440489 318.04 
L 718.440489 25.44 
" clip-path="url(#pa374c6bb4c)" style="fill: none; stroke: #b0b0b0; stroke-opacity: 0.25; stroke-width: 0.8; stroke-linecap: square"/>
     </g>
     <g id="line2d_23">
      <g>
       <use xlink:href="#m0709626128" x="718.440489" y="318.04" style="stroke: #000000; stroke-width: 0.8"/>
      </g>
     </g>
     <g id="text_20">
      <!-- 0.8 -->
      <g transform="translate(710.488927 332.638438) scale(0.1 -0.1)">
       <use xlink:href="#DejaVuSans-30"/>
       <use xlink:href="#DejaVuSans-2e" transform="translate(63.623047 0)"/>
       <use xlink:href="#DejaVuSans-38" transform="translate(95.410156 0)"/>
      </g>
     </g>
    </g>
    <g id="xtick_10">
     <g id="line2d_24">
      <path d="M 784.45504 318.04 
L 784.45504 25.44 
" clip-path="url(#pa374c6bb4c)" style="fill: none; stroke: #b0b0b0; stroke-opacity: 0.25; stroke-width: 0.8; stroke-linecap: square"/>
     </g>
     <g id="line2d_25">
      <g>
       <use xlink:href="#m0709626128" x="784.45504" y="318.04" style="stroke: #000000; stroke-width: 0.8"/>
      </g>
     </g>
     <g id="text_21">
      <!-- 1.0 -->
      <g transform="translate(776.503477 332.638438) scale(0.1 -0.1)">
       <use xlink:href="#DejaVuSans-31"/>
       <use xlink:href="#DejaVuSans-2e" transform="translate(63.623047 0)"/>
       <use xlink:href="#DejaVuSans-30" transform="translate(95.410156 0)"/>
      </g>
     </g>
    </g>
    <g id="xtick_11">
     <g id="line2d_26">
      <path d="M 850.46959 318.04 
L 850.46959 25.44 
" clip-path="url(#pa374c6bb4c)" style="fill: none; stroke: #b0b0b0; stroke-opacity: 0.25; stroke-width: 0.8; stroke-linecap: square"/>
     </g>
     <g id="line2d_27">
      <g>
       <use xlink:href="#m0709626128" x="850.46959" y="318.04" style="stroke: #000000; stroke-width: 0.8"/>
      </g>
     </g>
     <g id="text_22">
      <!-- 1.2 -->
      <g transform="translate(842.518028 332.638438) scale(0.1 -0.1)">
       <use xlink:href="#DejaVuSans-31"/>
       <use xlink:href="#DejaVuSans-2e" transform="translate(63.623047 0)"/>
       <use xlink:href="#DejaVuSans-32" transform="translate(95.410156 0)"/>
      </g>
     </g>
    </g>
    <g id="xtick_12">
     <g id="line2d_28">
      <path d="M 916.484141 318.04 
L 916.484141 25.44 
" clip-path="url(#pa374c6bb4c)" style="fill: none; stroke: #b0b0b0; stroke-opacity: 0.25; stroke-width: 0.8; stroke-linecap: square"/>
     </g>
     <g id="line2d_29">
      <g>
       <use xlink:href="#m0709626128" x="916.484141" y="318.04" style="stroke: #000000; stroke-width: 0.8"/>
      </g>
     </g>
     <g id="text_23">
      <!-- 1.4 -->
      <g transform="translate(908.532578 332.638438) scale(0.1 -0.1)">
       <use xlink:href="#DejaVuSans-31"/>
       <use xlink:href="#DejaVuSans-2e" transform="translate(63.623047 0)"/>
       <use xlink:href="#DejaVuSans-34" transform="translate(95.410156 0)"/>
      </g>
     </g>
    </g>
    <g id="text_24">
     <!-- Production Rate (million m^3/yr) -->
     <g transform="translate(632.980679 346.316563) scale(0.1 -0.1)">
      <use xlink:href="#DejaVuSans-50"/>
      <use xlink:href="#DejaVuSans-72" transform="translate(58.552734 0)"/>
      <use xlink:href="#DejaVuSans-6f" transform="translate(97.416016 0)"/>
      <use xlink:href="#DejaVuSans-64" transform="translate(158.597656 0)"/>
      <use xlink:href="#DejaVuSans-75" transform="translate(222.074219 0)"/>
      <use xlink:href="#DejaVuSans-63" transform="translate(285.453125 0)"/>
      <use xlink:href="#DejaVuSans-74" transform="translate(340.433594 0)"/>
      <use xlink:href="#DejaVuSans-69" transform="translate(379.642578 0)"/>
      <use xlink:href="#DejaVuSans-6f" transform="translate(407.425781 0)"/>
      <use xlink:href="#DejaVuSans-6e" transform="translate(468.607422 0)"/>
      <use xlink:href="#DejaVuSans-20" transform="translate(531.986328 0)"/>
      <use xlink:href="#DejaVuSans-52" transform="translate(563.773438 0)"/>
      <use xlink:href="#DejaVuSans-61" transform="translate(631.005859 0)"/>
      <use xlink:href="#DejaVuSans-74" transform="translate(692.285156 0)"/>
      <use xlink:href="#DejaVuSans-65" transform="translate(731.494141 0)"/>
      <use xlink:href="#DejaVuSans-20" transform="translate(793.017578 0)"/>
      <use xlink:href="#DejaVuSans-28" transform="translate(824.804688 0)"/>
      <use xlink:href="#DejaVuSans-6d" transform="translate(863.818359 0)"/>
      <use xlink:href="#DejaVuSans-69" transform="translate(961.230469 0)"/>
      <use xlink:href="#DejaVuSans-6c" transform="translate(989.013672 0)"/>
      <use xlink:href="#DejaVuSans-6c" transform="translate(1016.796875 0)"/>
      <use xlink:href="#DejaVuSans-69" transform="translate(1044.580078 0)"/>
      <use xlink:href="#DejaVuSans-6f" transform="translate(1072.363281 0)"/>
      <use xlink:href="#DejaVuSans-6e" transform="translate(1133.544922 0)"/>
      <use xlink:href="#DejaVuSans-20" transform="translate(1196.923828 0)"/>
      <use xlink:href="#DejaVuSans-6d" transform="translate(1228.710938 0)"/>
      <use xlink:href="#DejaVuSans-5e" transform="translate(1326.123047 0)"/>
      <use xlink:href="#DejaVuSans-33" transform="translate(1409.912109 0)"/>
      <use xlink:href="#DejaVuSans-2f" transform="translate(1473.535156 0)"/>
      <use xlink:href="#DejaVuSans-79" transform="translate(1507.226562 0)"/>
      <use xlink:href="#DejaVuSans-72" transform="translate(1566.40625 0)"/>
      <use xlink:href="#DejaVuSans-29" transform="translate(1607.519531 0)"/>
     </g>
    </g>
   </g>
   <g id="matplotlib.axis_4">
    <g id="ytick_9">
     <g id="line2d_30">
      <path d="M 510.29461 318.04 
L 920.31831 318.04 
" clip-path="url(#pa374c6bb4c)" style="fill: none; stroke: #b0b0b0; stroke-opacity: 0.25; stroke-width: 0.8; stroke-linecap: square"/>
     </g>
     <g id="line2d_31">
      <g>
       <use xlink:href="#m6b3a9e09ba" x="510.29461" y="318.04" style="stroke: #000000; stroke-width: 0.8"/>
      </g>
     </g>
     <g id="text_25">
      <!-- 0.0 -->
      <g transform="translate(487.391485 321.839219) scale(0.1 -0.1)">
       <use xlink:href="#DejaVuSans-30"/>
       <use xlink:href="#DejaVuSans-2e" transform="translate(63.623047 0)"/>
       <use xlink:href="#DejaVuSans-30" transform="translate(95.410156 0)"/>
      </g>
     </g>
    </g>
    <g id="ytick_10">
     <g id="line2d_32">
      <path d="M 510.29461 259.52 
L 920.31831 259.52 
" clip-path="url(#pa374c6bb4c)" style="fill: none; stroke: #b0b0b0; stroke-opacity: 0.25; stroke-width: 0.8; stroke-linecap: square"/>
     </g>
     <g id="line2d_33">
      <g>
       <use xlink:href="#m6b3a9e09ba" x="510.29461" y="259.52" style="stroke: #000000; stroke-width: 0.8"/>
      </g>
     </g>
     <g id="text_26">
      <!-- 0.2 -->
      <g transform="translate(487.391485 263.319219) scale(0.1 -0.1)">
       <use xlink:href="#DejaVuSans-30"/>
       <use xlink:href="#DejaVuSans-2e" transform="translate(63.623047 0)"/>
       <use xlink:href="#DejaVuSans-32" transform="translate(95.410156 0)"/>
      </g>
     </g>
    </g>
    <g id="ytick_11">
     <g id="line2d_34">
      <path d="M 510.29461 201 
L 920.31831 201 
" clip-path="url(#pa374c6bb4c)" style="fill: none; stroke: #b0b0b0; stroke-opacity: 0.25; stroke-width: 0.8; stroke-linecap: square"/>
     </g>
     <g id="line2d_35">
      <g>
       <use xlink:href="#m6b3a9e09ba" x="510.29461" y="201" style="stroke: #000000; stroke-width: 0.8"/>
      </g>
     </g>
     <g id="text_27">
      <!-- 0.4 -->
      <g transform="translate(487.391485 204.799219) scale(0.1 -0.1)">
       <use xlink:href="#DejaVuSans-30"/>
       <use xlink:href="#DejaVuSans-2e" transform="translate(63.623047 0)"/>
       <use xlink:href="#DejaVuSans-34" transform="translate(95.410156 0)"/>
      </g>
     </g>
    </g>
    <g id="ytick_12">
     <g id="line2d_36">
      <path d="M 510.29461 142.48 
L 920.31831 142.48 
" clip-path="url(#pa374c6bb4c)" style="fill: none; stroke: #b0b0b0; stroke-opacity: 0.25; stroke-width: 0.8; stroke-linecap: square"/>
     </g>
     <g id="line2d_37">
      <g>
       <use xlink:href="#m6b3a9e09ba" x="510.29461" y="142.48" style="stroke: #000000; stroke-width: 0.8"/>
      </g>
     </g>
     <g id="text_28">
      <!-- 0.6 -->
      <g transform="translate(487.391485 146.279219) scale(0.1 -0.1)">
       <use xlink:href="#DejaVuSans-30"/>
       <use xlink:href="#DejaVuSans-2e" transform="translate(63.623047 0)"/>
       <use xlink:href="#DejaVuSans-36" transform="translate(95.410156 0)"/>
      </g>
     </g>
    </g>
    <g id="ytick_13">
     <g id="line2d_38">
      <path d="M 510.29461 83.96 
L 920.31831 83.96 
" clip-path="url(#pa374c6bb4c)" style="fill: none; stroke: #b0b0b0; stroke-opacity: 0.25; stroke-width: 0.8; stroke-linecap: square"/>
     </g>
     <g id="line2d_39">
      <g>
       <use xlink:href="#m6b3a9e09ba" x="510.29461" y="83.96" style="stroke: #000000; stroke-width: 0.8"/>
      </g>
     </g>
     <g id="text_29">
      <!-- 0.8 -->
      <g transform="translate(487.391485 87.759219) scale(0.1 -0.1)">
       <use xlink:href="#DejaVuSans-30"/>
       <use xlink:href="#DejaVuSans-2e" transform="translate(63.623047 0)"/>
       <use xlink:href="#DejaVuSans-38" transform="translate(95.410156 0)"/>
      </g>
     </g>
    </g>
    <g id="ytick_14">
     <g id="line2d_40">
      <path d="M 510.29461 25.44 
L 920.31831 25.44 
" clip-path="url(#pa374c6bb4c)" style="fill: none; stroke: #b0b0b0; stroke-opacity: 0.25; stroke-width: 0.8; stroke-linecap: square"/>
     </g>
     <g id="line2d_41">
      <g>
       <use xlink:href="#m6b3a9e09ba" x="510.29461" y="25.44" style="stroke: #000000; stroke-width: 0.8"/>
      </g>
     </g>
     <g id="text_30">
      <!-- 1.0 -->
      <g transform="translate(487.391485 29.239219) scale(0.1 -0.1)">
       <use xlink:href="#DejaVuSans-31"/>
       <use xlink:href="#DejaVuSans-2e" transform="translate(63.623047 0)"/>
       <use xlink:href="#DejaVuSans-30" transform="translate(95.410156 0)"/>
      </g>
     </g>
    </g>
    <g id="text_31">
     <!-- Probability -->
     <g transform="translate(481.311797 198.168906) rotate(-90) scale(0.1 -0.1)">
      <defs>
       <path id="DejaVuSans-62" d="M 3116 1747 
Q 3116 2381 2855 2742 
Q 2594 3103 2138 3103 
Q 1681 3103 1420 2742 
Q 1159 2381 1159 1747 
Q 1159 1113 1420 752 
Q 1681 391 2138 391 
Q 2594 391 2855 752 
Q 3116 1113 3116 1747 
z
M 1159 2969 
Q 1341 3281 1617 3432 
Q 1894 3584 2278 3584 
Q 2916 3584 3314 3078 
Q 3713 2572 3713 1747 
Q 3713 922 3314 415 
Q 2916 -91 2278 -91 
Q 1894 -91 1617 61 
Q 1341 213 1159 525 
L 1159 0 
L 581 0 
L 581 4863 
L 1159 4863 
L 1159 2969 
z
" transform="scale(0.015625)"/>
      </defs>
      <use xlink:href="#DejaVuSans-50"/>
      <use xlink:href="#DejaVuSans-72" transform="translate(58.552734 0)"/>
      <use xlink:href="#DejaVuSans-6f" transform="translate(97.416016 0)"/>
      <use xlink:href="#DejaVuSans-62" transform="translate(158.597656 0)"/>
      <use xlink:href="#DejaVuSans-61" transform="translate(222.074219 0)"/>
      <use xlink:href="#DejaVuSans-62" transform="translate(283.353516 0)"/>
      <use xlink:href="#DejaVuSans-69" transform="translate(346.830078 0)"/>
      <use xlink:href="#DejaVuSans-6c" transform="translate(374.613281 0)"/>
      <use xlink:href="#DejaVuSans-69" transform="translate(402.396484 0)"/>
      <use xlink:href="#DejaVuSans-74" transform="translate(430.179688 0)"/>
      <use xlink:href="#DejaVuSans-79" transform="translate(469.388672 0)"/>
     </g>
    </g>
   </g>
   <g id="line2d_42">
    <path d="M 528.932051 25.44 
L 536.539169 25.44 
L 544.146288 25.44 
L 551.753407 25.44 
L 559.360526 25.44 
L 566.967644 25.44 
L 574.574763 25.44 
L 582.181882 25.44 
L 589.789001 25.44 
L 597.396119 25.44 
L 605.003238 25.44 
L 612.610357 25.44 
L 620.217476 25.44 
L 627.824594 25.44 
L 635.431713 25.44 
L 643.038832 25.44 
L 650.645951 25.44 
L 658.253069 25.44 
L 665.860188 25.44 
L 673.467307 25.44 
L 681.074426 25.44 
L 688.681544 25.44 
L 696.288663 25.44 
L 703.895782 25.44 
L 711.502901 25.44 
L 719.110019 25.44 
L 726.717138 25.44 
L 734.324257 25.44 
L 741.931376 25.44 
L 749.538494 25.44 
L 757.145613 25.44 
L 764.752732 142.48 
L 772.359851 318.04 
L 779.966969 318.04 
L 787.574088 318.04 
L 795.181207 318.04 
L 802.788326 318.04 
L 810.395444 318.04 
L 818.002563 318.04 
L 825.609682 318.04 
L 833.216801 318.04 
L 840.823919 318.04 
L 848.431038 318.04 
L 856.038157 318.04 
L 863.645276 318.04 
L 871.252394 318.04 
L 878.859513 318.04 
L 886.466632 318.04 
L 894.073751 318.04 
L 901.680869 318.04 
" clip-path="url(#pa374c6bb4c)" style="fill: none; stroke: #2ca02c; stroke-width: 2; stroke-linecap: square"/>
   </g>
   <g id="line2d_43">
    <path d="M 528.932051 318.04 
L 536.539169 318.04 
L 544.146288 318.04 
L 551.753407 318.04 
L 559.360526 318.04 
L 566.967644 318.04 
L 574.574763 318.04 
L 582.181882 318.04 
L 589.789001 318.04 
L 597.396119 318.04 
L 605.003238 318.04 
L 612.610357 318.04 
L 620.217476 318.04 
L 627.824594 318.04 
L 635.431713 318.04 
L 643.038832 318.04 
L 650.645951 318.04 
L 658.253069 318.04 
L 665.860188 318.04 
L 673.467307 318.04 
L 681.074426 318.04 
L 688.681544 318.04 
L 696.288663 318.04 
L 703.895782 318.04 
L 711.502901 318.04 
L 719.110019 318.04 
L 726.717138 318.04 
L 734.324257 318.04 
L 741.931376 318.04 
L 749.538494 318.04 
L 757.145613 318.04 
L 764.752732 201 
L 772.359851 25.44 
L 779.966969 25.44 
L 787.574088 25.44 
L 795.181207 25.44 
L 802.788326 25.44 
L 810.395444 25.44 
L 818.002563 25.44 
L 825.609682 25.44 
L 833.216801 25.44 
L 840.823919 25.44 
L 848.431038 25.44 
L 856.038157 25.44 
L 863.645276 25.44 
L 871.252394 25.44 
L 878.859513 25.44 
L 886.466632 25.44 
L 894.073751 25.44 
L 901.680869 25.44 
" clip-path="url(#pa374c6bb4c)" style="fill: none; stroke: #d62728; stroke-width: 2; stroke-linecap: square"/>
   </g>
   <g id="line2d_44">
    <path d="M 605.003238 318.04 
L 605.003238 25.44 
" clip-path="url(#pa374c6bb4c)" style="fill: none; stroke-dasharray: 1.5,2.475; stroke-dashoffset: 0; stroke: #000000; stroke-width: 1.5"/>
   </g>
   <g id="patch_8">
    <path d="M 510.29461 318.04 
L 510.29461 25.44 
" style="fill: none; stroke: #000000; stroke-width: 0.8; stroke-linejoin: miter; stroke-linecap: square"/>
   </g>
   <g id="patch_9">
    <path d="M 920.31831 318.04 
L 920.31831 25.44 
" style="fill: none; stroke: #000000; stroke-width: 0.8; stroke-linejoin: miter; stroke-linecap: square"/>
   </g>
   <g id="patch_10">
    <path d="M 510.29461 318.04 
L 920.31831 318.04 
" style="fill: none; stroke: #000000; stroke-width: 0.8; stroke-linejoin: miter; stroke-linecap: square"/>
   </g>
   <g id="patch_11">
    <path d="M 510.29461 25.44 
L 920.31831 25.44 
" style="fill: none; stroke: #000000; stroke-width: 0.8; stroke-linejoin: miter; stroke-linecap: square"/>
   </g>
   <g id="text_32">
    <!-- At price threshold = 54.9 $k/yr -->
    <g transform="translate(622.515522 19.44) scale(0.12 -0.12)">
     <defs>
      <path id="DejaVuSans-41" d="M 2188 4044 
L 1331 1722 
L 3047 1722 
L 2188 4044 
z
M 1831 4666 
L 2547 4666 
L 4325 0 
L 3669 0 
L 3244 1197 
L 1141 1197 
L 716 0 
L 50 0 
L 1831 4666 
z
" transform="scale(0.015625)"/>
      <path id="DejaVuSans-70" d="M 1159 525 
L 1159 -1331 
L 581 -1331 
L 581 3500 
L 1159 3500 
L 1159 2969 
Q 1341 3281 1617 3432 
Q 1894 3584 2278 3584 
Q 2916 3584 3314 3078 
Q 3713 2572 3713 1747 
Q 3713 922 3314 415 
Q 2916 -91 2278 -91 
Q 1894 -91 1617 61 
Q 1341 213 1159 525 
z
M 3116 1747 
Q 3116 2381 2855 2742 
Q 2594 3103 2138 3103 
Q 1681 3103 1420 2742 
Q 1159 2381 1159 1747 
Q 1159 1113 1420 752 
Q 1681 391 2138 391 
Q 2594 391 2855 752 
Q 3116 1113 3116 1747 
z
" transform="scale(0.015625)"/>
      <path id="DejaVuSans-39" d="M 703 97 
L 703 672 
Q 941 559 1184 500 
Q 1428 441 1663 441 
Q 2288 441 2617 861 
Q 2947 1281 2994 2138 
Q 2813 1869 2534 1725 
Q 2256 1581 1919 1581 
Q 1219 1581 811 2004 
Q 403 2428 403 3163 
Q 403 3881 828 4315 
Q 1253 4750 1959 4750 
Q 2769 4750 3195 4129 
Q 3622 3509 3622 2328 
Q 3622 1225 3098 567 
Q 2575 -91 1691 -91 
Q 1453 -91 1209 -44 
Q 966 3 703 97 
z
M 1959 2075 
Q 2384 2075 2632 2365 
Q 2881 2656 2881 3163 
Q 2881 3666 2632 3958 
Q 2384 4250 1959 4250 
Q 1534 4250 1286 3958 
Q 1038 3666 1038 3163 
Q 1038 2656 1286 2365 
Q 1534 2075 1959 2075 
z
" transform="scale(0.015625)"/>
     </defs>
     <use xlink:href="#DejaVuSans-41"/>
     <use xlink:href="#DejaVuSans-74" transform="translate(66.658203 0)"/>
     <use xlink:href="#DejaVuSans-20" transform="translate(105.867188 0)"/>
     <use xlink:href="#DejaVuSans-70" transform="translate(137.654297 0)"/>
     <use xlink:href="#DejaVuSans-72" transform="translate(201.130859 0)"/>
     <use xlink:href="#DejaVuSans-69" transform="translate(242.244141 0)"/>
     <use xlink:href="#DejaVuSans-63" transform="translate(270.027344 0)"/>
     <use xlink:href="#DejaVuSans-65" transform="translate(325.007812 0)"/>
     <use xlink:href="#DejaVuSans-20" transform="translate(386.53125 0)"/>
     <use xlink:href="#DejaVuSans-74" transform="translate(418.318359 0)"/>
     <use xlink:href="#DejaVuSans-68" transform="translate(457.527344 0)"/>
     <use xlink:href="#DejaVuSans-72" transform="translate(520.90625 0)"/>
     <use xlink:href="#DejaVuSans-65" transform="translate(559.769531 0)"/>
     <use xlink:href="#DejaVuSans-73" transform="translate(621.292969 0)"/>
     <use xlink:href="#DejaVuSans-68" transform="translate(673.392578 0)"/>
     <use xlink:href="#DejaVuSans-6f" transform="translate(736.771484 0)"/>
     <use xlink:href="#DejaVuSans-6c" transform="translate(797.953125 0)"/>
     <use xlink:href="#DejaVuSans-64" transform="translate(825.736328 0)"/>
     <use xlink:href="#DejaVuSans-20" transform="translate(889.212891 0)"/>
     <use xlink:href="#DejaVuSans-3d" transform="translate(921 0)"/>
     <use xlink:href="#DejaVuSans-20" transform="translate(1004.789062 0)"/>
     <use xlink:href="#DejaVuSans-35" transform="translate(1036.576172 0)"/>
     <use xlink:href="#DejaVuSans-34" transform="translate(1100.199219 0)"/>
     <use xlink:href="#DejaVuSans-2e" transform="translate(1163.822266 0)"/>
     <use xlink:href="#DejaVuSans-39" transform="translate(1195.609375 0)"/>
     <use xlink:href="#DejaVuSans-20" transform="translate(1259.232422 0)"/>
     <use xlink:href="#DejaVuSans-24" transform="translate(1291.019531 0)"/>
     <use xlink:href="#DejaVuSans-6b" transform="translate(1354.642578 0)"/>
     <use xlink:href="#DejaVuSans-2f" transform="translate(1412.552734 0)"/>
     <use xlink:href="#DejaVuSans-79" transform="translate(1446.244141 0)"/>
     <use xlink:href="#DejaVuSans-72" transform="translate(1505.423828 0)"/>
    </g>
   </g>
   <g id="legend_1">
    <g id="patch_12">
     <path d="M 784.533935 62.79625 
L 913.31831 62.79625 
Q 915.31831 62.79625 915.31831 60.79625 
L 915.31831 32.44 
Q 915.31831 30.44 913.31831 30.44 
L 784.533935 30.44 
Q 782.533935 30.44 782.533935 32.44 
L 782.533935 60.79625 
Q 782.533935 62.79625 784.533935 62.79625 
z
" style="fill: #ffffff; opacity: 0.8; stroke: #cccccc; stroke-linejoin: miter"/>
    </g>
    <g id="line2d_45">
     <path d="M 786.533935 38.538437 
L 796.533935 38.538437 
L 806.533935 38.538437 
" style="fill: none; stroke: #2ca02c; stroke-width: 2; stroke-linecap: square"/>
    </g>
    <g id="text_33">
     <!-- Success probability -->
     <g transform="translate(814.533935 42.038437) scale(0.1 -0.1)">
      <defs>
       <path id="DejaVuSans-53" d="M 3425 4513 
L 3425 3897 
Q 3066 4069 2747 4153 
Q 2428 4238 2131 4238 
Q 1616 4238 1336 4038 
Q 1056 3838 1056 3469 
Q 1056 3159 1242 3001 
Q 1428 2844 1947 2747 
L 2328 2669 
Q 3034 2534 3370 2195 
Q 3706 1856 3706 1288 
Q 3706 609 3251 259 
Q 2797 -91 1919 -91 
Q 1588 -91 1214 -16 
Q 841 59 441 206 
L 441 856 
Q 825 641 1194 531 
Q 1563 422 1919 422 
Q 2459 422 2753 634 
Q 3047 847 3047 1241 
Q 3047 1584 2836 1778 
Q 2625 1972 2144 2069 
L 1759 2144 
Q 1053 2284 737 2584 
Q 422 2884 422 3419 
Q 422 4038 858 4394 
Q 1294 4750 2059 4750 
Q 2388 4750 2728 4690 
Q 3069 4631 3425 4513 
z
" transform="scale(0.015625)"/>
      </defs>
      <use xlink:href="#DejaVuSans-53"/>
      <use xlink:href="#DejaVuSans-75" transform="translate(63.476562 0)"/>
      <use xlink:href="#DejaVuSans-63" transform="translate(126.855469 0)"/>
      <use xlink:href="#DejaVuSans-63" transform="translate(181.835938 0)"/>
      <use xlink:href="#DejaVuSans-65" transform="translate(236.816406 0)"/>
      <use xlink:href="#DejaVuSans-73" transform="translate(298.339844 0)"/>
      <use xlink:href="#DejaVuSans-73" transform="translate(350.439453 0)"/>
      <use xlink:href="#DejaVuSans-20" transform="translate(402.539062 0)"/>
      <use xlink:href="#DejaVuSans-70" transform="translate(434.326172 0)"/>
      <use xlink:href="#DejaVuSans-72" transform="translate(497.802734 0)"/>
      <use xlink:href="#DejaVuSans-6f" transform="translate(536.666016 0)"/>
      <use xlink:href="#DejaVuSans-62" transform="translate(597.847656 0)"/>
      <use xlink:href="#DejaVuSans-61" transform="translate(661.324219 0)"/>
      <use xlink:href="#DejaVuSans-62" transform="translate(722.603516 0)"/>
      <use xlink:href="#DejaVuSans-69" transform="translate(786.080078 0)"/>
      <use xlink:href="#DejaVuSans-6c" transform="translate(813.863281 0)"/>
      <use xlink:href="#DejaVuSans-69" transform="translate(841.646484 0)"/>
      <use xlink:href="#DejaVuSans-74" transform="translate(869.429688 0)"/>
      <use xlink:href="#DejaVuSans-79" transform="translate(908.638672 0)"/>
     </g>
    </g>
    <g id="line2d_46">
     <path d="M 786.533935 53.216563 
L 796.533935 53.216563 
L 806.533935 53.216563 
" style="fill: none; stroke: #d62728; stroke-width: 2; stroke-linecap: square"/>
    </g>
    <g id="text_34">
     <!-- Failure risk -->
     <g transform="translate(814.533935 56.716563) scale(0.1 -0.1)">
      <defs>
       <path id="DejaVuSans-46" d="M 628 4666 
L 3309 4666 
L 3309 4134 
L 1259 4134 
L 1259 2759 
L 3109 2759 
L 3109 2228 
L 1259 2228 
L 1259 0 
L 628 0 
L 628 4666 
z
" transform="scale(0.015625)"/>
      </defs>
      <use xlink:href="#DejaVuSans-46"/>
      <use xlink:href="#DejaVuSans-61" transform="translate(48.394531 0)"/>
      <use xlink:href="#DejaVuSans-69" transform="translate(109.673828 0)"/>
      <use xlink:href="#DejaVuSans-6c" transform="translate(137.457031 0)"/>
      <use xlink:href="#DejaVuSans-75" transform="translate(165.240234 0)"/>
      <use xlink:href="#DejaVuSans-72" transform="translate(228.619141 0)"/>
      <use xlink:href="#DejaVuSans-65" transform="translate(267.482422 0)"/>
      <use xlink:href="#DejaVuSans-20" transform="translate(329.005859 0)"/>
      <use xlink:href="#DejaVuSans-72" transform="translate(360.792969 0)"/>
      <use xlink:href="#DejaVuSans-69" transform="translate(401.90625 0)"/>
      <use xlink:href="#DejaVuSans-73" transform="translate(429.689453 0)"/>
      <use xlink:href="#DejaVuSans-6b" transform="translate(481.789062 0)"/>
     </g>
    </g>
   </g>
  </g>
  <g id="axes_3">
   <g id="patch_13">
    <path d="M 399.570146 318.04 
L 414.200146 318.04 
L 414.200146 25.44 
L 399.570146 25.44 
z
" style="fill: #ffffff"/>
   </g>
   <g id="QuadMesh_1">
    <path d="M 399.570146 318.04 
L 414.200146 318.04 
L 414.200146 288.78 
L 399.570146 288.78 
L 399.570146 318.04 
" clip-path="url(#p967599ab8b)" style="fill: #471365"/>
    <path d="M 399.570146 288.78 
L 414.200146 288.78 
L 414.200146 259.52 
L 399.570146 259.52 
L 399.570146 288.78 
" clip-path="url(#p967599ab8b)" style="fill: #463480"/>
    <path d="M 399.570146 259.52 
L 414.200146 259.52 
L 414.200146 230.26 
L 399.570146 230.26 
L 399.570146 259.52 
" clip-path="url(#p967599ab8b)" style="fill: #3b528b"/>
    <path d="M 399.570146 230.26 
L 414.200146 230.26 
L 414.200146 201 
L 399.570146 201 
L 399.570146 230.26 
" clip-path="url(#p967599ab8b)" style="fill: #2f6c8e"/>
    <path d="M 399.570146 201 
L 414.200146 201 
L 414.200146 171.74 
L 399.570146 171.74 
L 399.570146 201 
" clip-path="url(#p967599ab8b)" style="fill: #25848e"/>
    <path d="M 399.570146 171.74 
L 414.200146 171.74 
L 414.200146 142.48 
L 399.570146 142.48 
L 399.570146 171.74 
" clip-path="url(#p967599ab8b)" style="fill: #1e9c89"/>
    <path d="M 399.570146 142.48 
L 414.200146 142.48 
L 414.200146 113.22 
L 399.570146 113.22 
L 399.570146 142.48 
" clip-path="url(#p967599ab8b)" style="fill: #2fb47c"/>
    <path d="M 399.570146 113.22 
L 414.200146 113.22 
L 414.200146 83.96 
L 399.570146 83.96 
L 399.570146 113.22 
" clip-path="url(#p967599ab8b)" style="fill: #5ec962"/>
    <path d="M 399.570146 83.96 
L 414.200146 83.96 
L 414.200146 54.7 
L 399.570146 54.7 
L 399.570146 83.96 
" clip-path="url(#p967599ab8b)" style="fill: #9bd93c"/>
    <path d="M 399.570146 54.7 
L 414.200146 54.7 
L 414.200146 25.44 
L 399.570146 25.44 
L 399.570146 54.7 
" clip-path="url(#p967599ab8b)" style="fill: #dfe318"/>
   </g>
   <g id="matplotlib.axis_5"/>
   <g id="matplotlib.axis_6">
    <g id="ytick_15">
     <g id="line2d_47">
      <defs>
       <path id="m7242310429" d="M 0 0 
L 3.5 0 
" style="stroke: #000000; stroke-width: 0.8"/>
      </defs>
      <g>
       <use xlink:href="#m7242310429" x="414.200146" y="318.04" style="stroke: #000000; stroke-width: 0.8"/>
      </g>
     </g>
     <g id="text_35">
      <!-- 0.0 -->
      <g transform="translate(421.200146 321.839219) scale(0.1 -0.1)">
       <use xlink:href="#DejaVuSans-30"/>
       <use xlink:href="#DejaVuSans-2e" transform="translate(63.623047 0)"/>
       <use xlink:href="#DejaVuSans-30" transform="translate(95.410156 0)"/>
      </g>
     </g>
    </g>
    <g id="ytick_16">
     <g id="line2d_48">
      <g>
       <use xlink:href="#m7242310429" x="414.200146" y="259.52" style="stroke: #000000; stroke-width: 0.8"/>
      </g>
     </g>
     <g id="text_36">
      <!-- 0.2 -->
      <g transform="translate(421.200146 263.319219) scale(0.1 -0.1)">
       <use xlink:href="#DejaVuSans-30"/>
       <use xlink:href="#DejaVuSans-2e" transform="translate(63.623047 0)"/>
       <use xlink:href="#DejaVuSans-32" transform="translate(95.410156 0)"/>
      </g>
     </g>
    </g>
    <g id="ytick_17">
     <g id="line2d_49">
      <g>
       <use xlink:href="#m7242310429" x="414.200146" y="201" style="stroke: #000000; stroke-width: 0.8"/>
      </g>
     </g>
     <g id="text_37">
      <!-- 0.4 -->
      <g transform="translate(421.200146 204.799219) scale(0.1 -0.1)">
       <use xlink:href="#DejaVuSans-30"/>
       <use xlink:href="#DejaVuSans-2e" transform="translate(63.623047 0)"/>
       <use xlink:href="#DejaVuSans-34" transform="translate(95.410156 0)"/>
      </g>
     </g>
    </g>
    <g id="ytick_18">
     <g id="line2d_50">
      <g>
       <use xlink:href="#m7242310429" x="414.200146" y="142.48" style="stroke: #000000; stroke-width: 0.8"/>
      </g>
     </g>
     <g id="text_38">
      <!-- 0.6 -->
      <g transform="translate(421.200146 146.279219) scale(0.1 -0.1)">
       <use xlink:href="#DejaVuSans-30"/>
       <use xlink:href="#DejaVuSans-2e" transform="translate(63.623047 0)"/>
       <use xlink:href="#DejaVuSans-36" transform="translate(95.410156 0)"/>
      </g>
     </g>
    </g>
    <g id="ytick_19">
     <g id="line2d_51">
      <g>
       <use xlink:href="#m7242310429" x="414.200146" y="83.96" style="stroke: #000000; stroke-width: 0.8"/>
      </g>
     </g>
     <g id="text_39">
      <!-- 0.8 -->
      <g transform="translate(421.200146 87.759219) scale(0.1 -0.1)">
       <use xlink:href="#DejaVuSans-30"/>
       <use xlink:href="#DejaVuSans-2e" transform="translate(63.623047 0)"/>
       <use xlink:href="#DejaVuSans-38" transform="translate(95.410156 0)"/>
      </g>
     </g>
    </g>
    <g id="ytick_20">
     <g id="line2d_52">
      <g>
       <use xlink:href="#m7242310429" x="414.200146" y="25.44" style="stroke: #000000; stroke-width: 0.8"/>
      </g>
     </g>
     <g id="text_40">
      <!-- 1.0 -->
      <g transform="translate(421.200146 29.239219) scale(0.1 -0.1)">
       <use xlink:href="#DejaVuSans-31"/>
       <use xlink:href="#DejaVuSans-2e" transform="translate(63.623047 0)"/>
       <use xlink:href="#DejaVuSans-30" transform="translate(95.410156 0)"/>
      </g>
     </g>
    </g>
    <g id="text_41">
     <!-- Probability -->
     <g transform="translate(448.701708 198.168906) rotate(-90) scale(0.1 -0.1)">
      <use xlink:href="#DejaVuSans-50"/>
      <use xlink:href="#DejaVuSans-72" transform="translate(58.552734 0)"/>
      <use xlink:href="#DejaVuSans-6f" transform="translate(97.416016 0)"/>
      <use xlink:href="#DejaVuSans-62" transform="translate(158.597656 0)"/>
      <use xlink:href="#DejaVuSans-61" transform="translate(222.074219 0)"/>
      <use xlink:href="#DejaVuSans-62" transform="translate(283.353516 0)"/>
      <use xlink:href="#DejaVuSans-69" transform="translate(346.830078 0)"/>
      <use xlink:href="#DejaVuSans-6c" transform="translate(374.613281 0)"/>
      <use xlink:href="#DejaVuSans-69" transform="translate(402.396484 0)"/>
      <use xlink:href="#DejaVuSans-74" transform="translate(430.179688 0)"/>
      <use xlink:href="#DejaVuSans-79" transform="translate(469.388672 0)"/>
     </g>
    </g>
   </g>
   <g id="LineCollection_1"/>
   <g id="patch_14">
    <path d="M 399.570146 318.04 
L 406.885146 318.04 
L 414.200146 318.04 
L 414.200146 25.44 
L 406.885146 25.44 
L 399.570146 25.44 
L 399.570146 318.04 
z
" style="fill: none; stroke: #000000; stroke-width: 0.8; stroke-linejoin: miter; stroke-linecap: square"/>
   </g>
  </g>
 </g>
 <defs>
  <clipPath id="p781b649c14">
   <rect x="51.05" y="25.44" width="328.01896" height="292.6"/>
  </clipPath>
  <clipPath id="pa374c6bb4c">
   <rect x="510.29461" y="25.44" width="410.023701" height="292.6"/>
  </clipPath>
  <clipPath id="p967599ab8b">
   <rect x="399.570146" y="25.44" width="14.63" height="292.6"/>
  </clipPath>
 </defs>
</svg>
